<svg viewBox="-853.5 -478 1707 956" width="1707" height="956" style="background-color: rgb(255, 255, 255);" xmlns="http://www.w3.org/2000/svg"><path d="M-335.69101736691215,169.55126096826345L-337.4325287702119,169.45178639972534M-337.43252877021195,-388.95380034461886L-337.4325287702119,169.45178639972534M-337.4325287702119,169.45178639972534L-474.9388560939055,298.45949476547173M-335.69101736691215,-388.8543257760807L-335.69101736691215,169.55126096826345M-335.69101736691215,169.55126096826345L-473.19734469060575,298.5589693340099M-255.5814928151217,174.12709112101692L-266.0305612349204,173.5302437097882M-266.03056123492047,-384.875343034556L-266.0305612349204,173.5302437097882M-266.0305612349204,173.5302437097882L-403.536888558614,302.5379520755346M-255.5814928151217,-384.2784956233273L-255.5814928151217,174.12709112101692M-255.5814928151217,174.12709112101692L-393.08782013881523,303.1347994867633" style="fill:none;stroke:rgb(0,0,0);stroke-width:1;stroke-linecap:round"></path><path d="M-335.6910173669121,169.55126096826345L-337.4325287702119,169.45178639972534L-337.4325287702119,-388.95380034461886zM-255.5814928151217,174.12709112101692L-266.03056123492047,173.53024370978818L-266.03056123492047,-384.87534303455595zM-335.69101736691215,-388.8543257760807L-335.6910173669121,169.55126096826345L-337.4325287702119,-388.95380034461886zM-255.58149281512175,-384.2784956233273L-255.5814928151217,174.12709112101692L-266.03056123492047,-384.87534303455595z" style="fill:rgb(238,238,238); fill-opacity: 0.27"></path><path d="M-335.69101736691215,-388.8543257760807L-337.43252877021195,-388.95380034461886M-337.43252877021195,-388.95380034461886L-474.9388560939055,-259.94609197887246M-335.69101736691215,-388.8543257760807L-473.19734469060575,-259.8466174103343M-255.5814928151217,-384.2784956233273L-266.03056123492047,-384.875343034556M-266.03056123492047,-384.875343034556L-403.536888558614,-255.86763466880956M-255.5814928151217,-384.2784956233273L-393.0878201388153,-255.27078725758085" style="fill:none;stroke:rgb(0,0,0);stroke-width:1;stroke-linecap:round"></path><path d="M-474.9388560939055,298.45949476547173L-337.4325287702119,169.45178639972534L-335.6910173669121,169.55126096826345zM-403.536888558614,302.53795207553463L-266.03056123492047,173.53024370978818L-255.5814928151217,174.12709112101692z" style="fill:rgb(238,238,238); fill-opacity: 0.27"></path><path d="M-209.84855009425468,71.35345167912091L-220.29761851405343,70.75660426789221M-220.29761851405345,-208.44618910427988L-220.29761851405343,70.75660426789221M-220.29761851405343,70.75660426789221L-289.0507821759002,135.2604584507654M-209.8485500942547,-207.84934169305117L-209.84855009425468,71.35345167912091M-209.84855009425468,71.35345167912091L-278.60171375610145,135.85730586199412M-112.32391150946638,76.92402751725557L-140.18809396226305,75.33243442064567M-140.18809396226305,-203.87035895152644L-140.18809396226305,75.33243442064567M-140.18809396226305,75.33243442064567L-208.94125762410982,139.83628860351885" style="fill:none;stroke:rgb(0,0,0);stroke-width:1;stroke-linecap:round"></path><path d="M-473.19734469060563,298.5589693340099L-335.6910173669121,169.55126096826345L-335.69101736691215,-388.8543257760807zM-209.8485500942547,71.35345167912094L-220.29761851405345,70.75660426789221L-220.29761851405345,-208.44618910427988z" style="fill:rgb(238,238,238); fill-opacity: 0.27"></path><path d="M-112.3239115094664,-202.27876585491651L-112.32391150946638,76.92402751725557M-112.32391150946638,76.92402751725557L-181.07707517131317,141.42788170012875" style="fill:none;stroke:rgb(0,0,0);stroke-width:1;stroke-linecap:round"></path><path d="M-393.08782013881523,303.1347994867633L-255.5814928151217,174.12709112101692L-255.58149281512175,-384.2784956233273zM-112.32391150946638,76.92402751725555L-140.18809396226305,75.33243442064568L-140.18809396226305,-203.87035895152644zM-209.8485500942547,-207.84934169305117L-209.8485500942547,71.35345167912094L-220.29761851405345,-208.44618910427988zM-337.4325287702119,-388.95380034461886L-337.4325287702119,169.45178639972534L-474.9388560939055,-259.94609197887246z" style="fill:rgb(238,238,238); fill-opacity: 0.27"></path><path d="M-209.8485500942547,-207.84934169305117L-220.29761851405345,-208.44618910427988M-220.29761851405345,-208.44618910427988L-289.0507821759002,-143.94233492140665" style="fill:none;stroke:rgb(0,0,0);stroke-width:1;stroke-linecap:round"></path><path d="M-112.3239115094664,-202.27876585491651L-112.32391150946638,76.92402751725555L-140.18809396226305,-203.87035895152644z" style="fill:rgb(238,238,238); fill-opacity: 0.27"></path><path d="M-209.8485500942547,-207.84934169305117L-278.6017137561015,-143.34548751017797" style="fill:none;stroke:rgb(0,0,0);stroke-width:1;stroke-linecap:round"></path><path d="M-266.03056123492047,-384.87534303455595L-266.03056123492047,173.53024370978818L-403.53688855861407,-255.86763466880956z" style="fill:rgb(238,238,238); fill-opacity: 0.27"></path><path d="M-112.3239115094664,-202.27876585491651L-140.18809396226305,-203.87035895152644M-140.18809396226305,-203.87035895152644L-208.94125762410985,-139.36650476865321" style="fill:none;stroke:rgb(0,0,0);stroke-width:1;stroke-linecap:round"></path><path d="M-289.0507821759002,135.2604584507654L-220.29761851405345,70.75660426789221L-209.8485500942547,71.35345167912094z" style="fill:rgb(238,238,238); fill-opacity: 0.27"></path><path d="M-112.3239115094664,-202.27876585491651L-181.07707517131317,-137.77491167204332M-127.91518344230742,-16.103915634778545L-155.77936589510406,-17.69550873138844M-155.77936589510406,-21.18554364854059L-155.77936589510406,-17.69550873138844M-155.77936589510406,-17.69550873138844L-156.63878044087716,-16.889210554102526M-127.91518344230742,-19.593950551930696L-155.77936589510406,-21.18554364854059M-155.77936589510406,-21.18554364854059L-156.63878044087716,-20.379245471254677" style="fill:none;stroke:rgb(0,0,0);stroke-width:1;stroke-linecap:round"></path><path d="M-155.77936589510406,-21.18554364854059L-155.77936589510406,-17.69550873138844L-156.63878044087718,-20.379245471254677z" style="fill:rgb(153,221,255); fill-opacity: 0.81"></path><path d="M-473.19734469060575,-259.8466174103343L-335.69101736691215,-388.8543257760807L-337.4325287702119,-388.95380034461886z" style="fill:rgb(238,238,238); fill-opacity: 0.27"></path><path d="M-127.91518344230742,-16.103915634778545L-155.77936589510406,-17.69550873138844L-155.77936589510406,-21.18554364854059zM-155.77936589510406,-17.69550873138844L-156.63878044087718,-16.889210554102526L-156.63878044087718,-20.379245471254677zM-156.63878044087718,-16.889210554102526L-155.77936589510406,-17.69550873138844L-127.91518344230742,-16.103915634778545z" style="fill:rgb(153,221,255); fill-opacity: 0.81"></path><path d="M-156.63878044087716,-20.379245471254677L-156.63878044087716,-16.889210554102526M-156.63878044087716,-16.889210554102526L-128.7745979880805,-15.297617457492631M-156.63878044087716,-20.379245471254677L-128.7745979880805,-18.78765237464478" style="fill:none;stroke:rgb(0,0,0);stroke-width:1;stroke-linecap:round"></path><path d="M-127.91518344230742,-19.593950551930696L-127.91518344230742,-16.103915634778545L-155.77936589510406,-21.18554364854059zM-156.63878044087718,-20.379245471254677L-128.77459798808053,-18.78765237464478L-155.77936589510406,-21.18554364854059z" style="fill:rgb(153,221,255); fill-opacity: 0.81"></path><path d="M-208.94125762410982,139.83628860351885L-140.18809396226305,75.33243442064568L-112.32391150946638,76.92402751725555z" style="fill:rgb(238,238,238); fill-opacity: 0.27"></path><path d="M-156.63878044087718,-20.379245471254677L-156.63878044087718,-16.889210554102526L-128.77459798808053,-18.78765237464478zM-128.77459798808053,-18.78765237464478L-127.91518344230742,-19.593950551930696L-155.77936589510406,-21.18554364854059z" style="fill:rgb(153,221,255); fill-opacity: 0.81"></path><path d="M-127.91518344230742,-19.593950551930696L-127.91518344230742,-16.103915634778545M-127.91518344230742,-16.103915634778545L-128.7745979880805,-15.297617457492631M-127.91518194487666,-19.593950923344526L-127.91518194487666,-16.10391600619237M-127.91518194487666,-16.10391600619237L-128.77459649064974,-15.297617828906457M-127.91518194487666,-16.10391600619237L-67.86224068320051,-19.956630801456075" style="fill:none;stroke:rgb(0,0,0);stroke-width:1;stroke-linecap:round"></path><path d="M-128.77459798808053,-15.297617457492631L-156.63878044087718,-16.889210554102526L-127.91518344230742,-16.103915634778545z" style="fill:rgb(153,221,255); fill-opacity: 0.81"></path><path d="M-127.91518344230742,-19.593950551930696L-128.7745979880805,-18.78765237464478M-127.91518194487666,-19.593950923344526L-128.77459649064974,-18.787652746058612M-127.91518194487666,-19.593950923344526L-67.86224068320051,-19.956630801456075" style="fill:none;stroke:rgb(0,0,0);stroke-width:1;stroke-linecap:round"></path><path d="M-128.77459798808053,-15.297617457492631L-127.91518344230742,-16.103915634778545L-127.91518344230742,-19.593950551930696z" style="fill:rgb(153,221,255); fill-opacity: 0.81"></path><path d="M-127.91518344230742,-19.593950551930696L-127.91518344230742,-16.103915634778545L-128.77459798808053,-15.297617457492631z" style="fill:rgb(255,187,187); fill-opacity: 0.81"></path><path d="M-156.63878044087718,-16.889210554102526L-128.77459798808053,-15.297617457492631L-128.77459798808053,-18.78765237464478z" style="fill:rgb(153,221,255); fill-opacity: 0.81"></path><path d="M-278.6017137561015,135.85730586199412L-209.8485500942547,71.35345167912094L-209.8485500942547,-207.84934169305117z" style="fill:rgb(238,238,238); fill-opacity: 0.27"></path><path d="M-128.77459798808053,-18.78765237464478L-128.77459798808053,-15.297617457492631L-127.91518344230742,-19.593950551930696z" style="fill:rgb(153,221,255); fill-opacity: 0.81"></path><path d="M-127.91518344230742,-19.593950551930696L-128.77459798808053,-15.297617457492631L-128.77459798808053,-18.78765237464478z" style="fill:rgb(255,187,187); fill-opacity: 0.81"></path><path d="M-128.7745979880805,-18.78765237464478L-128.7745979880805,-15.297617457492631M-128.77459649064974,-15.297617828906457L-128.77459649064974,-18.787652746058612M-128.77459649064974,-15.297617828906457L-67.86224068320051,-19.956630801456075M-128.77459649064974,-18.787652746058612L-67.86224068320051,-19.956630801456075M-31.987563840139796,28.819868558065487L-59.851746292936454,27.228275461455592M-59.85174629293647,-112.37312122463045L-59.851746292936454,27.228275461455592M-59.851746292936454,27.228275461455592L-94.22832812385984,59.48020255289219" style="fill:none;stroke:rgb(0,0,0);stroke-width:1;stroke-linecap:round"></path><path d="M-393.0878201388153,-255.27078725758085L-255.58149281512175,-384.2784956233273L-266.03056123492047,-384.87534303455595z" style="fill:rgb(238,238,238); fill-opacity: 0.27"></path><path d="M-127.91518344230742,-16.103915634778545L-127.91518344230742,-19.593950551930696L-67.86223589580024,-19.956630299528026zM-128.77459798808053,-15.297617457492631L-127.91518344230742,-16.103915634778545L-67.86223589580024,-19.956630299528026z" style="fill:rgb(255,187,187); fill-opacity: 0.81"></path><path d="M-31.987563840139803,-110.78152812802054L-31.987563840139796,28.819868558065487M-31.987563840139796,28.819868558065487L-66.36414567106318,61.0717956495021" style="fill:none;stroke:rgb(0,0,0);stroke-width:1;stroke-linecap:round"></path><path d="M-127.91518344230742,-19.593950551930696L-128.77459798808053,-18.78765237464478L-67.86223589580024,-19.956630299528026z" style="fill:rgb(255,187,187); fill-opacity: 0.81"></path><path d="M-220.29761851405345,-208.44618910427988L-220.29761851405345,70.75660426789221L-289.0507821759003,-143.94233492140665z" style="fill:rgb(238,238,238); fill-opacity: 0.27"></path><path d="M-128.77459798808053,-18.78765237464478L-128.77459798808053,-15.297617457492631L-67.86223589580024,-19.956630299528026z" style="fill:rgb(255,187,187); fill-opacity: 0.81"></path><path d="M-181.07707517131317,141.42788170012875L-112.32391150946638,76.92402751725555L-112.3239115094664,-202.27876585491651zM-31.987563840139785,28.81986855806549L-59.85174629293645,27.228275461455596L-59.85174629293645,-112.37312122463044z" style="fill:rgb(238,238,238); fill-opacity: 0.27"></path><path d="M202.4158372418343,431.9635010021994L167.5856091758385,429.97400963143696M167.58560917583847,-463.47492915951364L167.5856091758385,429.97400963143696M167.5856091758385,429.97400963143696L158.99146371810767,438.03699140429615M93.40125719744522,35.98203749281003L37.6728922918519,32.79885129959023M37.672892291851895,-106.80254538649581L37.6728922918519,32.79885129959023M37.6728922918519,32.79885129959023L3.296310460928507,65.05077839102684" style="fill:none;stroke:rgb(0,0,0);stroke-width:1;stroke-linecap:round"></path><path d="M-31.987563840139785,-110.78152812802055L-31.987563840139785,28.81986855806549L-59.85174629293645,-112.37312122463044zM-140.18809396226305,-203.87035895152644L-140.18809396226305,75.33243442064568L-208.94125762410985,-139.3665047686532z" style="fill:rgb(238,238,238); fill-opacity: 0.27"></path><path d="M202.41583724183428,-461.48543778875126L202.4158372418343,431.9635010021994M202.4158372418343,431.9635010021994L193.82169178410348,440.0264827750585" style="fill:none;stroke:rgb(0,0,0);stroke-width:1;stroke-linecap:round"></path><path d="M-473.19734469060563,298.5589693340099L-474.9388560939055,298.45949476547173L-335.6910173669121,169.55126096826345zM-278.6017137561015,-143.34548751017795L-209.8485500942547,-207.84934169305117L-220.29761851405345,-208.44618910427988zM158.99146371810764,438.03699140429615L167.58560917583847,429.97400963143696L202.41583724183437,431.96350100219934z" style="fill:rgb(238,238,238); fill-opacity: 0.27"></path><path d="M-31.987563840139803,-110.78152812802054L-59.85174629293647,-112.37312122463045M-59.85174629293647,-112.37312122463045L-94.22832812385985,-80.12119413319385M93.40125719744522,-103.61935919327603L93.40125719744522,35.98203749281003M93.40125719744522,35.98203749281003L59.02467536652182,68.23396458424662M-416.45387325424224,27.178755049922554L-418.19538465754204,27.079280481384433M-418.19538465754204,11.374123354199757L-418.19538465754204,27.079280481384433M-418.19538465754204,27.079280481384433L-422.06275011352096,30.707622279171055M-416.45387788706415,11.473596809722666L-416.45387788706415,27.178753936907352M-416.45387788706415,27.178753936907352L-420.32124334304314,30.807095734693966M-416.45387788706415,27.178753936907352L-348.7270978397232,25.119329393198413M-416.45387325424224,11.473597922737875L-416.45387325424224,27.178755049922554M-416.45387325424224,27.178755049922554L-420.32123871022117,30.807096847709175" style="fill:none;stroke:rgb(0,0,0);stroke-width:1;stroke-linecap:round"></path><path d="M93.40125719744522,35.98203749281003L37.67289229185185,32.798851299590225L37.67289229185185,-106.80254538649582z" style="fill:rgb(238,238,238); fill-opacity: 0.27"></path><path d="M-416.4538732542423,27.178755049922565L-418.1953846575421,27.07928048138444L-418.1953846575421,11.374123354199762z" style="fill:rgb(153,221,255); fill-opacity: 0.81"></path><path d="M-31.987563840139803,-110.78152812802054L-66.3641456710632,-78.52960103658395" style="fill:none;stroke:rgb(0,0,0);stroke-width:1;stroke-linecap:round"></path><path d="M-416.4538732542423,11.47359792273788L-416.4538732542423,27.178755049922565L-418.1953846575421,11.374123354199762z" style="fill:rgb(153,221,255); fill-opacity: 0.81"></path><path d="M-416.45387325424224,11.473597922737875L-418.19538465754204,11.374123354199757M-418.19538465754204,11.374123354199757L-422.06275011352096,15.002465151986376M-416.45387788706415,11.473596809722666L-420.32124334304314,15.10193860750928M-416.45387788706415,11.473596809722666L-348.7270978397232,25.119329393198413M-416.45387325424224,11.473597922737875L-420.32123871022117,15.101939720524495" style="fill:none;stroke:rgb(0,0,0);stroke-width:1;stroke-linecap:round"></path><path d="M-422.06275011352096,30.707622279171055L-418.1953846575421,27.07928048138444L-416.4538732542423,27.178755049922565zM-420.32123871022117,30.80709684770918L-416.4538732542423,27.178755049922565L-416.4538732542423,11.47359792273788z" style="fill:rgb(153,221,255); fill-opacity: 0.81"></path><path d="M-416.4538732542423,11.47359792273788L-416.4538732542423,27.178755049922565L-420.32123871022117,30.80709684770918z" style="fill:rgb(255,187,187); fill-opacity: 0.81"></path><path d="M-418.1953846575421,11.374123354199762L-418.1953846575421,27.07928048138444L-422.06275011352096,15.002465151986376z" style="fill:rgb(153,221,255); fill-opacity: 0.81"></path><path d="M193.82169178410354,440.02648277505847L158.99146371810764,438.03699140429615L202.41583724183437,431.96350100219934z" style="fill:rgb(238,238,238); fill-opacity: 0.27"></path><path d="M-420.32123871022117,15.101939720524495L-416.4538732542423,11.47359792273788L-418.1953846575421,11.374123354199762z" style="fill:rgb(153,221,255); fill-opacity: 0.81"></path><path d="M-94.22832812385984,59.480202552892194L-59.85174629293645,27.228275461455596L-31.987563840139785,28.81986855806549zM-393.08782013881523,303.1347994867633L-403.536888558614,302.53795207553463L-255.5814928151217,174.12709112101692z" style="fill:rgb(238,238,238); fill-opacity: 0.27"></path><path d="M-416.4538732542423,27.178755049922565L-416.4538732542423,11.47359792273788L-348.7270998502401,25.119330126748267z" style="fill:rgb(255,187,187); fill-opacity: 0.81"></path><path d="M-420.32123871022117,30.80709684770918L-422.06275011352096,30.707622279171055L-416.4538732542423,27.178755049922565zM-418.1953846575421,27.07928048138444L-422.06275011352096,30.707622279171055L-422.06275011352096,15.002465151986376z" style="fill:rgb(153,221,255); fill-opacity: 0.81"></path><path d="M-342.90789796067537,163.8189701506385L-353.35696638047415,163.2221227394098M-353.35696638047415,159.73208782225765L-353.35696638047415,163.2221227394098M-353.35696638047415,163.2221227394098L-354.21638092624727,164.02842091669572" style="fill:none;stroke:rgb(0,0,0);stroke-width:1;stroke-linecap:round"></path><path d="M-420.32123871022117,15.101939720524495L-420.32123871022117,30.80709684770918L-416.4538732542423,11.47359792273788z" style="fill:rgb(153,221,255); fill-opacity: 0.81"></path><path d="M-416.4538732542423,11.47359792273788L-420.32123871022117,30.80709684770918L-420.32123871022117,15.101939720524495z" style="fill:rgb(255,187,187); fill-opacity: 0.81"></path><path d="M-342.90789796067537,160.32893523348633L-353.35696638047415,159.73208782225765M-353.35696638047415,159.73208782225765L-354.21638092624727,160.53838599954355" style="fill:none;stroke:rgb(0,0,0);stroke-width:1;stroke-linecap:round"></path><path d="M-422.06275011352096,15.002465151986376L-420.32123871022117,15.101939720524495L-418.1953846575421,11.374123354199762zM-342.90789796067537,163.81897015063848L-353.35696638047415,163.22212273940974L-353.35696638047415,159.73208782225763z" style="fill:rgb(153,221,255); fill-opacity: 0.81"></path><path d="M-420.32123871022117,30.80709684770918L-416.4538732542423,27.178755049922565L-348.7270998502401,25.119330126748267z" style="fill:rgb(255,187,187); fill-opacity: 0.81"></path><path d="M158.99146371810764,-455.4119473866545L158.99146371810767,438.03699140429615M158.99146371810767,438.03699140429615L193.82169178410348,440.0264827750585" style="fill:none;stroke:rgb(0,0,0);stroke-width:1;stroke-linecap:round"></path><path d="M-353.35696638047415,159.73208782225763L-353.35696638047415,163.22212273940974L-354.2163809262472,160.53838599954352zM-354.2163809262472,164.02842091669567L-353.35696638047415,163.22212273940974L-342.90789796067537,163.81897015063848z" style="fill:rgb(153,221,255); fill-opacity: 0.81"></path><path d="M-422.06275011352096,15.002465151986376L-422.06275011352096,30.707622279171055M-422.06275011352096,30.707622279171055L-420.32123871022117,30.807096847709175" style="fill:none;stroke:rgb(0,0,0);stroke-width:1;stroke-linecap:round"></path><path d="M-181.07707517131317,-137.77491167204332L-112.3239115094664,-202.27876585491651L-140.18809396226305,-203.87035895152644z" style="fill:rgb(238,238,238); fill-opacity: 0.27"></path><path d="M-342.90789796067537,160.32893523348633L-342.90789796067537,163.81897015063848L-353.35696638047415,159.73208782225763z" style="fill:rgb(153,221,255); fill-opacity: 0.81"></path><path d="M-342.90789796067537,160.32893523348633L-342.90789796067537,163.8189701506385M-342.90789796067537,163.8189701506385L-343.7673125064485,164.62526832792443M-342.90789645251596,160.32893095132977L-342.90789645251596,163.81896586848194M-342.90789645251596,163.81896586848194L-343.7673109982891,164.62526404576784M-342.90789645251596,163.81896586848194L-264.17567535322274,64.93160737760287" style="fill:none;stroke:rgb(0,0,0);stroke-width:1;stroke-linecap:round"></path><path d="M-353.35696638047415,163.22212273940974L-354.2163809262472,164.02842091669567L-354.2163809262472,160.53838599954352z" style="fill:rgb(153,221,255); fill-opacity: 0.81"></path><path d="M-420.32124334304314,30.807095734693966L-420.32124334304314,15.10193860750928M-420.32124334304314,30.807095734693966L-348.7270978397232,25.119329393198413M-420.32123871022117,15.101939720524495L-420.32123871022117,30.807096847709175" style="fill:none;stroke:rgb(0,0,0);stroke-width:1;stroke-linecap:round"></path><path d="M93.40125719744518,-103.61935919327601L93.40125719744522,35.98203749281003L37.67289229185185,-106.80254538649582z" style="fill:rgb(238,238,238); fill-opacity: 0.27"></path><path d="M-342.90789796067537,160.32893523348633L-343.7673125064485,161.13523341077226M-342.90789645251596,160.32893095132977L-343.7673109982891,161.1352291286157M-342.90789645251596,160.32893095132977L-264.17567535322274,64.93160737760287M-354.21638092624727,160.53838599954355L-354.21638092624727,164.02842091669572M-354.21638092624727,164.02842091669572L-343.7673125064485,164.62526832792443" style="fill:none;stroke:rgb(0,0,0);stroke-width:1;stroke-linecap:round"></path><path d="M-343.7673125064485,161.13523341077226L-342.90789796067537,160.32893523348633L-353.35696638047415,159.73208782225763z" style="fill:rgb(153,221,255); fill-opacity: 0.81"></path><path d="M-416.4538732542423,11.47359792273788L-420.32123871022117,15.101939720524495L-348.7270998502401,25.119330126748267z" style="fill:rgb(255,187,187); fill-opacity: 0.81"></path><path d="M-422.06275011352096,30.707622279171055L-420.32123871022117,30.80709684770918L-420.32123871022117,15.101939720524495zM-343.7673125064485,164.6252683279244L-342.90789796067537,163.81897015063848L-342.90789796067537,160.32893523348633z" style="fill:rgb(153,221,255); fill-opacity: 0.81"></path><path d="M-342.90789796067537,160.32893523348633L-342.90789796067537,163.81897015063848L-343.7673125064485,164.6252683279244zM-342.90789796067537,163.81897015063848L-342.90789796067537,160.32893523348633L-264.1756747232736,64.93160959773645z" style="fill:rgb(255,187,187); fill-opacity: 0.81"></path><path d="M-354.2163809262472,160.53838599954352L-343.7673125064485,161.13523341077226L-353.35696638047415,159.73208782225763zM-343.7673125064485,164.6252683279244L-354.2163809262472,164.02842091669567L-342.90789796067537,163.81897015063848z" style="fill:rgb(153,221,255); fill-opacity: 0.81"></path><path d="M-278.6017137561015,135.85730586199412L-289.0507821759002,135.2604584507654L-209.8485500942547,71.35345167912094z" style="fill:rgb(238,238,238); fill-opacity: 0.27"></path><path d="M-354.21638092624727,160.53838599954355L-343.7673125064485,161.13523341077226" style="fill:none;stroke:rgb(0,0,0);stroke-width:1;stroke-linecap:round"></path><path d="M-343.7673125064485,164.6252683279244L-342.90789796067537,163.81897015063848L-264.1756747232736,64.93160959773645z" style="fill:rgb(255,187,187); fill-opacity: 0.81"></path><path d="M-354.2163809262472,160.53838599954352L-354.2163809262472,164.02842091669567L-343.7673125064485,161.13523341077226zM-422.06275011352096,15.002465151986376L-422.06275011352096,30.707622279171055L-420.32123871022117,15.101939720524495zM-343.7673125064485,161.13523341077226L-343.7673125064485,164.6252683279244L-342.90789796067537,160.32893523348633z" style="fill:rgb(153,221,255); fill-opacity: 0.81"></path><path d="M-342.90789796067537,160.32893523348633L-343.7673125064485,164.6252683279244L-343.7673125064485,161.13523341077226zM-342.90789796067537,160.32893523348633L-343.7673125064485,161.13523341077226L-264.1756747232736,64.93160959773645z" style="fill:rgb(255,187,187); fill-opacity: 0.81"></path><path d="M-354.2163809262472,164.02842091669567L-343.7673125064485,164.6252683279244L-343.7673125064485,161.13523341077226z" style="fill:rgb(153,221,255); fill-opacity: 0.81"></path><path d="M93.40125719744522,-103.61935919327603L37.672892291851895,-106.80254538649581M37.672892291851895,-106.80254538649581L3.296310460928501,-74.55061829505921M-343.7673125064485,161.13523341077226L-343.7673125064485,164.62526832792443M-343.7673109982891,164.62526404576784L-343.7673109982891,161.1352291286157M-343.7673109982891,164.62526404576784L-264.17567535322274,64.93160737760287M-343.7673109982891,161.1352291286157L-264.17567535322274,64.93160737760287M-422.06275011352096,15.002465151986376L-420.32123871022117,15.101939720524495" style="fill:none;stroke:rgb(0,0,0);stroke-width:1;stroke-linecap:round"></path><path d="M-343.7673125064485,161.13523341077226L-343.7673125064485,164.6252683279244L-264.1756747232736,64.93160959773645z" style="fill:rgb(255,187,187); fill-opacity: 0.81"></path><path d="M-420.32124334304314,15.10193860750928L-348.7270978397232,25.119329393198413" style="fill:none;stroke:rgb(0,0,0);stroke-width:1;stroke-linecap:round"></path><path d="M-420.32123871022117,15.101939720524495L-420.32123871022117,30.80709684770918L-348.7270998502401,25.119330126748267z" style="fill:rgb(255,187,187); fill-opacity: 0.81"></path><path d="M193.82169178410345,-453.4224560158921L193.82169178410348,440.0264827750585" style="fill:none;stroke:rgb(0,0,0);stroke-width:1;stroke-linecap:round"></path><path d="M-66.36414567106318,61.071795649502086L-31.987563840139785,28.81986855806549L-31.987563840139785,-110.78152812802055z" style="fill:rgb(238,238,238); fill-opacity: 0.27"></path><path d="M-46.87805578591499,11.700390187652498L-74.74223823871165,10.108797091042604M-74.74223823871165,1.3837097981622248L-74.74223823871165,10.108797091042604M-74.74223823871165,10.108797091042604L-76.89077460314435,12.124542534257388" style="fill:none;stroke:rgb(0,0,0);stroke-width:1;stroke-linecap:round"></path><path d="M-59.85174629293645,-112.37312122463044L-59.85174629293645,27.228275461455596L-94.22832812385984,-80.12119413319385z" style="fill:rgb(238,238,238); fill-opacity: 0.27"></path><path d="M-46.87805578591499,2.9753028947721223L-74.74223823871165,1.3837097981622248M-74.74223823871165,1.3837097981622248L-76.89077460314435,3.3994552413770123" style="fill:none;stroke:rgb(0,0,0);stroke-width:1;stroke-linecap:round"></path><path d="M-46.87805578591497,11.70039018765251L-74.74223823871162,10.108797091042609L-74.74223823871162,1.3837097981622306z" style="fill:rgb(153,221,255); fill-opacity: 0.81"></path><path d="M93.40125719744522,-103.61935919327603L59.02467536652182,-71.36743210183941" style="fill:none;stroke:rgb(0,0,0);stroke-width:1;stroke-linecap:round"></path><path d="M-74.74223823871162,1.3837097981622306L-74.74223823871162,10.108797091042609L-76.89077460314434,3.3994552413770167zM-76.89077460314434,12.124542534257396L-74.74223823871162,10.108797091042609L-46.87805578591497,11.70039018765251zM-46.87805578591497,2.975302894772123L-46.87805578591497,11.70039018765251L-74.74223823871162,1.3837097981622306zM-74.74223823871162,10.108797091042609L-76.89077460314434,12.124542534257396L-76.89077460314434,3.3994552413770167z" style="fill:rgb(153,221,255); fill-opacity: 0.81"></path><path d="M-46.878060258818216,2.9753013965436748L-46.878060258818216,11.700388689424047M-46.878060258818216,11.700388689424047L-49.02659658483213,13.7161340965945M-46.878060258818216,11.700388689424047L21.70814097763465,12.324701265046729M-46.87805578591499,2.9753028947721223L-46.87805578591499,11.700390187652498M-46.87805578591499,11.700390187652498L-49.026592150347696,13.716135630867289" style="fill:none;stroke:rgb(0,0,0);stroke-width:1;stroke-linecap:round"></path><path d="M3.296310460928501,65.05077839102682L37.67289229185185,32.798851299590225L93.40125719744522,35.98203749281003zM-337.4325287702119,169.45178639972534L-474.9388560939055,298.45949476547173L-474.9388560939055,-259.94609197887246z" style="fill:rgb(238,238,238); fill-opacity: 0.27"></path><path d="M-76.89077460314435,3.3994552413770123L-76.89077460314435,12.124542534257388M-76.89077460314435,12.124542534257388L-49.026592150347696,13.716135630867289M-46.878060258818216,2.9753013965436748L-49.02659658483213,4.99104680371412M-46.878060258818216,2.9753013965436748L21.70814097763465,12.324701265046729M-46.87805578591499,2.9753028947721223L-49.026592150347696,4.991048337986909" style="fill:none;stroke:rgb(0,0,0);stroke-width:1;stroke-linecap:round"></path><path d="M-49.026592150347675,4.991048337986916L-46.87805578591497,2.975302894772123L-74.74223823871162,1.3837097981622306z" style="fill:rgb(153,221,255); fill-opacity: 0.81"></path><path d="M-220.29761851405345,70.75660426789221L-289.0507821759002,135.2604584507654L-289.0507821759003,-143.94233492140665z" style="fill:rgb(238,238,238); fill-opacity: 0.27"></path><path d="M-76.89077460314434,3.3994552413770167L-49.026592150347675,4.991048337986916L-74.74223823871162,1.3837097981622306zM-49.026592150347675,13.716135630867296L-76.89077460314434,12.124542534257396L-46.87805578591497,11.70039018765251zM-49.026592150347675,13.716135630867296L-46.87805578591497,11.70039018765251L-46.87805578591497,2.975302894772123z" style="fill:rgb(153,221,255); fill-opacity: 0.81"></path><path d="M-46.87805578591497,2.975302894772123L-46.87805578591497,11.70039018765251L-49.026592150347675,13.716135630867296z" style="fill:rgb(255,187,187); fill-opacity: 0.81"></path><path d="M-76.89077460314435,3.3994552413770123L-49.026592150347696,4.991048337986909" style="fill:none;stroke:rgb(0,0,0);stroke-width:1;stroke-linecap:round"></path><path d="M-181.07707517131317,141.42788170012875L-208.94125762410982,139.83628860351885L-112.32391150946638,76.92402751725555z" style="fill:rgb(238,238,238); fill-opacity: 0.27"></path><path d="M-76.89077460314434,3.3994552413770167L-76.89077460314434,12.124542534257396L-49.026592150347675,4.991048337986916zM-76.89077460314434,12.124542534257396L-49.026592150347675,13.716135630867296L-49.026592150347675,4.991048337986916zM-49.026592150347675,4.991048337986916L-49.026592150347675,13.716135630867296L-46.87805578591497,2.975302894772123z" style="fill:rgb(153,221,255); fill-opacity: 0.81"></path><path d="M-46.87805578591497,2.975302894772123L-49.026592150347675,13.716135630867296L-49.026592150347675,4.991048337986916zM-46.87805578591497,11.70039018765251L-46.87805578591497,2.975302894772123L21.708132163860352,12.324702004344447z" style="fill:rgb(255,187,187); fill-opacity: 0.81"></path><path d="M-49.02659658483213,13.7161340965945L-49.02659658483213,4.99104680371412M-49.02659658483213,13.7161340965945L21.70814097763465,12.324701265046729M-49.026592150347696,4.991048337986909L-49.026592150347696,13.716135630867289" style="fill:none;stroke:rgb(0,0,0);stroke-width:1;stroke-linecap:round"></path><path d="M-66.36414567106318,-78.52960103658395L-31.987563840139785,-110.78152812802055L-59.85174629293645,-112.37312122463044z" style="fill:rgb(238,238,238); fill-opacity: 0.27"></path><path d="M-49.026592150347675,13.716135630867296L-46.87805578591497,11.70039018765251L21.708132163860352,12.324702004344447z" style="fill:rgb(255,187,187); fill-opacity: 0.81"></path><path d="M-49.02659658483213,4.99104680371412L21.70814097763465,12.324701265046729" style="fill:none;stroke:rgb(0,0,0);stroke-width:1;stroke-linecap:round"></path><path d="M-46.87805578591497,2.975302894772123L-49.026592150347675,4.991048337986916L21.708132163860352,12.324702004344447zM-49.026592150347675,4.991048337986916L-49.026592150347675,13.716135630867296L21.708132163860352,12.324702004344447z" style="fill:rgb(255,187,187); fill-opacity: 0.81"></path><path d="M-266.03056123492047,173.53024370978818L-403.536888558614,302.53795207553463L-403.53688855861407,-255.86763466880956zM37.67289229185185,-106.80254538649582L37.67289229185185,32.798851299590225L3.296310460928501,-74.55061829505922zM202.41583724183437,431.96350100219934L167.58560917583847,429.97400963143696L167.58560917583847,-463.47492915951364zM59.02467536652182,68.23396458424664L93.40125719744522,35.98203749281003L93.40125719744518,-103.61935919327601zM-66.36414567106318,61.071795649502086L-94.22832812385984,59.480202552892194L-31.987563840139785,28.81986855806549zM-140.18809396226305,75.33243442064568L-208.94125762410982,139.83628860351885L-208.94125762410985,-139.3665047686532zM-278.6017137561015,-143.34548751017795L-278.6017137561015,135.85730586199412L-209.8485500942547,-207.84934169305117zM-59.85174629293645,27.228275461455596L-94.22832812385984,59.480202552892194L-94.22832812385984,-80.12119413319385zM193.82169178410354,440.02648277505847L202.41583724183437,431.96350100219934L202.41583724183425,-461.4854377887513zM59.02467536652177,-71.36743210183941L93.40125719744518,-103.61935919327601L37.67289229185185,-106.80254538649582zM167.58560917583847,429.97400963143696L158.99146371810764,438.03699140429615L158.99146371810764,-455.4119473866545zM-473.19734469060575,-259.8466174103343L-473.19734469060563,298.5589693340099L-335.69101736691215,-388.8543257760807zM-66.36414567106318,-78.52960103658395L-66.36414567106318,61.071795649502086L-31.987563840139785,-110.78152812802055zM-289.0507821759003,-143.94233492140665L-278.6017137561015,-143.34548751017795L-220.29761851405345,-208.44618910427988zM59.02467536652182,68.23396458424664L3.296310460928501,65.05077839102682L93.40125719744522,35.98203749281003zM-181.07707517131317,-137.77491167204332L-181.07707517131317,141.42788170012875L-112.3239115094664,-202.27876585491651zM37.67289229185185,32.798851299590225L3.296310460928501,65.05077839102682L3.296310460928501,-74.55061829505922z" style="fill:rgb(238,238,238); fill-opacity: 0.27"></path><path d="M306.90652143982174,95.90855323357569L272.0762933738259,93.91906186281331M272.0762933738259,-115.48303316631575L272.0762933738259,93.91906186281331M272.0762933738259,93.91906186281331L263.4821479160951,101.98204363567244M95.36959171828121,-16.598477050595392L138.32687299967606,-14.144771026655143" style="fill:none;stroke:rgb(0,0,0);stroke-width:1;stroke-linecap:round"></path><path d="M-94.22832812385984,-80.12119413319385L-66.36414567106318,-78.52960103658395L-59.85174629293645,-112.37312122463044zM158.99146371810764,438.03699140429615L193.82169178410354,440.02648277505847L193.82169178410342,-453.4224560158922z" style="fill:rgb(238,238,238); fill-opacity: 0.27"></path><path d="M-266.3257125844604,-34.1933985154862L-276.77478100425907,-34.79024592671491M-276.77478100425907,-47.00536813674744L-276.77478100425907,-34.79024592671491M-276.77478100425907,-34.79024592671491L-279.7827319144649,-31.968202306214206M306.90652143982174,-113.49354179555337L306.90652143982174,95.90855323357569M306.90652143982174,95.90855323357569L298.3123759820909,103.97153500643482" style="fill:none;stroke:rgb(0,0,0);stroke-width:1;stroke-linecap:round"></path><path d="M-266.32571258446035,-34.193398515486194L-276.77478100425907,-34.79024592671491L-276.77478100425907,-47.00536813674744z" style="fill:rgb(153,221,255); fill-opacity: 0.81"></path><path d="M-94.22832812385985,-80.12119413319385L-94.22832812385984,59.48020255289219M-94.22832812385984,59.48020255289219L-66.36414567106318,61.0717956495021M-266.3257125844604,-46.40852072551873L-266.3257125844604,-34.1933985154862M-266.3257125844604,-34.1933985154862L-269.33366349466615,-31.37135489498549M-266.3257130944374,-46.40852072773958L-266.3257130944374,-34.193398517707045M-266.3257130944374,-34.193398517707045L-269.3336640046432,-31.371354897206334M-266.3257130944374,-34.193398517707045L-198.16923021175256,-34.91095494495385M-266.3257125844604,-46.40852072551873L-276.77478100425907,-47.00536813674744M-276.77478100425907,-47.00536813674744L-279.7827319144649,-44.183324516246735" style="fill:none;stroke:rgb(0,0,0);stroke-width:1;stroke-linecap:round"></path><path d="M-266.32571258446035,-46.40852072551873L-266.32571258446035,-34.193398515486194L-276.77478100425907,-47.00536813674744z" style="fill:rgb(153,221,255); fill-opacity: 0.81"></path><path d="M-393.0878201388153,-255.27078725758085L-393.08782013881523,303.1347994867633L-255.58149281512175,-384.2784956233273z" style="fill:rgb(238,238,238); fill-opacity: 0.27"></path><path d="M-279.7827319144649,-31.9682023062142L-276.77478100425907,-34.79024592671491L-266.32571258446035,-34.193398515486194z" style="fill:rgb(153,221,255); fill-opacity: 0.81"></path><path d="M138.95831198526864,-18.26655572471262L137.6954340140834,-17.08173029755484L161.5470250436733,-12.818443446146897z" style="fill:rgb(0,0,0)"></path><path d="M-266.3257125844604,-46.40852072551873L-269.33366349466615,-43.58647710501803M-266.3257130944374,-46.40852072773958L-269.3336640046432,-43.58647710723887M-266.3257130944374,-46.40852072773958L-198.16923021175256,-34.91095494495385" style="fill:none;stroke:rgb(0,0,0);stroke-width:1;stroke-linecap:round"></path><path d="M137.30518321925197,-11.83812692201188L138.32687299967603,-9.782227380214954L161.5470250436733,-12.818443446146897z" style="fill:rgb(0,0,0)"></path><path d="M-276.77478100425907,-47.00536813674744L-276.77478100425907,-34.79024592671491L-279.7827319144649,-44.183324516246735z" style="fill:rgb(153,221,255); fill-opacity: 0.81"></path><path d="M263.48214791609513,101.98204363567244L272.07629337382605,93.91906186281331L306.9065214398218,95.90855323357566z" style="fill:rgb(238,238,238); fill-opacity: 0.27"></path><path d="M137.6954340140834,-17.08173029755484L137.30518321925197,-11.83812692201188L161.5470250436733,-12.818443446146897z" style="fill:rgb(0,0,0)"></path><path d="M-269.3336634946661,-31.37135489498549L-266.32571258446035,-34.193398515486194L-266.32571258446035,-46.40852072551873z" style="fill:rgb(153,221,255); fill-opacity: 0.81"></path><path d="M-266.32571258446035,-46.40852072551873L-266.32571258446035,-34.193398515486194L-269.3336634946661,-31.37135489498549z" style="fill:rgb(255,187,187); fill-opacity: 0.81"></path><path d="M-208.94125762410985,-139.3665047686532L-181.07707517131317,-137.77491167204332L-140.18809396226305,-203.87035895152644z" style="fill:rgb(238,238,238); fill-opacity: 0.27"></path><path d="M-269.3336634946661,-43.58647710501803L-266.32571258446035,-46.40852072551873L-276.77478100425907,-47.00536813674744z" style="fill:rgb(153,221,255); fill-opacity: 0.81"></path><path d="M-66.3641456710632,-78.52960103658395L-66.36414567106318,61.0717956495021" style="fill:none;stroke:rgb(0,0,0);stroke-width:1;stroke-linecap:round"></path><path d="M-276.77478100425907,-34.79024592671491L-279.7827319144649,-31.9682023062142L-279.7827319144649,-44.183324516246735zM-269.3336634946661,-31.37135489498549L-279.7827319144649,-31.9682023062142L-266.32571258446035,-34.193398515486194z" style="fill:rgb(153,221,255); fill-opacity: 0.81"></path><path d="M-289.0507821759002,-143.94233492140665L-289.0507821759002,135.2604584507654M-289.0507821759002,135.2604584507654L-278.60171375610145,135.85730586199412" style="fill:none;stroke:rgb(0,0,0);stroke-width:1;stroke-linecap:round"></path><path d="M306.9065214398218,95.90855323357566L272.07629337382605,93.91906186281331L272.07629337382605,-115.48303316631575z" style="fill:rgb(238,238,238); fill-opacity: 0.27"></path><path d="M-266.32571258446035,-34.193398515486194L-266.32571258446035,-46.40852072551873L-198.1692319075716,-34.91095506872736z" style="fill:rgb(255,187,187); fill-opacity: 0.81"></path><path d="M-279.7827319144649,-44.183324516246735L-269.3336634946661,-43.58647710501803L-276.77478100425907,-47.00536813674744z" style="fill:rgb(153,221,255); fill-opacity: 0.81"></path><path d="M-279.7827319144649,-44.183324516246735L-279.7827319144649,-31.968202306214206M-279.7827319144649,-31.968202306214206L-269.33366349466615,-31.37135489498549" style="fill:none;stroke:rgb(0,0,0);stroke-width:1;stroke-linecap:round"></path><path d="M-269.3336634946661,-43.58647710501803L-269.3336634946661,-31.37135489498549L-266.32571258446035,-46.40852072551873z" style="fill:rgb(153,221,255); fill-opacity: 0.81"></path><path d="M-266.32571258446035,-46.40852072551873L-269.3336634946661,-31.37135489498549L-269.3336634946661,-43.58647710501803z" style="fill:rgb(255,187,187); fill-opacity: 0.81"></path><path d="M-278.6017137561015,-143.34548751017797L-278.60171375610145,135.85730586199412M-269.33366349466615,-43.58647710501803L-269.33366349466615,-31.37135489498549M-269.3336640046432,-31.371354897206334L-269.3336640046432,-43.58647710723887M-269.3336640046432,-31.371354897206334L-198.16923021175256,-34.91095494495385" style="fill:none;stroke:rgb(0,0,0);stroke-width:1;stroke-linecap:round"></path><path d="M-269.3336634946661,-31.37135489498549L-266.32571258446035,-34.193398515486194L-198.1692319075716,-34.91095506872736z" style="fill:rgb(255,187,187); fill-opacity: 0.81"></path><path d="M-279.7827319144649,-31.9682023062142L-269.3336634946661,-31.37135489498549L-269.3336634946661,-43.58647710501803zM-279.7827319144649,-44.183324516246735L-279.7827319144649,-31.9682023062142L-269.3336634946661,-43.58647710501803z" style="fill:rgb(153,221,255); fill-opacity: 0.81"></path><path d="M-279.7827319144649,-44.183324516246735L-269.33366349466615,-43.58647710501803" style="fill:none;stroke:rgb(0,0,0);stroke-width:1;stroke-linecap:round"></path><path d="M59.02467536652177,-71.36743210183941L59.02467536652182,68.23396458424664L93.40125719744518,-103.61935919327601z" style="fill:rgb(238,238,238); fill-opacity: 0.27"></path><path d="M-266.32571258446035,-46.40852072551873L-269.3336634946661,-43.58647710501803L-198.1692319075716,-34.91095506872736z" style="fill:rgb(255,187,187); fill-opacity: 0.81"></path><path d="M-269.3336640046432,-43.58647710723887L-198.16923021175256,-34.91095494495385M199.86027591626865,-10.630002938308277L242.8175571976635,-8.176296914368029" style="fill:none;stroke:rgb(0,0,0);stroke-width:1;stroke-linecap:round"></path><path d="M-94.22832812385984,59.480202552892194L-66.36414567106318,61.071795649502086L-66.36414567106318,-78.52960103658395zM3.296310460928501,-74.55061829505922L59.02467536652177,-71.36743210183941L37.67289229185185,-106.80254538649582z" style="fill:rgb(238,238,238); fill-opacity: 0.27"></path><path d="M-269.3336634946661,-43.58647710501803L-269.3336634946661,-31.37135489498549L-198.1692319075716,-34.91095506872736z" style="fill:rgb(255,187,187); fill-opacity: 0.81"></path><path d="M298.3123759820909,103.9715350064348L263.48214791609513,101.98204363567244L306.9065214398218,95.90855323357566z" style="fill:rgb(238,238,238); fill-opacity: 0.27"></path><path d="M411.3972056378093,70.46671309149343L376.5669775718134,68.47722172073105M376.5669775718134,-78.10424479965928L376.5669775718134,68.47722172073105M376.5669775718134,68.47722172073105L367.97283211408256,76.5402034935902M3.296310460928501,-74.55061829505921L3.296310460928507,65.05077839102684M3.296310460928507,65.05077839102684L59.02467536652182,68.23396458424662M263.4821479160951,-107.4200513934566L263.4821479160951,101.98204363567244M263.4821479160951,101.98204363567244L298.3123759820909,103.97153500643482" style="fill:none;stroke:rgb(0,0,0);stroke-width:1;stroke-linecap:round"></path><path d="M-94.22832812385984,-80.12119413319385L-94.22832812385984,59.480202552892194L-66.36414567106318,-78.52960103658395zM298.3123759820909,103.9715350064348L306.9065214398218,95.90855323357566L306.9065214398218,-113.49354179555338zM-474.9388560939055,-259.94609197887246L-473.19734469060575,-259.8466174103343L-337.4325287702119,-388.95380034461886z" style="fill:rgb(238,238,238); fill-opacity: 0.27"></path><path d="M-208.94125762410985,-139.36650476865321L-208.94125762410982,139.83628860351885M-208.94125762410982,139.83628860351885L-181.07707517131317,141.42788170012875" style="fill:none;stroke:rgb(0,0,0);stroke-width:1;stroke-linecap:round"></path><path d="M243.44899618325627,-12.298081612425504L242.18611821207094,-11.113256185267725L266.0377092416607,-6.849969333859783zM241.79586741723958,-5.869652809724761L242.8175571976636,-3.813753267927836L266.0377092416607,-6.849969333859783z" style="fill:rgb(0,0,0)"></path><path d="M306.9065214398218,-113.49354179555338L306.9065214398218,95.90855323357566L272.07629337382605,-115.48303316631575zM272.07629337382605,93.91906186281331L263.48214791609513,101.98204363567244L263.48214791609513,-107.4200513934566z" style="fill:rgb(238,238,238); fill-opacity: 0.27"></path><path d="M242.18611821207094,-11.113256185267725L241.79586741723958,-5.869652809724761L266.0377092416607,-6.849969333859783z" style="fill:rgb(0,0,0)"></path><path d="M202.41583724183425,-461.4854377887513L202.41583724183437,431.96350100219934L167.58560917583847,-463.47492915951364z" style="fill:rgb(238,238,238); fill-opacity: 0.27"></path><path d="M411.3972056378093,-76.1147534288969L411.3972056378093,70.46671309149343M411.3972056378093,70.46671309149343L402.80306018007843,78.52969486435258M298.3123759820909,-105.43056002269422L298.3123759820909,103.97153500643482" style="fill:none;stroke:rgb(0,0,0);stroke-width:1;stroke-linecap:round"></path><path d="M-289.0507821759002,135.2604584507654L-278.6017137561015,135.85730586199412L-278.6017137561015,-143.34548751017795z" style="fill:rgb(238,238,238); fill-opacity: 0.27"></path><path d="M-94.22832812385985,-80.12119413319385L-66.3641456710632,-78.52960103658395" style="fill:none;stroke:rgb(0,0,0);stroke-width:1;stroke-linecap:round"></path><path d="M272.07629337382605,-115.48303316631575L272.07629337382605,93.91906186281331L263.48214791609513,-107.4200513934566z" style="fill:rgb(238,238,238); fill-opacity: 0.27"></path><path d="M-181.07707517131317,-137.77491167204332L-181.07707517131317,141.42788170012875" style="fill:none;stroke:rgb(0,0,0);stroke-width:1;stroke-linecap:round"></path><path d="M167.58560917583847,-463.47492915951364L167.58560917583847,429.97400963143696L158.99146371810764,-455.4119473866545zM367.97283211408256,76.54020349359021L376.5669775718135,68.47722172073107L411.3972056378093,70.46671309149342zM411.3972056378093,70.46671309149342L376.5669775718135,68.47722172073107L376.5669775718135,-78.10424479965927z" style="fill:rgb(238,238,238); fill-opacity: 0.27"></path><path d="M59.02467536652182,-71.36743210183941L59.02467536652182,68.23396458424662M306.90652143982174,-113.49354179555337L272.0762933738259,-115.48303316631575M272.0762933738259,-115.48303316631575L263.4821479160951,-107.4200513934566M304.35096011425617,-4.661528826021162L347.308241395651,-2.2078228020809143" style="fill:none;stroke:rgb(0,0,0);stroke-width:1;stroke-linecap:round"></path><path d="M3.296310460928501,65.05077839102682L59.02467536652182,68.23396458424664L59.02467536652177,-71.36743210183941zM-403.53688855861407,-255.86763466880956L-393.0878201388153,-255.27078725758085L-266.03056123492047,-384.87534303455595zM263.48214791609513,101.98204363567244L298.3123759820909,103.9715350064348L298.3123759820909,-105.43056002269425z" style="fill:rgb(238,238,238); fill-opacity: 0.27"></path><path d="M306.90652143982174,-113.49354179555337L298.3123759820909,-105.43056002269422" style="fill:none;stroke:rgb(0,0,0);stroke-width:1;stroke-linecap:round"></path><path d="M3.296310460928501,-74.55061829505922L3.296310460928501,65.05077839102682L59.02467536652177,-71.36743210183941zM402.8030601800784,78.52969486435256L367.97283211408256,76.54020349359021L411.3972056378093,70.46671309149342zM411.3972056378093,-76.11475342889692L411.3972056378093,70.46671309149342L376.5669775718135,-78.10424479965927z" style="fill:rgb(238,238,238); fill-opacity: 0.27"></path><path d="M347.9396803812437,-6.32960750013839L346.6768024100584,-5.144782072980614L370.52839343964826,-0.8814952215726692zM346.28655161522704,0.09882130256235225L347.308241395651,2.154720844359278L370.52839343964826,-0.8814952215726692z" style="fill:rgb(0,0,0)"></path><path d="M402.8030601800784,78.52969486435256L411.3972056378093,70.46671309149342L411.3972056378093,-76.11475342889692zM-289.0507821759003,-143.94233492140665L-289.0507821759002,135.2604584507654L-278.6017137561015,-143.34548751017795zM298.3123759820909,-105.43056002269425L298.3123759820909,103.9715350064348L306.9065214398218,-113.49354179555338zM-208.94125762410982,139.83628860351885L-181.07707517131317,141.42788170012875L-181.07707517131317,-137.77491167204332z" style="fill:rgb(238,238,238); fill-opacity: 0.27"></path><path d="M346.6768024100584,-5.144782072980614L346.28655161522704,0.09882130256235225L370.52839343964826,-0.8814952215726692z" style="fill:rgb(0,0,0)"></path><path d="M193.82169178410342,-453.4224560158922L193.82169178410354,440.02648277505847L202.41583724183425,-461.4854377887513z" style="fill:rgb(238,238,238); fill-opacity: 0.27"></path><path d="M367.97283211408256,-70.04126302680014L367.97283211408256,76.5402034935902M367.97283211408256,76.5402034935902L402.80306018007843,78.52969486435258" style="fill:none;stroke:rgb(0,0,0);stroke-width:1;stroke-linecap:round"></path><path d="M298.3123759820909,-105.43056002269425L306.9065214398218,-113.49354179555338L272.07629337382605,-115.48303316631575zM376.5669775718135,68.47722172073107L367.97283211408256,76.54020349359021L367.97283211408256,-70.04126302680012z" style="fill:rgb(238,238,238); fill-opacity: 0.27"></path><path d="M3.296310460928501,-74.55061829505921L59.02467536652182,-71.36743210183941" style="fill:none;stroke:rgb(0,0,0);stroke-width:1;stroke-linecap:round"></path><path d="M376.5669775718135,-78.10424479965927L376.5669775718135,68.47722172073107L367.97283211408256,-70.04126302680012z" style="fill:rgb(238,238,238); fill-opacity: 0.27"></path><path d="M411.3972056378093,-76.1147534288969L376.5669775718134,-78.10424479965928M376.5669775718134,-78.10424479965928L367.97283211408256,-70.04126302680014" style="fill:none;stroke:rgb(0,0,0);stroke-width:1;stroke-linecap:round"></path><path d="M263.48214791609513,-107.4200513934566L263.48214791609513,101.98204363567244L298.3123759820909,-105.43056002269425zM158.99146371810764,-455.4119473866545L158.99146371810764,438.03699140429615L193.82169178410342,-453.4224560158922z" style="fill:rgb(238,238,238); fill-opacity: 0.27"></path><path d="M515.8878898357966,11.86954123646575L481.0576617698009,9.880049865703377M481.0576617698009,-7.570124720057377L481.0576617698009,9.880049865703377M481.0576617698009,9.880049865703377L472.46351631207006,17.943031638562527M402.80306018007843,-68.05177165603776L402.80306018007843,78.52969486435258" style="fill:none;stroke:rgb(0,0,0);stroke-width:1;stroke-linecap:round"></path><path d="M263.48214791609513,-107.4200513934566L298.3123759820909,-105.43056002269425L272.07629337382605,-115.48303316631575z" style="fill:rgb(238,238,238); fill-opacity: 0.27"></path><path d="M408.8416443122436,1.3069452862659514L451.79892559363844,3.7606513102061996M411.3972056378093,-76.1147534288969L402.80306018007843,-68.05177165603776M515.8878898357966,-5.580633349295005L481.0576617698009,-7.570124720057377M481.0576617698009,-7.570124720057377L472.46351631207006,0.49285705280177383" style="fill:none;stroke:rgb(0,0,0);stroke-width:1;stroke-linecap:round"></path><path d="M515.8878898357967,11.869541236465746L481.0576617698009,9.880049865703377L481.0576617698009,-7.570124720057374zM515.8878898357967,-5.580633349295005L515.8878898357967,11.869541236465746L481.0576617698009,-7.570124720057374z" style="fill:rgb(238,238,238); fill-opacity: 0.27"></path><path d="M515.8878898357966,-5.580633349295005L515.8878898357966,11.86954123646575M515.8878898357966,11.86954123646575L507.2937443780658,19.9325230093249" style="fill:none;stroke:rgb(0,0,0);stroke-width:1;stroke-linecap:round"></path><path d="M367.97283211408256,76.54020349359021L402.8030601800784,78.52969486435256L402.8030601800784,-68.05177165603777z" style="fill:rgb(238,238,238); fill-opacity: 0.27"></path><path d="M263.4821479160951,-107.4200513934566L298.3123759820909,-105.43056002269422" style="fill:none;stroke:rgb(0,0,0);stroke-width:1;stroke-linecap:round"></path><path d="M402.8030601800784,-68.05177165603777L411.3972056378093,-76.11475342889692L376.5669775718135,-78.10424479965927zM-208.94125762410985,-139.3665047686532L-208.94125762410982,139.83628860351885L-181.07707517131317,-137.77491167204332z" style="fill:rgb(238,238,238); fill-opacity: 0.27"></path><path d="M-474.9388560939055,-259.94609197887246L-474.9388560939055,298.45949476547173M-474.9388560939055,298.45949476547173L-473.19734469060575,298.5589693340099M-473.19734469060575,-259.8466174103343L-473.19734469060575,298.5589693340099M-289.0507821759002,-143.94233492140665L-278.6017137561015,-143.34548751017797M515.8878898357966,-5.580633349295005L507.2937443780658,2.4823484235641446" style="fill:none;stroke:rgb(0,0,0);stroke-width:1;stroke-linecap:round"></path><path d="M402.8030601800784,-68.05177165603777L402.8030601800784,78.52969486435256L411.3972056378093,-76.11475342889692zM481.0576617698009,-7.570124720057374L481.0576617698009,9.880049865703377L472.46351631207,0.49285705280177633zM472.46351631207,17.943031638562527L481.0576617698009,9.880049865703377L515.8878898357967,11.869541236465746z" style="fill:rgb(238,238,238); fill-opacity: 0.27"></path><path d="M452.4303645792312,-0.36113338785127574L451.16748660804586,0.8236920393064998L475.0190776376357,5.086978890714445zM450.77723581321453,6.067295414849466L451.79892559363856,8.123194956646392L475.0190776376357,5.086978890714445zM451.16748660804586,0.8236920393064998L450.77723581321453,6.067295414849466L475.0190776376357,5.086978890714445z" style="fill:rgb(0,0,0)"></path><path d="M367.97283211408256,-70.04126302680012L367.97283211408256,76.54020349359021L402.8030601800784,-68.05177165603777zM367.97283211408256,-70.04126302680012L402.8030601800784,-68.05177165603777L376.5669775718135,-78.10424479965927zM507.2937443780658,2.4823484235641455L515.8878898357967,-5.580633349295005L481.0576617698009,-7.570124720057374zM507.2937443780658,19.932523009324896L515.8878898357967,11.869541236465746L515.8878898357967,-5.580633349295005zM481.0576617698009,9.880049865703377L472.46351631207,17.943031638562527L472.46351631207,0.49285705280177633zM507.2937443780658,19.932523009324896L472.46351631207,17.943031638562527L515.8878898357967,11.869541236465746z" style="fill:rgb(238,238,238); fill-opacity: 0.27"></path><path d="M367.97283211408256,-70.04126302680014L402.80306018007843,-68.05177165603776M-403.536888558614,-255.86763466880956L-403.536888558614,302.5379520755346M-403.536888558614,302.5379520755346L-393.08782013881523,303.1347994867633" style="fill:none;stroke:rgb(0,0,0);stroke-width:1;stroke-linecap:round"></path><path d="M472.46351631207,0.49285705280177633L507.2937443780658,2.4823484235641455L481.0576617698009,-7.570124720057374z" style="fill:rgb(238,238,238); fill-opacity: 0.27"></path><path d="M-393.0878201388153,-255.27078725758085L-393.08782013881523,303.1347994867633M-208.94125762410985,-139.36650476865321L-181.07707517131317,-137.77491167204332M202.41583724183428,-461.48543778875126L167.58560917583847,-463.47492915951364M167.58560917583847,-463.47492915951364L158.99146371810764,-455.4119473866545" style="fill:none;stroke:rgb(0,0,0);stroke-width:1;stroke-linecap:round"></path><path d="M507.2937443780658,2.4823484235641455L507.2937443780658,19.932523009324896L515.8878898357967,-5.580633349295005z" style="fill:rgb(238,238,238); fill-opacity: 0.27"></path><path d="M472.46351631207006,0.49285705280177383L472.46351631207006,17.943031638562527M472.46351631207006,17.943031638562527L507.2937443780658,19.9325230093249M472.46351631207006,0.49285705280177383L507.2937443780658,2.4823484235641446" style="fill:none;stroke:rgb(0,0,0);stroke-width:1;stroke-linecap:round"></path><path d="M472.46351631207,0.49285705280177633L472.46351631207,17.943031638562527L507.2937443780658,2.4823484235641455zM472.46351631207,17.943031638562527L507.2937443780658,19.932523009324896L507.2937443780658,2.4823484235641455z" style="fill:rgb(238,238,238); fill-opacity: 0.27"></path><path d="M202.41583724183428,-461.48543778875126L193.82169178410345,-453.4224560158921M507.2937443780658,2.4823484235641446L507.2937443780658,19.9325230093249" style="fill:none;stroke:rgb(0,0,0);stroke-width:1;stroke-linecap:round"></path><path d="M193.82169178410342,-453.4224560158922L202.41583724183425,-461.4854377887513L167.58560917583847,-463.47492915951364zM-474.9388560939055,298.45949476547173L-473.19734469060563,298.5589693340099L-473.19734469060575,-259.8466174103343zM158.99146371810764,-455.4119473866545L193.82169178410342,-453.4224560158922L167.58560917583847,-463.47492915951364z" style="fill:rgb(238,238,238); fill-opacity: 0.27"></path><path d="M158.99146371810764,-455.4119473866545L193.82169178410345,-453.4224560158921" style="fill:none;stroke:rgb(0,0,0);stroke-width:1;stroke-linecap:round"></path><path d="M-403.536888558614,302.53795207553463L-393.08782013881523,303.1347994867633L-393.0878201388153,-255.27078725758085zM-474.9388560939055,-259.94609197887246L-474.9388560939055,298.45949476547173L-473.19734469060575,-259.8466174103343zM-403.53688855861407,-255.86763466880956L-403.536888558614,302.53795207553463L-393.0878201388153,-255.27078725758085z" style="fill:rgb(238,238,238); fill-opacity: 0.27"></path><path d="M-474.9388560939055,-259.94609197887246L-473.19734469060575,-259.8466174103343M-403.536888558614,-255.86763466880956L-393.0878201388153,-255.27078725758085" style="fill:none;stroke:rgb(0,0,0);stroke-width:1;stroke-linecap:round"></path></svg>