<?xml version="1.0" encoding="utf-8" standalone="no"?>
<!DOCTYPE svg PUBLIC "-//W3C//DTD SVG 1.1//EN"
  "http://www.w3.org/Graphics/SVG/1.1/DTD/svg11.dtd">
<svg xmlns:xlink="http://www.w3.org/1999/xlink" width="460.8pt" height="345.6pt" viewBox="0 0 460.8 345.6" xmlns="http://www.w3.org/2000/svg" version="1.1">
 <metadata>
  <rdf:RDF xmlns:dc="http://purl.org/dc/elements/1.1/" xmlns:cc="http://creativecommons.org/ns#" xmlns:rdf="http://www.w3.org/1999/02/22-rdf-syntax-ns#">
   <cc:Work>
    <dc:type rdf:resource="http://purl.org/dc/dcmitype/StillImage"/>
    <dc:date>2023-03-27T11:06:42.142915</dc:date>
    <dc:format>image/svg+xml</dc:format>
    <dc:creator>
     <cc:Agent>
      <dc:title>Matplotlib v3.6.3, https://matplotlib.org/</dc:title>
     </cc:Agent>
    </dc:creator>
   </cc:Work>
  </rdf:RDF>
 </metadata>
 <defs>
  <style type="text/css">*{stroke-linejoin: round; stroke-linecap: butt}</style>
 </defs>
 <g id="figure_1">
  <g id="patch_1">
   <path d="M 0 345.6 
L 460.8 345.6 
L 460.8 0 
L 0 0 
z
" style="fill: #ffffff"/>
  </g>
  <g id="axes_1">
   <g id="patch_2">
    <path d="M 57.6 307.584 
L 414.72 307.584 
L 414.72 41.472 
L 57.6 41.472 
z
" style="fill: #ffffff"/>
   </g>
   <g id="matplotlib.axis_1">
    <g id="xtick_1">
     <g id="line2d_1">
      <defs>
       <path id="mf9f872746a" d="M 0 0 
L 0 3.5 
" style="stroke: #000000; stroke-width: 0.8"/>
      </defs>
      <g>
       <use xlink:href="#mf9f872746a" x="73.832727" y="307.584" style="stroke: #000000; stroke-width: 0.8"/>
      </g>
     </g>
     <g id="text_1">
      <!-- 0 -->
      <g transform="translate(70.651477 322.182437) scale(0.1 -0.1)">
       <defs>
        <path id="DejaVuSans-30" d="M 2034 4250 
Q 1547 4250 1301 3770 
Q 1056 3291 1056 2328 
Q 1056 1369 1301 889 
Q 1547 409 2034 409 
Q 2525 409 2770 889 
Q 3016 1369 3016 2328 
Q 3016 3291 2770 3770 
Q 2525 4250 2034 4250 
z
M 2034 4750 
Q 2819 4750 3233 4129 
Q 3647 3509 3647 2328 
Q 3647 1150 3233 529 
Q 2819 -91 2034 -91 
Q 1250 -91 836 529 
Q 422 1150 422 2328 
Q 422 3509 836 4129 
Q 1250 4750 2034 4750 
z
" transform="scale(0.015625)"/>
       </defs>
       <use xlink:href="#DejaVuSans-30"/>
      </g>
     </g>
    </g>
    <g id="xtick_2">
     <g id="line2d_2">
      <g>
       <use xlink:href="#mf9f872746a" x="146.138862" y="307.584" style="stroke: #000000; stroke-width: 0.8"/>
      </g>
     </g>
     <g id="text_2">
      <!-- 100 -->
      <g transform="translate(136.595112 322.182437) scale(0.1 -0.1)">
       <defs>
        <path id="DejaVuSans-31" d="M 794 531 
L 1825 531 
L 1825 4091 
L 703 3866 
L 703 4441 
L 1819 4666 
L 2450 4666 
L 2450 531 
L 3481 531 
L 3481 0 
L 794 0 
L 794 531 
z
" transform="scale(0.015625)"/>
       </defs>
       <use xlink:href="#DejaVuSans-31"/>
       <use xlink:href="#DejaVuSans-30" x="63.623047"/>
       <use xlink:href="#DejaVuSans-30" x="127.246094"/>
      </g>
     </g>
    </g>
    <g id="xtick_3">
     <g id="line2d_3">
      <g>
       <use xlink:href="#mf9f872746a" x="218.444997" y="307.584" style="stroke: #000000; stroke-width: 0.8"/>
      </g>
     </g>
     <g id="text_3">
      <!-- 200 -->
      <g transform="translate(208.901247 322.182437) scale(0.1 -0.1)">
       <defs>
        <path id="DejaVuSans-32" d="M 1228 531 
L 3431 531 
L 3431 0 
L 469 0 
L 469 531 
Q 828 903 1448 1529 
Q 2069 2156 2228 2338 
Q 2531 2678 2651 2914 
Q 2772 3150 2772 3378 
Q 2772 3750 2511 3984 
Q 2250 4219 1831 4219 
Q 1534 4219 1204 4116 
Q 875 4013 500 3803 
L 500 4441 
Q 881 4594 1212 4672 
Q 1544 4750 1819 4750 
Q 2544 4750 2975 4387 
Q 3406 4025 3406 3419 
Q 3406 3131 3298 2873 
Q 3191 2616 2906 2266 
Q 2828 2175 2409 1742 
Q 1991 1309 1228 531 
z
" transform="scale(0.015625)"/>
       </defs>
       <use xlink:href="#DejaVuSans-32"/>
       <use xlink:href="#DejaVuSans-30" x="63.623047"/>
       <use xlink:href="#DejaVuSans-30" x="127.246094"/>
      </g>
     </g>
    </g>
    <g id="xtick_4">
     <g id="line2d_4">
      <g>
       <use xlink:href="#mf9f872746a" x="290.751132" y="307.584" style="stroke: #000000; stroke-width: 0.8"/>
      </g>
     </g>
     <g id="text_4">
      <!-- 300 -->
      <g transform="translate(281.207382 322.182437) scale(0.1 -0.1)">
       <defs>
        <path id="DejaVuSans-33" d="M 2597 2516 
Q 3050 2419 3304 2112 
Q 3559 1806 3559 1356 
Q 3559 666 3084 287 
Q 2609 -91 1734 -91 
Q 1441 -91 1130 -33 
Q 819 25 488 141 
L 488 750 
Q 750 597 1062 519 
Q 1375 441 1716 441 
Q 2309 441 2620 675 
Q 2931 909 2931 1356 
Q 2931 1769 2642 2001 
Q 2353 2234 1838 2234 
L 1294 2234 
L 1294 2753 
L 1863 2753 
Q 2328 2753 2575 2939 
Q 2822 3125 2822 3475 
Q 2822 3834 2567 4026 
Q 2313 4219 1838 4219 
Q 1578 4219 1281 4162 
Q 984 4106 628 3988 
L 628 4550 
Q 988 4650 1302 4700 
Q 1616 4750 1894 4750 
Q 2613 4750 3031 4423 
Q 3450 4097 3450 3541 
Q 3450 3153 3228 2886 
Q 3006 2619 2597 2516 
z
" transform="scale(0.015625)"/>
       </defs>
       <use xlink:href="#DejaVuSans-33"/>
       <use xlink:href="#DejaVuSans-30" x="63.623047"/>
       <use xlink:href="#DejaVuSans-30" x="127.246094"/>
      </g>
     </g>
    </g>
    <g id="xtick_5">
     <g id="line2d_5">
      <g>
       <use xlink:href="#mf9f872746a" x="363.057267" y="307.584" style="stroke: #000000; stroke-width: 0.8"/>
      </g>
     </g>
     <g id="text_5">
      <!-- 400 -->
      <g transform="translate(353.513517 322.182437) scale(0.1 -0.1)">
       <defs>
        <path id="DejaVuSans-34" d="M 2419 4116 
L 825 1625 
L 2419 1625 
L 2419 4116 
z
M 2253 4666 
L 3047 4666 
L 3047 1625 
L 3713 1625 
L 3713 1100 
L 3047 1100 
L 3047 0 
L 2419 0 
L 2419 1100 
L 313 1100 
L 313 1709 
L 2253 4666 
z
" transform="scale(0.015625)"/>
       </defs>
       <use xlink:href="#DejaVuSans-34"/>
       <use xlink:href="#DejaVuSans-30" x="63.623047"/>
       <use xlink:href="#DejaVuSans-30" x="127.246094"/>
      </g>
     </g>
    </g>
   </g>
   <g id="matplotlib.axis_2">
    <g id="ytick_1">
     <g id="line2d_6">
      <defs>
       <path id="m7e8beecd4f" d="M 0 0 
L -3.5 0 
" style="stroke: #000000; stroke-width: 0.8"/>
      </defs>
      <g>
       <use xlink:href="#m7e8beecd4f" x="57.6" y="295.373101" style="stroke: #000000; stroke-width: 0.8"/>
      </g>
     </g>
     <g id="text_6">
      <!-- −10 -->
      <g transform="translate(29.495313 299.17232) scale(0.1 -0.1)">
       <defs>
        <path id="DejaVuSans-2212" d="M 678 2272 
L 4684 2272 
L 4684 1741 
L 678 1741 
L 678 2272 
z
" transform="scale(0.015625)"/>
       </defs>
       <use xlink:href="#DejaVuSans-2212"/>
       <use xlink:href="#DejaVuSans-31" x="83.789062"/>
       <use xlink:href="#DejaVuSans-30" x="147.412109"/>
      </g>
     </g>
    </g>
    <g id="ytick_2">
     <g id="line2d_7">
      <g>
       <use xlink:href="#m7e8beecd4f" x="57.6" y="260.805476" style="stroke: #000000; stroke-width: 0.8"/>
      </g>
     </g>
     <g id="text_7">
      <!-- 0 -->
      <g transform="translate(44.2375 264.604695) scale(0.1 -0.1)">
       <use xlink:href="#DejaVuSans-30"/>
      </g>
     </g>
    </g>
    <g id="ytick_3">
     <g id="line2d_8">
      <g>
       <use xlink:href="#m7e8beecd4f" x="57.6" y="226.237851" style="stroke: #000000; stroke-width: 0.8"/>
      </g>
     </g>
     <g id="text_8">
      <!-- 10 -->
      <g transform="translate(37.875 230.03707) scale(0.1 -0.1)">
       <use xlink:href="#DejaVuSans-31"/>
       <use xlink:href="#DejaVuSans-30" x="63.623047"/>
      </g>
     </g>
    </g>
    <g id="ytick_4">
     <g id="line2d_9">
      <g>
       <use xlink:href="#m7e8beecd4f" x="57.6" y="191.670227" style="stroke: #000000; stroke-width: 0.8"/>
      </g>
     </g>
     <g id="text_9">
      <!-- 20 -->
      <g transform="translate(37.875 195.469445) scale(0.1 -0.1)">
       <use xlink:href="#DejaVuSans-32"/>
       <use xlink:href="#DejaVuSans-30" x="63.623047"/>
      </g>
     </g>
    </g>
    <g id="ytick_5">
     <g id="line2d_10">
      <g>
       <use xlink:href="#m7e8beecd4f" x="57.6" y="157.102602" style="stroke: #000000; stroke-width: 0.8"/>
      </g>
     </g>
     <g id="text_10">
      <!-- 30 -->
      <g transform="translate(37.875 160.901821) scale(0.1 -0.1)">
       <use xlink:href="#DejaVuSans-33"/>
       <use xlink:href="#DejaVuSans-30" x="63.623047"/>
      </g>
     </g>
    </g>
    <g id="ytick_6">
     <g id="line2d_11">
      <g>
       <use xlink:href="#m7e8beecd4f" x="57.6" y="122.534977" style="stroke: #000000; stroke-width: 0.8"/>
      </g>
     </g>
     <g id="text_11">
      <!-- 40 -->
      <g transform="translate(37.875 126.334196) scale(0.1 -0.1)">
       <use xlink:href="#DejaVuSans-34"/>
       <use xlink:href="#DejaVuSans-30" x="63.623047"/>
      </g>
     </g>
    </g>
    <g id="ytick_7">
     <g id="line2d_12">
      <g>
       <use xlink:href="#m7e8beecd4f" x="57.6" y="87.967352" style="stroke: #000000; stroke-width: 0.8"/>
      </g>
     </g>
     <g id="text_12">
      <!-- 50 -->
      <g transform="translate(37.875 91.766571) scale(0.1 -0.1)">
       <defs>
        <path id="DejaVuSans-35" d="M 691 4666 
L 3169 4666 
L 3169 4134 
L 1269 4134 
L 1269 2991 
Q 1406 3038 1543 3061 
Q 1681 3084 1819 3084 
Q 2600 3084 3056 2656 
Q 3513 2228 3513 1497 
Q 3513 744 3044 326 
Q 2575 -91 1722 -91 
Q 1428 -91 1123 -41 
Q 819 9 494 109 
L 494 744 
Q 775 591 1075 516 
Q 1375 441 1709 441 
Q 2250 441 2565 725 
Q 2881 1009 2881 1497 
Q 2881 1984 2565 2268 
Q 2250 2553 1709 2553 
Q 1456 2553 1204 2497 
Q 953 2441 691 2322 
L 691 4666 
z
" transform="scale(0.015625)"/>
       </defs>
       <use xlink:href="#DejaVuSans-35"/>
       <use xlink:href="#DejaVuSans-30" x="63.623047"/>
      </g>
     </g>
    </g>
    <g id="ytick_8">
     <g id="line2d_13">
      <g>
       <use xlink:href="#m7e8beecd4f" x="57.6" y="53.399728" style="stroke: #000000; stroke-width: 0.8"/>
      </g>
     </g>
     <g id="text_13">
      <!-- 60 -->
      <g transform="translate(37.875 57.198946) scale(0.1 -0.1)">
       <defs>
        <path id="DejaVuSans-36" d="M 2113 2584 
Q 1688 2584 1439 2293 
Q 1191 2003 1191 1497 
Q 1191 994 1439 701 
Q 1688 409 2113 409 
Q 2538 409 2786 701 
Q 3034 994 3034 1497 
Q 3034 2003 2786 2293 
Q 2538 2584 2113 2584 
z
M 3366 4563 
L 3366 3988 
Q 3128 4100 2886 4159 
Q 2644 4219 2406 4219 
Q 1781 4219 1451 3797 
Q 1122 3375 1075 2522 
Q 1259 2794 1537 2939 
Q 1816 3084 2150 3084 
Q 2853 3084 3261 2657 
Q 3669 2231 3669 1497 
Q 3669 778 3244 343 
Q 2819 -91 2113 -91 
Q 1303 -91 875 529 
Q 447 1150 447 2328 
Q 447 3434 972 4092 
Q 1497 4750 2381 4750 
Q 2619 4750 2861 4703 
Q 3103 4656 3366 4563 
z
" transform="scale(0.015625)"/>
       </defs>
       <use xlink:href="#DejaVuSans-36"/>
       <use xlink:href="#DejaVuSans-30" x="63.623047"/>
      </g>
     </g>
    </g>
   </g>
   <g id="line2d_14">
    <path d="M 73.832727 53.568 
L 74.555789 66.689226 
L 75.27885 110.047168 
L 76.001911 112.04052 
L 76.724973 112.697741 
L 78.171095 116.867033 
L 78.894157 121.024096 
L 79.617218 134.151157 
L 80.340279 134.829059 
L 81.786402 140.217389 
L 82.509463 140.859377 
L 83.232525 147.414513 
L 83.955586 148.118783 
L 85.401709 154.298169 
L 86.12477 155.652725 
L 86.847832 158.414916 
L 87.570893 160.134972 
L 88.293954 160.867357 
L 89.017016 165.408688 
L 89.740077 167.881319 
L 90.463138 169.41923 
L 91.1862 169.647671 
L 91.909261 170.211365 
L 92.632322 171.513809 
L 93.355384 172.524428 
L 94.078445 174.469154 
L 94.801506 175.219933 
L 95.524568 175.576718 
L 96.247629 176.673042 
L 96.97069 176.690056 
L 97.693752 177.794811 
L 98.416813 178.618472 
L 99.139874 178.618472 
L 99.862936 178.99728 
L 100.585997 179.039107 
L 101.309059 179.84592 
L 102.03212 181.390303 
L 102.755181 181.438827 
L 103.478243 183.706667 
L 104.924365 184.09039 
L 105.647427 184.132692 
L 107.093549 186.781712 
L 107.816611 190.172897 
L 109.985795 195.255012 
L 110.708856 195.461236 
L 111.431917 197.399468 
L 112.154979 197.417821 
L 112.87804 199.479408 
L 114.324163 199.588841 
L 115.047224 201.772476 
L 115.770285 201.796546 
L 116.493347 203.760049 
L 117.216408 203.804287 
L 117.93947 204.124635 
L 118.662531 204.173825 
L 119.385592 206.355138 
L 120.108654 206.734185 
L 120.831715 206.801859 
L 121.554776 209.272881 
L 122.277838 209.452693 
L 125.893144 209.571144 
L 126.616206 212.109289 
L 128.062328 212.425934 
L 130.231512 212.457227 
L 130.954574 215.406198 
L 131.677635 215.573401 
L 132.400696 215.574228 
L 133.123758 215.763189 
L 134.569881 215.893192 
L 135.292942 219.071899 
L 136.739065 219.189201 
L 141.800494 219.474772 
L 142.523555 223.141824 
L 143.246617 223.149998 
L 143.969678 223.358283 
L 146.138862 223.493371 
L 149.031108 223.606673 
L 149.754169 227.731145 
L 150.47723 227.961524 
L 151.923353 228.067417 
L 156.984782 228.186888 
L 157.707844 233.231505 
L 158.430905 233.395463 
L 163.492334 233.501384 
L 164.215396 239.357583 
L 164.938457 239.364388 
L 165.661519 239.670663 
L 171.446009 239.790428 
L 172.169071 247.073177 
L 173.615193 247.383401 
L 178.676623 247.475439 
L 183.014991 247.569884 
L 183.738052 257.023769 
L 184.461114 257.052714 
L 185.184175 257.267366 
L 187.353359 257.345659 
L 196.753157 257.472252 
L 197.476218 271.017965 
L 204.706831 271.385272 
L 218.444997 271.48143 
L 219.168058 294.970888 
L 259.659494 295.111112 
L 263.274801 295.148429 
L 285.689702 295.311858 
L 295.812561 295.331845 
L 398.487273 295.488 
L 398.487273 295.488 
" clip-path="url(#p734a657d88)" style="fill: none; stroke: #1f77b4; stroke-width: 1.5; stroke-linecap: square"/>
   </g>
   <g id="line2d_15">
    <path d="M 73.832727 191.705244 
L 74.555789 196.072912 
L 75.27885 210.52922 
L 76.001911 211.196126 
L 76.724973 211.423483 
L 78.171095 212.796526 
L 78.894157 214.190617 
L 79.617218 218.568101 
L 80.340279 218.789781 
L 81.786402 220.584951 
L 82.509463 220.830566 
L 83.232525 223.012658 
L 83.955586 223.19876 
L 85.401709 225.307154 
L 86.12477 225.722901 
L 86.847832 226.734105 
L 87.570893 227.227361 
L 88.293954 227.463986 
L 89.017016 228.972001 
L 89.740077 229.802249 
L 90.463138 230.366632 
L 91.1862 230.392519 
L 92.632322 231.015184 
L 93.355384 231.343943 
L 94.078445 232.011851 
L 94.801506 232.330906 
L 95.524568 232.371375 
L 96.247629 232.737075 
L 96.97069 232.738996 
L 98.416813 233.464698 
L 100.585997 233.512383 
L 102.03212 234.322322 
L 102.755181 234.327815 
L 103.478243 235.170058 
L 105.647427 235.218389 
L 107.093549 236.15274 
L 107.816611 237.228875 
L 109.985795 238.977174 
L 110.708856 239.000529 
L 111.431917 239.654882 
L 112.154979 239.656957 
L 112.87804 240.351658 
L 114.324163 240.364032 
L 115.047224 241.102333 
L 115.770285 241.105055 
L 116.493347 241.852227 
L 118.662531 241.899165 
L 119.385592 242.709935 
L 120.831715 242.760545 
L 121.554776 243.649381 
L 125.893144 243.683112 
L 126.616206 244.63249 
L 130.231512 244.671972 
L 130.954574 245.730962 
L 134.569881 245.786131 
L 135.292942 246.947672 
L 141.800494 246.993345 
L 142.523555 248.304655 
L 149.031108 248.357305 
L 149.754169 249.840255 
L 153.369476 249.883252 
L 156.984782 249.891904 
L 157.707844 251.635991 
L 162.769273 251.663922 
L 163.492334 251.666535 
L 164.215396 253.716747 
L 171.446009 253.765831 
L 172.169071 256.288159 
L 177.953561 256.330919 
L 183.014991 256.344434 
L 183.738052 259.603685 
L 196.753157 259.654527 
L 197.476218 264.273195 
L 218.444997 264.32575 
L 219.168058 272.259156 
L 398.487273 272.317753 
L 398.487273 272.317753 
" clip-path="url(#p734a657d88)" style="fill: none; stroke: #ff7f0e; stroke-width: 1.5; stroke-linecap: square"/>
   </g>
   <g id="line2d_16">
    <path d="M 73.832727 219.340316 
L 74.555789 221.960174 
L 75.27885 230.634406 
L 76.001911 231.034851 
L 76.724973 231.172282 
L 78.171095 231.994057 
L 78.894157 232.831541 
L 79.617218 235.458251 
L 80.340279 235.590734 
L 81.786402 236.667721 
L 82.509463 236.818973 
L 83.232525 238.127862 
L 83.955586 238.233556 
L 85.401709 239.504553 
L 86.12477 239.749611 
L 86.847832 240.367438 
L 87.570893 240.653559 
L 88.293954 240.794616 
L 89.017016 241.69872 
L 89.740077 242.197605 
L 90.463138 242.54259 
L 91.1862 242.551949 
L 93.355384 243.121885 
L 94.078445 243.525043 
L 94.801506 243.724921 
L 95.524568 243.739573 
L 96.247629 243.959023 
L 96.97069 243.959716 
L 98.416813 244.405313 
L 100.585997 244.422567 
L 102.03212 244.911747 
L 102.755181 244.91373 
L 103.478243 245.429668 
L 105.647427 245.447168 
L 107.093549 246.014082 
L 107.816611 246.653103 
L 109.985795 247.708742 
L 110.708856 247.717185 
L 111.431917 248.110814 
L 112.154979 248.111563 
L 112.87804 248.529304 
L 114.324163 248.533768 
L 115.047224 248.978029 
L 115.770285 248.979011 
L 116.493347 249.438689 
L 118.662531 249.455683 
L 119.385592 249.952416 
L 120.831715 249.97072 
L 121.554776 250.512015 
L 125.893144 250.524195 
L 126.616206 251.106501 
L 130.231512 251.120801 
L 130.954574 251.765523 
L 134.569881 251.785475 
L 135.292942 252.494913 
L 141.800494 252.511439 
L 142.523555 253.309144 
L 149.031108 253.328182 
L 149.754169 254.231219 
L 156.984782 254.249906 
L 157.707844 255.30403 
L 163.492334 255.315065 
L 164.215396 256.557238 
L 171.446009 256.575004 
L 172.169071 258.100031 
L 183.014991 258.120384 
L 183.738052 260.089181 
L 196.753157 260.107578 
L 197.476218 262.891474 
L 218.444997 262.910496 
L 219.168058 267.683253 
L 398.487273 267.704451 
L 398.487273 267.704451 
" clip-path="url(#p734a657d88)" style="fill: none; stroke: #2ca02c; stroke-width: 1.5; stroke-linecap: square"/>
   </g>
   <g id="line2d_17">
    <path d="M 73.832727 231.184717 
L 74.555789 233.055816 
L 75.27885 239.251833 
L 76.001911 239.537958 
L 76.724973 239.636437 
L 78.171095 240.222788 
L 78.894157 240.821307 
L 79.617218 242.697596 
L 80.340279 242.792065 
L 81.786402 243.561305 
L 82.509463 243.670538 
L 83.232525 244.605347 
L 83.955586 244.679006 
L 85.401709 245.588695 
L 86.12477 245.762385 
L 86.847832 246.207107 
L 88.293954 246.508927 
L 89.017016 247.154497 
L 90.463138 247.759445 
L 91.1862 247.764229 
L 93.355384 248.171044 
L 94.078445 248.459757 
L 94.801506 248.605127 
L 95.524568 248.612628 
L 96.247629 248.769387 
L 96.97069 248.76974 
L 98.416813 249.091156 
L 100.585997 249.099985 
L 102.03212 249.45039 
L 102.755181 249.451402 
L 103.478243 249.823189 
L 105.647427 249.83215 
L 107.093549 250.239029 
L 107.816611 250.693422 
L 109.985795 251.4495 
L 110.708856 251.453817 
L 111.431917 251.735294 
L 112.154979 251.735676 
L 112.87804 252.034345 
L 114.324163 252.036623 
L 115.047224 252.354346 
L 115.770285 252.354847 
L 116.493347 252.686689 
L 118.662531 252.695391 
L 119.385592 253.05336 
L 120.831715 253.062723 
L 121.554776 253.451822 
L 125.893144 253.458042 
L 126.616206 253.877877 
L 130.231512 253.885202 
L 130.954574 254.348588 
L 134.569881 254.358793 
L 135.292942 254.869385 
L 141.800494 254.877841 
L 142.523555 255.450992 
L 149.031108 255.460727 
L 149.754169 256.109837 
L 156.984782 256.119398 
L 157.707844 256.874705 
L 163.492334 256.880343 
L 164.215396 257.771317 
L 171.446009 257.780411 
L 172.169071 258.873295 
L 183.014991 258.883705 
L 183.738052 260.294066 
L 196.753157 260.30348 
L 197.476218 262.295884 
L 218.444997 262.30562 
L 219.168058 265.718646 
L 398.487273 265.729491 
L 398.487273 265.729491 
" clip-path="url(#p734a657d88)" style="fill: none; stroke: #d62728; stroke-width: 1.5; stroke-linecap: square"/>
   </g>
   <g id="line2d_18">
    <path d="M 73.832727 237.76515 
L 74.555789 239.220349 
L 75.27885 244.039533 
L 76.001911 244.262115 
L 76.724973 244.338845 
L 78.171095 244.794623 
L 78.894157 245.260275 
L 79.617218 246.71964 
L 80.340279 246.793046 
L 81.786402 247.391329 
L 82.509463 247.476806 
L 83.232525 248.20383 
L 83.955586 248.260325 
L 85.401709 248.968655 
L 86.12477 249.103162 
L 86.847832 249.450538 
L 88.293954 249.683853 
L 89.017016 250.18587 
L 90.463138 250.65733 
L 91.909261 250.758092 
L 93.355384 250.976517 
L 94.801506 251.315585 
L 95.524568 251.320135 
L 96.247629 251.442063 
L 96.97069 251.442276 
L 98.416813 251.693623 
L 100.585997 251.698975 
L 102.03212 251.971941 
L 102.755181 251.972554 
L 103.478243 252.263134 
L 105.647427 252.26857 
L 107.093549 252.585872 
L 107.816611 252.938401 
L 109.985795 253.52735 
L 110.708856 253.529964 
L 111.431917 253.749026 
L 112.154979 253.749258 
L 112.87804 253.981679 
L 114.324163 253.983055 
L 115.047224 254.230344 
L 115.770285 254.230647 
L 116.493347 254.490263 
L 118.662531 254.495542 
L 119.385592 254.775332 
L 120.831715 254.781006 
L 121.554776 255.084704 
L 125.893144 255.088467 
L 126.616206 255.416696 
L 130.231512 255.421142 
L 130.954574 255.782797 
L 134.569881 255.788981 
L 135.292942 256.187776 
L 141.800494 256.192903 
L 142.523555 256.640143 
L 149.031108 256.646041 
L 149.754169 257.152673 
L 156.984782 257.15847 
L 157.707844 257.746953 
L 163.492334 257.750366 
L 164.215396 258.444952 
L 171.446009 258.450467 
L 172.169071 259.302038 
L 183.014991 259.308347 
L 183.738052 260.407061 
L 196.753157 260.412768 
L 197.476218 261.964108 
L 218.444997 261.970013 
L 219.168058 264.626283 
L 398.487273 264.632858 
L 398.487273 264.632858 
" clip-path="url(#p734a657d88)" style="fill: none; stroke: #9467bd; stroke-width: 1.5; stroke-linecap: square"/>
   </g>
   <g id="patch_3">
    <path d="M 57.6 307.584 
L 57.6 41.472 
" style="fill: none; stroke: #000000; stroke-width: 0.8; stroke-linejoin: miter; stroke-linecap: square"/>
   </g>
   <g id="patch_4">
    <path d="M 414.72 307.584 
L 414.72 41.472 
" style="fill: none; stroke: #000000; stroke-width: 0.8; stroke-linejoin: miter; stroke-linecap: square"/>
   </g>
   <g id="patch_5">
    <path d="M 57.6 307.584 
L 414.72 307.584 
" style="fill: none; stroke: #000000; stroke-width: 0.8; stroke-linejoin: miter; stroke-linecap: square"/>
   </g>
   <g id="patch_6">
    <path d="M 57.6 41.472 
L 414.72 41.472 
" style="fill: none; stroke: #000000; stroke-width: 0.8; stroke-linejoin: miter; stroke-linecap: square"/>
   </g>
   <g id="text_14">
    <!-- sorted $c_i$ of Task(3) with $\sigma = 10^5$ -->
    <g transform="translate(140.22 35.472) scale(0.12 -0.12)">
     <defs>
      <path id="DejaVuSans-73" d="M 2834 3397 
L 2834 2853 
Q 2591 2978 2328 3040 
Q 2066 3103 1784 3103 
Q 1356 3103 1142 2972 
Q 928 2841 928 2578 
Q 928 2378 1081 2264 
Q 1234 2150 1697 2047 
L 1894 2003 
Q 2506 1872 2764 1633 
Q 3022 1394 3022 966 
Q 3022 478 2636 193 
Q 2250 -91 1575 -91 
Q 1294 -91 989 -36 
Q 684 19 347 128 
L 347 722 
Q 666 556 975 473 
Q 1284 391 1588 391 
Q 1994 391 2212 530 
Q 2431 669 2431 922 
Q 2431 1156 2273 1281 
Q 2116 1406 1581 1522 
L 1381 1569 
Q 847 1681 609 1914 
Q 372 2147 372 2553 
Q 372 3047 722 3315 
Q 1072 3584 1716 3584 
Q 2034 3584 2315 3537 
Q 2597 3491 2834 3397 
z
" transform="scale(0.015625)"/>
      <path id="DejaVuSans-6f" d="M 1959 3097 
Q 1497 3097 1228 2736 
Q 959 2375 959 1747 
Q 959 1119 1226 758 
Q 1494 397 1959 397 
Q 2419 397 2687 759 
Q 2956 1122 2956 1747 
Q 2956 2369 2687 2733 
Q 2419 3097 1959 3097 
z
M 1959 3584 
Q 2709 3584 3137 3096 
Q 3566 2609 3566 1747 
Q 3566 888 3137 398 
Q 2709 -91 1959 -91 
Q 1206 -91 779 398 
Q 353 888 353 1747 
Q 353 2609 779 3096 
Q 1206 3584 1959 3584 
z
" transform="scale(0.015625)"/>
      <path id="DejaVuSans-72" d="M 2631 2963 
Q 2534 3019 2420 3045 
Q 2306 3072 2169 3072 
Q 1681 3072 1420 2755 
Q 1159 2438 1159 1844 
L 1159 0 
L 581 0 
L 581 3500 
L 1159 3500 
L 1159 2956 
Q 1341 3275 1631 3429 
Q 1922 3584 2338 3584 
Q 2397 3584 2469 3576 
Q 2541 3569 2628 3553 
L 2631 2963 
z
" transform="scale(0.015625)"/>
      <path id="DejaVuSans-74" d="M 1172 4494 
L 1172 3500 
L 2356 3500 
L 2356 3053 
L 1172 3053 
L 1172 1153 
Q 1172 725 1289 603 
Q 1406 481 1766 481 
L 2356 481 
L 2356 0 
L 1766 0 
Q 1100 0 847 248 
Q 594 497 594 1153 
L 594 3053 
L 172 3053 
L 172 3500 
L 594 3500 
L 594 4494 
L 1172 4494 
z
" transform="scale(0.015625)"/>
      <path id="DejaVuSans-65" d="M 3597 1894 
L 3597 1613 
L 953 1613 
Q 991 1019 1311 708 
Q 1631 397 2203 397 
Q 2534 397 2845 478 
Q 3156 559 3463 722 
L 3463 178 
Q 3153 47 2828 -22 
Q 2503 -91 2169 -91 
Q 1331 -91 842 396 
Q 353 884 353 1716 
Q 353 2575 817 3079 
Q 1281 3584 2069 3584 
Q 2775 3584 3186 3129 
Q 3597 2675 3597 1894 
z
M 3022 2063 
Q 3016 2534 2758 2815 
Q 2500 3097 2075 3097 
Q 1594 3097 1305 2825 
Q 1016 2553 972 2059 
L 3022 2063 
z
" transform="scale(0.015625)"/>
      <path id="DejaVuSans-64" d="M 2906 2969 
L 2906 4863 
L 3481 4863 
L 3481 0 
L 2906 0 
L 2906 525 
Q 2725 213 2448 61 
Q 2172 -91 1784 -91 
Q 1150 -91 751 415 
Q 353 922 353 1747 
Q 353 2572 751 3078 
Q 1150 3584 1784 3584 
Q 2172 3584 2448 3432 
Q 2725 3281 2906 2969 
z
M 947 1747 
Q 947 1113 1208 752 
Q 1469 391 1925 391 
Q 2381 391 2643 752 
Q 2906 1113 2906 1747 
Q 2906 2381 2643 2742 
Q 2381 3103 1925 3103 
Q 1469 3103 1208 2742 
Q 947 2381 947 1747 
z
" transform="scale(0.015625)"/>
      <path id="DejaVuSans-20" transform="scale(0.015625)"/>
      <path id="DejaVuSans-Oblique-63" d="M 3431 3366 
L 3316 2797 
Q 3109 2947 2876 3022 
Q 2644 3097 2394 3097 
Q 2119 3097 1870 3000 
Q 1622 2903 1453 2725 
Q 1184 2453 1037 2087 
Q 891 1722 891 1331 
Q 891 859 1127 628 
Q 1363 397 1844 397 
Q 2081 397 2348 469 
Q 2616 541 2906 684 
L 2797 116 
Q 2547 13 2283 -39 
Q 2019 -91 1741 -91 
Q 1044 -91 669 257 
Q 294 606 294 1253 
Q 294 1797 489 2255 
Q 684 2713 1069 3078 
Q 1331 3328 1684 3456 
Q 2038 3584 2456 3584 
Q 2700 3584 2940 3529 
Q 3181 3475 3431 3366 
z
" transform="scale(0.015625)"/>
      <path id="DejaVuSans-Oblique-69" d="M 1172 4863 
L 1747 4863 
L 1606 4134 
L 1031 4134 
L 1172 4863 
z
M 909 3500 
L 1484 3500 
L 800 0 
L 225 0 
L 909 3500 
z
" transform="scale(0.015625)"/>
      <path id="DejaVuSans-66" d="M 2375 4863 
L 2375 4384 
L 1825 4384 
Q 1516 4384 1395 4259 
Q 1275 4134 1275 3809 
L 1275 3500 
L 2222 3500 
L 2222 3053 
L 1275 3053 
L 1275 0 
L 697 0 
L 697 3053 
L 147 3053 
L 147 3500 
L 697 3500 
L 697 3744 
Q 697 4328 969 4595 
Q 1241 4863 1831 4863 
L 2375 4863 
z
" transform="scale(0.015625)"/>
      <path id="DejaVuSans-54" d="M -19 4666 
L 3928 4666 
L 3928 4134 
L 2272 4134 
L 2272 0 
L 1638 0 
L 1638 4134 
L -19 4134 
L -19 4666 
z
" transform="scale(0.015625)"/>
      <path id="DejaVuSans-61" d="M 2194 1759 
Q 1497 1759 1228 1600 
Q 959 1441 959 1056 
Q 959 750 1161 570 
Q 1363 391 1709 391 
Q 2188 391 2477 730 
Q 2766 1069 2766 1631 
L 2766 1759 
L 2194 1759 
z
M 3341 1997 
L 3341 0 
L 2766 0 
L 2766 531 
Q 2569 213 2275 61 
Q 1981 -91 1556 -91 
Q 1019 -91 701 211 
Q 384 513 384 1019 
Q 384 1609 779 1909 
Q 1175 2209 1959 2209 
L 2766 2209 
L 2766 2266 
Q 2766 2663 2505 2880 
Q 2244 3097 1772 3097 
Q 1472 3097 1187 3025 
Q 903 2953 641 2809 
L 641 3341 
Q 956 3463 1253 3523 
Q 1550 3584 1831 3584 
Q 2591 3584 2966 3190 
Q 3341 2797 3341 1997 
z
" transform="scale(0.015625)"/>
      <path id="DejaVuSans-6b" d="M 581 4863 
L 1159 4863 
L 1159 1991 
L 2875 3500 
L 3609 3500 
L 1753 1863 
L 3688 0 
L 2938 0 
L 1159 1709 
L 1159 0 
L 581 0 
L 581 4863 
z
" transform="scale(0.015625)"/>
      <path id="DejaVuSans-28" d="M 1984 4856 
Q 1566 4138 1362 3434 
Q 1159 2731 1159 2009 
Q 1159 1288 1364 580 
Q 1569 -128 1984 -844 
L 1484 -844 
Q 1016 -109 783 600 
Q 550 1309 550 2009 
Q 550 2706 781 3412 
Q 1013 4119 1484 4856 
L 1984 4856 
z
" transform="scale(0.015625)"/>
      <path id="DejaVuSans-29" d="M 513 4856 
L 1013 4856 
Q 1481 4119 1714 3412 
Q 1947 2706 1947 2009 
Q 1947 1309 1714 600 
Q 1481 -109 1013 -844 
L 513 -844 
Q 928 -128 1133 580 
Q 1338 1288 1338 2009 
Q 1338 2731 1133 3434 
Q 928 4138 513 4856 
z
" transform="scale(0.015625)"/>
      <path id="DejaVuSans-77" d="M 269 3500 
L 844 3500 
L 1563 769 
L 2278 3500 
L 2956 3500 
L 3675 769 
L 4391 3500 
L 4966 3500 
L 4050 0 
L 3372 0 
L 2619 2869 
L 1863 0 
L 1184 0 
L 269 3500 
z
" transform="scale(0.015625)"/>
      <path id="DejaVuSans-69" d="M 603 3500 
L 1178 3500 
L 1178 0 
L 603 0 
L 603 3500 
z
M 603 4863 
L 1178 4863 
L 1178 4134 
L 603 4134 
L 603 4863 
z
" transform="scale(0.015625)"/>
      <path id="DejaVuSans-68" d="M 3513 2113 
L 3513 0 
L 2938 0 
L 2938 2094 
Q 2938 2591 2744 2837 
Q 2550 3084 2163 3084 
Q 1697 3084 1428 2787 
Q 1159 2491 1159 1978 
L 1159 0 
L 581 0 
L 581 4863 
L 1159 4863 
L 1159 2956 
Q 1366 3272 1645 3428 
Q 1925 3584 2291 3584 
Q 2894 3584 3203 3211 
Q 3513 2838 3513 2113 
z
" transform="scale(0.015625)"/>
      <path id="DejaVuSans-Oblique-3c3" d="M 2219 3044 
Q 1744 3044 1422 2700 
Q 1081 2341 969 1747 
Q 844 1119 1044 756 
Q 1241 397 1706 397 
Q 2166 397 2503 759 
Q 2844 1122 2966 1747 
Q 3075 2319 2881 2700 
Q 2700 3044 2219 3044 
z
M 2309 3503 
L 4219 3500 
L 4106 2925 
L 3463 2925 
Q 3706 2438 3575 1747 
Q 3406 888 2884 400 
Q 2359 -91 1609 -91 
Q 856 -91 525 400 
Q 194 888 363 1747 
Q 528 2609 1050 3097 
Q 1484 3503 2309 3503 
z
" transform="scale(0.015625)"/>
      <path id="DejaVuSans-3d" d="M 678 2906 
L 4684 2906 
L 4684 2381 
L 678 2381 
L 678 2906 
z
M 678 1631 
L 4684 1631 
L 4684 1100 
L 678 1100 
L 678 1631 
z
" transform="scale(0.015625)"/>
     </defs>
     <use xlink:href="#DejaVuSans-73" transform="translate(0 0.684375)"/>
     <use xlink:href="#DejaVuSans-6f" transform="translate(52.099609 0.684375)"/>
     <use xlink:href="#DejaVuSans-72" transform="translate(113.28125 0.684375)"/>
     <use xlink:href="#DejaVuSans-74" transform="translate(154.394531 0.684375)"/>
     <use xlink:href="#DejaVuSans-65" transform="translate(193.603516 0.684375)"/>
     <use xlink:href="#DejaVuSans-64" transform="translate(255.126953 0.684375)"/>
     <use xlink:href="#DejaVuSans-20" transform="translate(318.603516 0.684375)"/>
     <use xlink:href="#DejaVuSans-Oblique-63" transform="translate(350.390625 0.684375)"/>
     <use xlink:href="#DejaVuSans-Oblique-69" transform="translate(405.371094 -15.721875) scale(0.7)"/>
     <use xlink:href="#DejaVuSans-20" transform="translate(427.553711 0.684375)"/>
     <use xlink:href="#DejaVuSans-6f" transform="translate(459.34082 0.684375)"/>
     <use xlink:href="#DejaVuSans-66" transform="translate(520.522461 0.684375)"/>
     <use xlink:href="#DejaVuSans-20" transform="translate(555.727539 0.684375)"/>
     <use xlink:href="#DejaVuSans-54" transform="translate(587.514648 0.684375)"/>
     <use xlink:href="#DejaVuSans-61" transform="translate(648.598633 0.684375)"/>
     <use xlink:href="#DejaVuSans-73" transform="translate(709.87793 0.684375)"/>
     <use xlink:href="#DejaVuSans-6b" transform="translate(761.977539 0.684375)"/>
     <use xlink:href="#DejaVuSans-28" transform="translate(819.887695 0.684375)"/>
     <use xlink:href="#DejaVuSans-33" transform="translate(858.901367 0.684375)"/>
     <use xlink:href="#DejaVuSans-29" transform="translate(922.524414 0.684375)"/>
     <use xlink:href="#DejaVuSans-20" transform="translate(961.538086 0.684375)"/>
     <use xlink:href="#DejaVuSans-77" transform="translate(993.325195 0.684375)"/>
     <use xlink:href="#DejaVuSans-69" transform="translate(1075.112305 0.684375)"/>
     <use xlink:href="#DejaVuSans-74" transform="translate(1102.895508 0.684375)"/>
     <use xlink:href="#DejaVuSans-68" transform="translate(1142.104492 0.684375)"/>
     <use xlink:href="#DejaVuSans-20" transform="translate(1205.483398 0.684375)"/>
     <use xlink:href="#DejaVuSans-Oblique-3c3" transform="translate(1237.270508 0.684375)"/>
     <use xlink:href="#DejaVuSans-3d" transform="translate(1320.131836 0.684375)"/>
     <use xlink:href="#DejaVuSans-31" transform="translate(1423.40332 0.684375)"/>
     <use xlink:href="#DejaVuSans-30" transform="translate(1487.026367 0.684375)"/>
     <use xlink:href="#DejaVuSans-35" transform="translate(1551.606445 38.965625) scale(0.7)"/>
    </g>
   </g>
   <g id="legend_1">
    <g id="patch_7">
     <path d="M 341.62 122.862625 
L 407.72 122.862625 
Q 409.72 122.862625 409.72 120.862625 
L 409.72 48.472 
Q 409.72 46.472 407.72 46.472 
L 341.62 46.472 
Q 339.62 46.472 339.62 48.472 
L 339.62 120.862625 
Q 339.62 122.862625 341.62 122.862625 
z
" style="fill: #ffffff; opacity: 0.8; stroke: #cccccc; stroke-linejoin: miter"/>
    </g>
    <g id="line2d_19">
     <path d="M 343.62 54.570438 
L 353.62 54.570438 
L 363.62 54.570438 
" style="fill: none; stroke: #1f77b4; stroke-width: 1.5; stroke-linecap: square"/>
    </g>
    <g id="text_15">
     <!-- $\lambda = 0.1$ -->
     <g transform="translate(371.62 58.070438) scale(0.1 -0.1)">
      <defs>
       <path id="DejaVuSans-Oblique-3bb" d="M 2350 4316 
L 3125 0 
L 2516 0 
L 2038 2588 
L 328 0 
L -281 0 
L 1903 3356 
L 1794 3975 
Q 1725 4369 1391 4369 
L 1091 4369 
L 1184 4863 
L 1550 4856 
Q 2253 4847 2350 4316 
z
" transform="scale(0.015625)"/>
       <path id="DejaVuSans-2e" d="M 684 794 
L 1344 794 
L 1344 0 
L 684 0 
L 684 794 
z
" transform="scale(0.015625)"/>
      </defs>
      <use xlink:href="#DejaVuSans-Oblique-3bb" transform="translate(0 0.015625)"/>
      <use xlink:href="#DejaVuSans-3d" transform="translate(78.662109 0.015625)"/>
      <use xlink:href="#DejaVuSans-30" transform="translate(181.933594 0.015625)"/>
      <use xlink:href="#DejaVuSans-2e" transform="translate(245.556641 0.015625)"/>
      <use xlink:href="#DejaVuSans-31" transform="translate(277.34375 0.015625)"/>
     </g>
    </g>
    <g id="line2d_20">
     <path d="M 343.62 69.248563 
L 353.62 69.248563 
L 363.62 69.248563 
" style="fill: none; stroke: #ff7f0e; stroke-width: 1.5; stroke-linecap: square"/>
    </g>
    <g id="text_16">
     <!-- $\lambda = 0.3$ -->
     <g transform="translate(371.62 72.748563) scale(0.1 -0.1)">
      <use xlink:href="#DejaVuSans-Oblique-3bb" transform="translate(0 0.015625)"/>
      <use xlink:href="#DejaVuSans-3d" transform="translate(78.662109 0.015625)"/>
      <use xlink:href="#DejaVuSans-30" transform="translate(181.933594 0.015625)"/>
      <use xlink:href="#DejaVuSans-2e" transform="translate(245.556641 0.015625)"/>
      <use xlink:href="#DejaVuSans-33" transform="translate(277.34375 0.015625)"/>
     </g>
    </g>
    <g id="line2d_21">
     <path d="M 343.62 83.926688 
L 353.62 83.926688 
L 363.62 83.926688 
" style="fill: none; stroke: #2ca02c; stroke-width: 1.5; stroke-linecap: square"/>
    </g>
    <g id="text_17">
     <!-- $\lambda = 0.5$ -->
     <g transform="translate(371.62 87.426688) scale(0.1 -0.1)">
      <use xlink:href="#DejaVuSans-Oblique-3bb" transform="translate(0 0.015625)"/>
      <use xlink:href="#DejaVuSans-3d" transform="translate(78.662109 0.015625)"/>
      <use xlink:href="#DejaVuSans-30" transform="translate(181.933594 0.015625)"/>
      <use xlink:href="#DejaVuSans-2e" transform="translate(245.556641 0.015625)"/>
      <use xlink:href="#DejaVuSans-35" transform="translate(277.34375 0.015625)"/>
     </g>
    </g>
    <g id="line2d_22">
     <path d="M 343.62 98.604813 
L 353.62 98.604813 
L 363.62 98.604813 
" style="fill: none; stroke: #d62728; stroke-width: 1.5; stroke-linecap: square"/>
    </g>
    <g id="text_18">
     <!-- $\lambda = 0.7$ -->
     <g transform="translate(371.62 102.104813) scale(0.1 -0.1)">
      <defs>
       <path id="DejaVuSans-37" d="M 525 4666 
L 3525 4666 
L 3525 4397 
L 1831 0 
L 1172 0 
L 2766 4134 
L 525 4134 
L 525 4666 
z
" transform="scale(0.015625)"/>
      </defs>
      <use xlink:href="#DejaVuSans-Oblique-3bb" transform="translate(0 0.015625)"/>
      <use xlink:href="#DejaVuSans-3d" transform="translate(78.662109 0.015625)"/>
      <use xlink:href="#DejaVuSans-30" transform="translate(181.933594 0.015625)"/>
      <use xlink:href="#DejaVuSans-2e" transform="translate(245.556641 0.015625)"/>
      <use xlink:href="#DejaVuSans-37" transform="translate(269.59375 0.015625)"/>
     </g>
    </g>
    <g id="line2d_23">
     <path d="M 343.62 113.282938 
L 353.62 113.282938 
L 363.62 113.282938 
" style="fill: none; stroke: #9467bd; stroke-width: 1.5; stroke-linecap: square"/>
    </g>
    <g id="text_19">
     <!-- $\lambda = 0.9$ -->
     <g transform="translate(371.62 116.782938) scale(0.1 -0.1)">
      <defs>
       <path id="DejaVuSans-39" d="M 703 97 
L 703 672 
Q 941 559 1184 500 
Q 1428 441 1663 441 
Q 2288 441 2617 861 
Q 2947 1281 2994 2138 
Q 2813 1869 2534 1725 
Q 2256 1581 1919 1581 
Q 1219 1581 811 2004 
Q 403 2428 403 3163 
Q 403 3881 828 4315 
Q 1253 4750 1959 4750 
Q 2769 4750 3195 4129 
Q 3622 3509 3622 2328 
Q 3622 1225 3098 567 
Q 2575 -91 1691 -91 
Q 1453 -91 1209 -44 
Q 966 3 703 97 
z
M 1959 2075 
Q 2384 2075 2632 2365 
Q 2881 2656 2881 3163 
Q 2881 3666 2632 3958 
Q 2384 4250 1959 4250 
Q 1534 4250 1286 3958 
Q 1038 3666 1038 3163 
Q 1038 2656 1286 2365 
Q 1534 2075 1959 2075 
z
" transform="scale(0.015625)"/>
      </defs>
      <use xlink:href="#DejaVuSans-Oblique-3bb" transform="translate(0 0.015625)"/>
      <use xlink:href="#DejaVuSans-3d" transform="translate(78.662109 0.015625)"/>
      <use xlink:href="#DejaVuSans-30" transform="translate(181.933594 0.015625)"/>
      <use xlink:href="#DejaVuSans-2e" transform="translate(245.556641 0.015625)"/>
      <use xlink:href="#DejaVuSans-39" transform="translate(277.34375 0.015625)"/>
     </g>
    </g>
   </g>
  </g>
 </g>
 <defs>
  <clipPath id="p734a657d88">
   <rect x="57.6" y="41.472" width="357.12" height="266.112"/>
  </clipPath>
 </defs>
</svg>
