<?xml version="1.0" encoding="utf-8" standalone="no"?>
<!DOCTYPE svg PUBLIC "-//W3C//DTD SVG 1.1//EN"
  "http://www.w3.org/Graphics/SVG/1.1/DTD/svg11.dtd">
<svg xmlns:xlink="http://www.w3.org/1999/xlink" width="460.8pt" height="345.6pt" viewBox="0 0 460.8 345.6" xmlns="http://www.w3.org/2000/svg" version="1.1">
 <metadata>
  <rdf:RDF xmlns:dc="http://purl.org/dc/elements/1.1/" xmlns:cc="http://creativecommons.org/ns#" xmlns:rdf="http://www.w3.org/1999/02/22-rdf-syntax-ns#">
   <cc:Work>
    <dc:type rdf:resource="http://purl.org/dc/dcmitype/StillImage"/>
    <dc:date>2023-03-26T22:01:04.796603</dc:date>
    <dc:format>image/svg+xml</dc:format>
    <dc:creator>
     <cc:Agent>
      <dc:title>Matplotlib v3.6.3, https://matplotlib.org/</dc:title>
     </cc:Agent>
    </dc:creator>
   </cc:Work>
  </rdf:RDF>
 </metadata>
 <defs>
  <style type="text/css">*{stroke-linejoin: round; stroke-linecap: butt}</style>
 </defs>
 <g id="figure_1">
  <g id="patch_1">
   <path d="M 0 345.6 
L 460.8 345.6 
L 460.8 0 
L 0 0 
z
" style="fill: #ffffff"/>
  </g>
  <g id="axes_1">
   <g id="patch_2">
    <path d="M 57.6 307.584 
L 414.72 307.584 
L 414.72 41.472 
L 57.6 41.472 
z
" style="fill: #ffffff"/>
   </g>
   <g id="matplotlib.axis_1">
    <g id="xtick_1">
     <g id="line2d_1">
      <defs>
       <path id="m8b641f9952" d="M 0 0 
L 0 3.5 
" style="stroke: #000000; stroke-width: 0.8"/>
      </defs>
      <g>
       <use xlink:href="#m8b641f9952" x="73.832727" y="307.584" style="stroke: #000000; stroke-width: 0.8"/>
      </g>
     </g>
     <g id="text_1">
      <!-- 0 -->
      <g transform="translate(70.651477 322.182437) scale(0.1 -0.1)">
       <defs>
        <path id="DejaVuSans-30" d="M 2034 4250 
Q 1547 4250 1301 3770 
Q 1056 3291 1056 2328 
Q 1056 1369 1301 889 
Q 1547 409 2034 409 
Q 2525 409 2770 889 
Q 3016 1369 3016 2328 
Q 3016 3291 2770 3770 
Q 2525 4250 2034 4250 
z
M 2034 4750 
Q 2819 4750 3233 4129 
Q 3647 3509 3647 2328 
Q 3647 1150 3233 529 
Q 2819 -91 2034 -91 
Q 1250 -91 836 529 
Q 422 1150 422 2328 
Q 422 3509 836 4129 
Q 1250 4750 2034 4750 
z
" transform="scale(0.015625)"/>
       </defs>
       <use xlink:href="#DejaVuSans-30"/>
      </g>
     </g>
    </g>
    <g id="xtick_2">
     <g id="line2d_2">
      <g>
       <use xlink:href="#m8b641f9952" x="127.941818" y="307.584" style="stroke: #000000; stroke-width: 0.8"/>
      </g>
     </g>
     <g id="text_2">
      <!-- 2 -->
      <g transform="translate(124.760568 322.182437) scale(0.1 -0.1)">
       <defs>
        <path id="DejaVuSans-32" d="M 1228 531 
L 3431 531 
L 3431 0 
L 469 0 
L 469 531 
Q 828 903 1448 1529 
Q 2069 2156 2228 2338 
Q 2531 2678 2651 2914 
Q 2772 3150 2772 3378 
Q 2772 3750 2511 3984 
Q 2250 4219 1831 4219 
Q 1534 4219 1204 4116 
Q 875 4013 500 3803 
L 500 4441 
Q 881 4594 1212 4672 
Q 1544 4750 1819 4750 
Q 2544 4750 2975 4387 
Q 3406 4025 3406 3419 
Q 3406 3131 3298 2873 
Q 3191 2616 2906 2266 
Q 2828 2175 2409 1742 
Q 1991 1309 1228 531 
z
" transform="scale(0.015625)"/>
       </defs>
       <use xlink:href="#DejaVuSans-32"/>
      </g>
     </g>
    </g>
    <g id="xtick_3">
     <g id="line2d_3">
      <g>
       <use xlink:href="#m8b641f9952" x="182.050909" y="307.584" style="stroke: #000000; stroke-width: 0.8"/>
      </g>
     </g>
     <g id="text_3">
      <!-- 4 -->
      <g transform="translate(178.869659 322.182437) scale(0.1 -0.1)">
       <defs>
        <path id="DejaVuSans-34" d="M 2419 4116 
L 825 1625 
L 2419 1625 
L 2419 4116 
z
M 2253 4666 
L 3047 4666 
L 3047 1625 
L 3713 1625 
L 3713 1100 
L 3047 1100 
L 3047 0 
L 2419 0 
L 2419 1100 
L 313 1100 
L 313 1709 
L 2253 4666 
z
" transform="scale(0.015625)"/>
       </defs>
       <use xlink:href="#DejaVuSans-34"/>
      </g>
     </g>
    </g>
    <g id="xtick_4">
     <g id="line2d_4">
      <g>
       <use xlink:href="#m8b641f9952" x="236.16" y="307.584" style="stroke: #000000; stroke-width: 0.8"/>
      </g>
     </g>
     <g id="text_4">
      <!-- 6 -->
      <g transform="translate(232.97875 322.182437) scale(0.1 -0.1)">
       <defs>
        <path id="DejaVuSans-36" d="M 2113 2584 
Q 1688 2584 1439 2293 
Q 1191 2003 1191 1497 
Q 1191 994 1439 701 
Q 1688 409 2113 409 
Q 2538 409 2786 701 
Q 3034 994 3034 1497 
Q 3034 2003 2786 2293 
Q 2538 2584 2113 2584 
z
M 3366 4563 
L 3366 3988 
Q 3128 4100 2886 4159 
Q 2644 4219 2406 4219 
Q 1781 4219 1451 3797 
Q 1122 3375 1075 2522 
Q 1259 2794 1537 2939 
Q 1816 3084 2150 3084 
Q 2853 3084 3261 2657 
Q 3669 2231 3669 1497 
Q 3669 778 3244 343 
Q 2819 -91 2113 -91 
Q 1303 -91 875 529 
Q 447 1150 447 2328 
Q 447 3434 972 4092 
Q 1497 4750 2381 4750 
Q 2619 4750 2861 4703 
Q 3103 4656 3366 4563 
z
" transform="scale(0.015625)"/>
       </defs>
       <use xlink:href="#DejaVuSans-36"/>
      </g>
     </g>
    </g>
    <g id="xtick_5">
     <g id="line2d_5">
      <g>
       <use xlink:href="#m8b641f9952" x="290.269091" y="307.584" style="stroke: #000000; stroke-width: 0.8"/>
      </g>
     </g>
     <g id="text_5">
      <!-- 8 -->
      <g transform="translate(287.087841 322.182437) scale(0.1 -0.1)">
       <defs>
        <path id="DejaVuSans-38" d="M 2034 2216 
Q 1584 2216 1326 1975 
Q 1069 1734 1069 1313 
Q 1069 891 1326 650 
Q 1584 409 2034 409 
Q 2484 409 2743 651 
Q 3003 894 3003 1313 
Q 3003 1734 2745 1975 
Q 2488 2216 2034 2216 
z
M 1403 2484 
Q 997 2584 770 2862 
Q 544 3141 544 3541 
Q 544 4100 942 4425 
Q 1341 4750 2034 4750 
Q 2731 4750 3128 4425 
Q 3525 4100 3525 3541 
Q 3525 3141 3298 2862 
Q 3072 2584 2669 2484 
Q 3125 2378 3379 2068 
Q 3634 1759 3634 1313 
Q 3634 634 3220 271 
Q 2806 -91 2034 -91 
Q 1263 -91 848 271 
Q 434 634 434 1313 
Q 434 1759 690 2068 
Q 947 2378 1403 2484 
z
M 1172 3481 
Q 1172 3119 1398 2916 
Q 1625 2713 2034 2713 
Q 2441 2713 2670 2916 
Q 2900 3119 2900 3481 
Q 2900 3844 2670 4047 
Q 2441 4250 2034 4250 
Q 1625 4250 1398 4047 
Q 1172 3844 1172 3481 
z
" transform="scale(0.015625)"/>
       </defs>
       <use xlink:href="#DejaVuSans-38"/>
      </g>
     </g>
    </g>
    <g id="xtick_6">
     <g id="line2d_6">
      <g>
       <use xlink:href="#m8b641f9952" x="344.378182" y="307.584" style="stroke: #000000; stroke-width: 0.8"/>
      </g>
     </g>
     <g id="text_6">
      <!-- 10 -->
      <g transform="translate(338.015682 322.182437) scale(0.1 -0.1)">
       <defs>
        <path id="DejaVuSans-31" d="M 794 531 
L 1825 531 
L 1825 4091 
L 703 3866 
L 703 4441 
L 1819 4666 
L 2450 4666 
L 2450 531 
L 3481 531 
L 3481 0 
L 794 0 
L 794 531 
z
" transform="scale(0.015625)"/>
       </defs>
       <use xlink:href="#DejaVuSans-31"/>
       <use xlink:href="#DejaVuSans-30" x="63.623047"/>
      </g>
     </g>
    </g>
    <g id="xtick_7">
     <g id="line2d_7">
      <g>
       <use xlink:href="#m8b641f9952" x="398.487273" y="307.584" style="stroke: #000000; stroke-width: 0.8"/>
      </g>
     </g>
     <g id="text_7">
      <!-- 12 -->
      <g transform="translate(392.124773 322.182437) scale(0.1 -0.1)">
       <use xlink:href="#DejaVuSans-31"/>
       <use xlink:href="#DejaVuSans-32" x="63.623047"/>
      </g>
     </g>
    </g>
   </g>
   <g id="matplotlib.axis_2">
    <g id="ytick_1">
     <g id="line2d_8">
      <defs>
       <path id="m453fc8f907" d="M 0 0 
L -3.5 0 
" style="stroke: #000000; stroke-width: 0.8"/>
      </defs>
      <g>
       <use xlink:href="#m453fc8f907" x="57.6" y="290.075478" style="stroke: #000000; stroke-width: 0.8"/>
      </g>
     </g>
     <g id="text_8">
      <!-- −0.10 -->
      <g transform="translate(19.954687 293.874697) scale(0.1 -0.1)">
       <defs>
        <path id="DejaVuSans-2212" d="M 678 2272 
L 4684 2272 
L 4684 1741 
L 678 1741 
L 678 2272 
z
" transform="scale(0.015625)"/>
        <path id="DejaVuSans-2e" d="M 684 794 
L 1344 794 
L 1344 0 
L 684 0 
L 684 794 
z
" transform="scale(0.015625)"/>
       </defs>
       <use xlink:href="#DejaVuSans-2212"/>
       <use xlink:href="#DejaVuSans-30" x="83.789062"/>
       <use xlink:href="#DejaVuSans-2e" x="147.412109"/>
       <use xlink:href="#DejaVuSans-31" x="179.199219"/>
       <use xlink:href="#DejaVuSans-30" x="242.822266"/>
      </g>
     </g>
    </g>
    <g id="ytick_2">
     <g id="line2d_9">
      <g>
       <use xlink:href="#m453fc8f907" x="57.6" y="240.540441" style="stroke: #000000; stroke-width: 0.8"/>
      </g>
     </g>
     <g id="text_9">
      <!-- −0.05 -->
      <g transform="translate(19.954687 244.339659) scale(0.1 -0.1)">
       <defs>
        <path id="DejaVuSans-35" d="M 691 4666 
L 3169 4666 
L 3169 4134 
L 1269 4134 
L 1269 2991 
Q 1406 3038 1543 3061 
Q 1681 3084 1819 3084 
Q 2600 3084 3056 2656 
Q 3513 2228 3513 1497 
Q 3513 744 3044 326 
Q 2575 -91 1722 -91 
Q 1428 -91 1123 -41 
Q 819 9 494 109 
L 494 744 
Q 775 591 1075 516 
Q 1375 441 1709 441 
Q 2250 441 2565 725 
Q 2881 1009 2881 1497 
Q 2881 1984 2565 2268 
Q 2250 2553 1709 2553 
Q 1456 2553 1204 2497 
Q 953 2441 691 2322 
L 691 4666 
z
" transform="scale(0.015625)"/>
       </defs>
       <use xlink:href="#DejaVuSans-2212"/>
       <use xlink:href="#DejaVuSans-30" x="83.789062"/>
       <use xlink:href="#DejaVuSans-2e" x="147.412109"/>
       <use xlink:href="#DejaVuSans-30" x="179.199219"/>
       <use xlink:href="#DejaVuSans-35" x="242.822266"/>
      </g>
     </g>
    </g>
    <g id="ytick_3">
     <g id="line2d_10">
      <g>
       <use xlink:href="#m453fc8f907" x="57.6" y="191.005403" style="stroke: #000000; stroke-width: 0.8"/>
      </g>
     </g>
     <g id="text_10">
      <!-- 0.00 -->
      <g transform="translate(28.334375 194.804622) scale(0.1 -0.1)">
       <use xlink:href="#DejaVuSans-30"/>
       <use xlink:href="#DejaVuSans-2e" x="63.623047"/>
       <use xlink:href="#DejaVuSans-30" x="95.410156"/>
       <use xlink:href="#DejaVuSans-30" x="159.033203"/>
      </g>
     </g>
    </g>
    <g id="ytick_4">
     <g id="line2d_11">
      <g>
       <use xlink:href="#m453fc8f907" x="57.6" y="141.470366" style="stroke: #000000; stroke-width: 0.8"/>
      </g>
     </g>
     <g id="text_11">
      <!-- 0.05 -->
      <g transform="translate(28.334375 145.269585) scale(0.1 -0.1)">
       <use xlink:href="#DejaVuSans-30"/>
       <use xlink:href="#DejaVuSans-2e" x="63.623047"/>
       <use xlink:href="#DejaVuSans-30" x="95.410156"/>
       <use xlink:href="#DejaVuSans-35" x="159.033203"/>
      </g>
     </g>
    </g>
    <g id="ytick_5">
     <g id="line2d_12">
      <g>
       <use xlink:href="#m453fc8f907" x="57.6" y="91.935328" style="stroke: #000000; stroke-width: 0.8"/>
      </g>
     </g>
     <g id="text_12">
      <!-- 0.10 -->
      <g transform="translate(28.334375 95.734547) scale(0.1 -0.1)">
       <use xlink:href="#DejaVuSans-30"/>
       <use xlink:href="#DejaVuSans-2e" x="63.623047"/>
       <use xlink:href="#DejaVuSans-31" x="95.410156"/>
       <use xlink:href="#DejaVuSans-30" x="159.033203"/>
      </g>
     </g>
    </g>
    <g id="ytick_6">
     <g id="line2d_13">
      <g>
       <use xlink:href="#m453fc8f907" x="57.6" y="42.400291" style="stroke: #000000; stroke-width: 0.8"/>
      </g>
     </g>
     <g id="text_13">
      <!-- 0.15 -->
      <g transform="translate(28.334375 46.19951) scale(0.1 -0.1)">
       <use xlink:href="#DejaVuSans-30"/>
       <use xlink:href="#DejaVuSans-2e" x="63.623047"/>
       <use xlink:href="#DejaVuSans-31" x="95.410156"/>
       <use xlink:href="#DejaVuSans-35" x="159.033203"/>
      </g>
     </g>
    </g>
   </g>
   <g id="line2d_14">
    <path d="M 73.832727 53.568 
L 100.887273 144.124552 
L 127.941818 148.026216 
L 154.996364 158.104581 
L 182.050909 166.185995 
L 209.105455 180.71192 
L 236.16 183.589354 
L 263.214545 187.103671 
L 290.269091 191.666679 
L 317.323636 203.076531 
L 344.378182 221.85081 
L 371.432727 224.841867 
L 398.487273 295.488 
" clip-path="url(#p2a9198d4e5)" style="fill: none; stroke: #1f77b4; stroke-width: 1.5; stroke-linecap: square"/>
    <defs>
     <path id="mb5e48be2fe" d="M 0 3 
C 0.795609 3 1.55874 2.683901 2.12132 2.12132 
C 2.683901 1.55874 3 0.795609 3 0 
C 3 -0.795609 2.683901 -1.55874 2.12132 -2.12132 
C 1.55874 -2.683901 0.795609 -3 0 -3 
C -0.795609 -3 -1.55874 -2.683901 -2.12132 -2.12132 
C -2.683901 -1.55874 -3 -0.795609 -3 0 
C -3 0.795609 -2.683901 1.55874 -2.12132 2.12132 
C -1.55874 2.683901 -0.795609 3 0 3 
z
" style="stroke: #1f77b4"/>
    </defs>
    <g clip-path="url(#p2a9198d4e5)">
     <use xlink:href="#mb5e48be2fe" x="73.832727" y="53.568" style="fill: #1f77b4; stroke: #1f77b4"/>
     <use xlink:href="#mb5e48be2fe" x="100.887273" y="144.124552" style="fill: #1f77b4; stroke: #1f77b4"/>
     <use xlink:href="#mb5e48be2fe" x="127.941818" y="148.026216" style="fill: #1f77b4; stroke: #1f77b4"/>
     <use xlink:href="#mb5e48be2fe" x="154.996364" y="158.104581" style="fill: #1f77b4; stroke: #1f77b4"/>
     <use xlink:href="#mb5e48be2fe" x="182.050909" y="166.185995" style="fill: #1f77b4; stroke: #1f77b4"/>
     <use xlink:href="#mb5e48be2fe" x="209.105455" y="180.71192" style="fill: #1f77b4; stroke: #1f77b4"/>
     <use xlink:href="#mb5e48be2fe" x="236.16" y="183.589354" style="fill: #1f77b4; stroke: #1f77b4"/>
     <use xlink:href="#mb5e48be2fe" x="263.214545" y="187.103671" style="fill: #1f77b4; stroke: #1f77b4"/>
     <use xlink:href="#mb5e48be2fe" x="290.269091" y="191.666679" style="fill: #1f77b4; stroke: #1f77b4"/>
     <use xlink:href="#mb5e48be2fe" x="317.323636" y="203.076531" style="fill: #1f77b4; stroke: #1f77b4"/>
     <use xlink:href="#mb5e48be2fe" x="344.378182" y="221.85081" style="fill: #1f77b4; stroke: #1f77b4"/>
     <use xlink:href="#mb5e48be2fe" x="371.432727" y="224.841867" style="fill: #1f77b4; stroke: #1f77b4"/>
     <use xlink:href="#mb5e48be2fe" x="398.487273" y="295.488" style="fill: #1f77b4; stroke: #1f77b4"/>
    </g>
   </g>
   <g id="line2d_15">
    <path d="M 73.832727 74.144047 
L 100.887273 146.164928 
L 127.941818 148.890235 
L 154.996364 157.329042 
L 182.050909 167.832249 
L 209.105455 182.563399 
L 236.16 187.284613 
L 263.214545 188.938232 
L 290.269091 191.471238 
L 317.323636 202.501614 
L 344.378182 203.035247 
L 371.432727 221.740224 
L 398.487273 225.0731 
" clip-path="url(#p2a9198d4e5)" style="fill: none; stroke: #ff7f0e; stroke-width: 1.5; stroke-linecap: square"/>
    <defs>
     <path id="m48833f4f83" d="M 0 3 
C 0.795609 3 1.55874 2.683901 2.12132 2.12132 
C 2.683901 1.55874 3 0.795609 3 0 
C 3 -0.795609 2.683901 -1.55874 2.12132 -2.12132 
C 1.55874 -2.683901 0.795609 -3 0 -3 
C -0.795609 -3 -1.55874 -2.683901 -2.12132 -2.12132 
C -2.683901 -1.55874 -3 -0.795609 -3 0 
C -3 0.795609 -2.683901 1.55874 -2.12132 2.12132 
C -1.55874 2.683901 -0.795609 3 0 3 
z
" style="stroke: #ff7f0e"/>
    </defs>
    <g clip-path="url(#p2a9198d4e5)">
     <use xlink:href="#m48833f4f83" x="73.832727" y="74.144047" style="fill: #ff7f0e; stroke: #ff7f0e"/>
     <use xlink:href="#m48833f4f83" x="100.887273" y="146.164928" style="fill: #ff7f0e; stroke: #ff7f0e"/>
     <use xlink:href="#m48833f4f83" x="127.941818" y="148.890235" style="fill: #ff7f0e; stroke: #ff7f0e"/>
     <use xlink:href="#m48833f4f83" x="154.996364" y="157.329042" style="fill: #ff7f0e; stroke: #ff7f0e"/>
     <use xlink:href="#m48833f4f83" x="182.050909" y="167.832249" style="fill: #ff7f0e; stroke: #ff7f0e"/>
     <use xlink:href="#m48833f4f83" x="209.105455" y="182.563399" style="fill: #ff7f0e; stroke: #ff7f0e"/>
     <use xlink:href="#m48833f4f83" x="236.16" y="187.284613" style="fill: #ff7f0e; stroke: #ff7f0e"/>
     <use xlink:href="#m48833f4f83" x="263.214545" y="188.938232" style="fill: #ff7f0e; stroke: #ff7f0e"/>
     <use xlink:href="#m48833f4f83" x="290.269091" y="191.471238" style="fill: #ff7f0e; stroke: #ff7f0e"/>
     <use xlink:href="#m48833f4f83" x="317.323636" y="202.501614" style="fill: #ff7f0e; stroke: #ff7f0e"/>
     <use xlink:href="#m48833f4f83" x="344.378182" y="203.035247" style="fill: #ff7f0e; stroke: #ff7f0e"/>
     <use xlink:href="#m48833f4f83" x="371.432727" y="221.740224" style="fill: #ff7f0e; stroke: #ff7f0e"/>
     <use xlink:href="#m48833f4f83" x="398.487273" y="225.0731" style="fill: #ff7f0e; stroke: #ff7f0e"/>
    </g>
   </g>
   <g id="line2d_16">
    <path d="M 73.832727 141.424159 
L 100.887273 156.371558 
L 127.941818 163.37613 
L 154.996364 163.592604 
L 182.050909 176.893721 
L 209.105455 179.293338 
L 236.16 187.96227 
L 263.214545 190.280164 
L 290.269091 190.884507 
L 317.323636 192.177555 
L 344.378182 201.77395 
L 371.432727 218.664646 
L 398.487273 222.28283 
" clip-path="url(#p2a9198d4e5)" style="fill: none; stroke: #2ca02c; stroke-width: 1.5; stroke-linecap: square"/>
    <defs>
     <path id="mb3e399274b" d="M 0 3 
C 0.795609 3 1.55874 2.683901 2.12132 2.12132 
C 2.683901 1.55874 3 0.795609 3 0 
C 3 -0.795609 2.683901 -1.55874 2.12132 -2.12132 
C 1.55874 -2.683901 0.795609 -3 0 -3 
C -0.795609 -3 -1.55874 -2.683901 -2.12132 -2.12132 
C -2.683901 -1.55874 -3 -0.795609 -3 0 
C -3 0.795609 -2.683901 1.55874 -2.12132 2.12132 
C -1.55874 2.683901 -0.795609 3 0 3 
z
" style="stroke: #2ca02c"/>
    </defs>
    <g clip-path="url(#p2a9198d4e5)">
     <use xlink:href="#mb3e399274b" x="73.832727" y="141.424159" style="fill: #2ca02c; stroke: #2ca02c"/>
     <use xlink:href="#mb3e399274b" x="100.887273" y="156.371558" style="fill: #2ca02c; stroke: #2ca02c"/>
     <use xlink:href="#mb3e399274b" x="127.941818" y="163.37613" style="fill: #2ca02c; stroke: #2ca02c"/>
     <use xlink:href="#mb3e399274b" x="154.996364" y="163.592604" style="fill: #2ca02c; stroke: #2ca02c"/>
     <use xlink:href="#mb3e399274b" x="182.050909" y="176.893721" style="fill: #2ca02c; stroke: #2ca02c"/>
     <use xlink:href="#mb3e399274b" x="209.105455" y="179.293338" style="fill: #2ca02c; stroke: #2ca02c"/>
     <use xlink:href="#mb3e399274b" x="236.16" y="187.96227" style="fill: #2ca02c; stroke: #2ca02c"/>
     <use xlink:href="#mb3e399274b" x="263.214545" y="190.280164" style="fill: #2ca02c; stroke: #2ca02c"/>
     <use xlink:href="#mb3e399274b" x="290.269091" y="190.884507" style="fill: #2ca02c; stroke: #2ca02c"/>
     <use xlink:href="#mb3e399274b" x="317.323636" y="192.177555" style="fill: #2ca02c; stroke: #2ca02c"/>
     <use xlink:href="#mb3e399274b" x="344.378182" y="201.77395" style="fill: #2ca02c; stroke: #2ca02c"/>
     <use xlink:href="#mb3e399274b" x="371.432727" y="218.664646" style="fill: #2ca02c; stroke: #2ca02c"/>
     <use xlink:href="#mb3e399274b" x="398.487273" y="222.28283" style="fill: #2ca02c; stroke: #2ca02c"/>
    </g>
   </g>
   <g id="line2d_17">
    <path d="M 73.832727 180.1178 
L 100.887273 180.472994 
L 127.941818 182.364181 
L 154.996364 183.715241 
L 182.050909 184.555893 
L 209.105455 188.67905 
L 236.16 188.980041 
L 263.214545 190.655241 
L 290.269091 190.782556 
L 317.323636 191.131701 
L 344.378182 196.616732 
L 371.432727 203.703014 
L 398.487273 203.899238 
" clip-path="url(#p2a9198d4e5)" style="fill: none; stroke: #d62728; stroke-width: 1.5; stroke-linecap: square"/>
    <defs>
     <path id="mddbc0171d7" d="M 0 3 
C 0.795609 3 1.55874 2.683901 2.12132 2.12132 
C 2.683901 1.55874 3 0.795609 3 0 
C 3 -0.795609 2.683901 -1.55874 2.12132 -2.12132 
C 1.55874 -2.683901 0.795609 -3 0 -3 
C -0.795609 -3 -1.55874 -2.683901 -2.12132 -2.12132 
C -2.683901 -1.55874 -3 -0.795609 -3 0 
C -3 0.795609 -2.683901 1.55874 -2.12132 2.12132 
C -1.55874 2.683901 -0.795609 3 0 3 
z
" style="stroke: #d62728"/>
    </defs>
    <g clip-path="url(#p2a9198d4e5)">
     <use xlink:href="#mddbc0171d7" x="73.832727" y="180.1178" style="fill: #d62728; stroke: #d62728"/>
     <use xlink:href="#mddbc0171d7" x="100.887273" y="180.472994" style="fill: #d62728; stroke: #d62728"/>
     <use xlink:href="#mddbc0171d7" x="127.941818" y="182.364181" style="fill: #d62728; stroke: #d62728"/>
     <use xlink:href="#mddbc0171d7" x="154.996364" y="183.715241" style="fill: #d62728; stroke: #d62728"/>
     <use xlink:href="#mddbc0171d7" x="182.050909" y="184.555893" style="fill: #d62728; stroke: #d62728"/>
     <use xlink:href="#mddbc0171d7" x="209.105455" y="188.67905" style="fill: #d62728; stroke: #d62728"/>
     <use xlink:href="#mddbc0171d7" x="236.16" y="188.980041" style="fill: #d62728; stroke: #d62728"/>
     <use xlink:href="#mddbc0171d7" x="263.214545" y="190.655241" style="fill: #d62728; stroke: #d62728"/>
     <use xlink:href="#mddbc0171d7" x="290.269091" y="190.782556" style="fill: #d62728; stroke: #d62728"/>
     <use xlink:href="#mddbc0171d7" x="317.323636" y="191.131701" style="fill: #d62728; stroke: #d62728"/>
     <use xlink:href="#mddbc0171d7" x="344.378182" y="196.616732" style="fill: #d62728; stroke: #d62728"/>
     <use xlink:href="#mddbc0171d7" x="371.432727" y="203.703014" style="fill: #d62728; stroke: #d62728"/>
     <use xlink:href="#mddbc0171d7" x="398.487273" y="203.899238" style="fill: #d62728; stroke: #d62728"/>
    </g>
   </g>
   <g id="line2d_18">
    <path d="M 73.832727 184.454228 
L 100.887273 189.476757 
L 127.941818 189.568614 
L 154.996364 189.853478 
L 182.050909 189.876951 
L 209.105455 190.009513 
L 236.16 190.530622 
L 263.214545 190.625956 
L 290.269091 190.923973 
L 317.323636 191.019871 
L 344.378182 191.795666 
L 371.432727 191.8094 
L 398.487273 192.617305 
" clip-path="url(#p2a9198d4e5)" style="fill: none; stroke: #9467bd; stroke-width: 1.5; stroke-linecap: square"/>
    <defs>
     <path id="mdfabd6591f" d="M 0 3 
C 0.795609 3 1.55874 2.683901 2.12132 2.12132 
C 2.683901 1.55874 3 0.795609 3 0 
C 3 -0.795609 2.683901 -1.55874 2.12132 -2.12132 
C 1.55874 -2.683901 0.795609 -3 0 -3 
C -0.795609 -3 -1.55874 -2.683901 -2.12132 -2.12132 
C -2.683901 -1.55874 -3 -0.795609 -3 0 
C -3 0.795609 -2.683901 1.55874 -2.12132 2.12132 
C -1.55874 2.683901 -0.795609 3 0 3 
z
" style="stroke: #9467bd"/>
    </defs>
    <g clip-path="url(#p2a9198d4e5)">
     <use xlink:href="#mdfabd6591f" x="73.832727" y="184.454228" style="fill: #9467bd; stroke: #9467bd"/>
     <use xlink:href="#mdfabd6591f" x="100.887273" y="189.476757" style="fill: #9467bd; stroke: #9467bd"/>
     <use xlink:href="#mdfabd6591f" x="127.941818" y="189.568614" style="fill: #9467bd; stroke: #9467bd"/>
     <use xlink:href="#mdfabd6591f" x="154.996364" y="189.853478" style="fill: #9467bd; stroke: #9467bd"/>
     <use xlink:href="#mdfabd6591f" x="182.050909" y="189.876951" style="fill: #9467bd; stroke: #9467bd"/>
     <use xlink:href="#mdfabd6591f" x="209.105455" y="190.009513" style="fill: #9467bd; stroke: #9467bd"/>
     <use xlink:href="#mdfabd6591f" x="236.16" y="190.530622" style="fill: #9467bd; stroke: #9467bd"/>
     <use xlink:href="#mdfabd6591f" x="263.214545" y="190.625956" style="fill: #9467bd; stroke: #9467bd"/>
     <use xlink:href="#mdfabd6591f" x="290.269091" y="190.923973" style="fill: #9467bd; stroke: #9467bd"/>
     <use xlink:href="#mdfabd6591f" x="317.323636" y="191.019871" style="fill: #9467bd; stroke: #9467bd"/>
     <use xlink:href="#mdfabd6591f" x="344.378182" y="191.795666" style="fill: #9467bd; stroke: #9467bd"/>
     <use xlink:href="#mdfabd6591f" x="371.432727" y="191.8094" style="fill: #9467bd; stroke: #9467bd"/>
     <use xlink:href="#mdfabd6591f" x="398.487273" y="192.617305" style="fill: #9467bd; stroke: #9467bd"/>
    </g>
   </g>
   <g id="line2d_19">
    <path d="M 73.832727 188.366217 
L 100.887273 189.980168 
L 127.941818 190.039593 
L 154.996364 190.254986 
L 182.050909 190.739176 
L 209.105455 190.766404 
L 236.16 190.785677 
L 263.214545 190.801733 
L 290.269091 190.817103 
L 317.323636 190.873231 
L 344.378182 190.975185 
L 371.432727 191.004304 
L 398.487273 191.006841 
" clip-path="url(#p2a9198d4e5)" style="fill: none; stroke: #8c564b; stroke-width: 1.5; stroke-linecap: square"/>
    <defs>
     <path id="m627dc3175e" d="M 0 3 
C 0.795609 3 1.55874 2.683901 2.12132 2.12132 
C 2.683901 1.55874 3 0.795609 3 0 
C 3 -0.795609 2.683901 -1.55874 2.12132 -2.12132 
C 1.55874 -2.683901 0.795609 -3 0 -3 
C -0.795609 -3 -1.55874 -2.683901 -2.12132 -2.12132 
C -2.683901 -1.55874 -3 -0.795609 -3 0 
C -3 0.795609 -2.683901 1.55874 -2.12132 2.12132 
C -1.55874 2.683901 -0.795609 3 0 3 
z
" style="stroke: #8c564b"/>
    </defs>
    <g clip-path="url(#p2a9198d4e5)">
     <use xlink:href="#m627dc3175e" x="73.832727" y="188.366217" style="fill: #8c564b; stroke: #8c564b"/>
     <use xlink:href="#m627dc3175e" x="100.887273" y="189.980168" style="fill: #8c564b; stroke: #8c564b"/>
     <use xlink:href="#m627dc3175e" x="127.941818" y="190.039593" style="fill: #8c564b; stroke: #8c564b"/>
     <use xlink:href="#m627dc3175e" x="154.996364" y="190.254986" style="fill: #8c564b; stroke: #8c564b"/>
     <use xlink:href="#m627dc3175e" x="182.050909" y="190.739176" style="fill: #8c564b; stroke: #8c564b"/>
     <use xlink:href="#m627dc3175e" x="209.105455" y="190.766404" style="fill: #8c564b; stroke: #8c564b"/>
     <use xlink:href="#m627dc3175e" x="236.16" y="190.785677" style="fill: #8c564b; stroke: #8c564b"/>
     <use xlink:href="#m627dc3175e" x="263.214545" y="190.801733" style="fill: #8c564b; stroke: #8c564b"/>
     <use xlink:href="#m627dc3175e" x="290.269091" y="190.817103" style="fill: #8c564b; stroke: #8c564b"/>
     <use xlink:href="#m627dc3175e" x="317.323636" y="190.873231" style="fill: #8c564b; stroke: #8c564b"/>
     <use xlink:href="#m627dc3175e" x="344.378182" y="190.975185" style="fill: #8c564b; stroke: #8c564b"/>
     <use xlink:href="#m627dc3175e" x="371.432727" y="191.004304" style="fill: #8c564b; stroke: #8c564b"/>
     <use xlink:href="#m627dc3175e" x="398.487273" y="191.006841" style="fill: #8c564b; stroke: #8c564b"/>
    </g>
   </g>
   <g id="patch_3">
    <path d="M 57.6 307.584 
L 57.6 41.472 
" style="fill: none; stroke: #000000; stroke-width: 0.8; stroke-linejoin: miter; stroke-linecap: square"/>
   </g>
   <g id="patch_4">
    <path d="M 414.72 307.584 
L 414.72 41.472 
" style="fill: none; stroke: #000000; stroke-width: 0.8; stroke-linejoin: miter; stroke-linecap: square"/>
   </g>
   <g id="patch_5">
    <path d="M 57.6 307.584 
L 414.72 307.584 
" style="fill: none; stroke: #000000; stroke-width: 0.8; stroke-linejoin: miter; stroke-linecap: square"/>
   </g>
   <g id="patch_6">
    <path d="M 57.6 41.472 
L 414.72 41.472 
" style="fill: none; stroke: #000000; stroke-width: 0.8; stroke-linejoin: miter; stroke-linecap: square"/>
   </g>
   <g id="text_14">
    <!-- sorted $\beta_i$ of Task(2) -->
    <g transform="translate(177.9 35.472) scale(0.12 -0.12)">
     <defs>
      <path id="DejaVuSans-73" d="M 2834 3397 
L 2834 2853 
Q 2591 2978 2328 3040 
Q 2066 3103 1784 3103 
Q 1356 3103 1142 2972 
Q 928 2841 928 2578 
Q 928 2378 1081 2264 
Q 1234 2150 1697 2047 
L 1894 2003 
Q 2506 1872 2764 1633 
Q 3022 1394 3022 966 
Q 3022 478 2636 193 
Q 2250 -91 1575 -91 
Q 1294 -91 989 -36 
Q 684 19 347 128 
L 347 722 
Q 666 556 975 473 
Q 1284 391 1588 391 
Q 1994 391 2212 530 
Q 2431 669 2431 922 
Q 2431 1156 2273 1281 
Q 2116 1406 1581 1522 
L 1381 1569 
Q 847 1681 609 1914 
Q 372 2147 372 2553 
Q 372 3047 722 3315 
Q 1072 3584 1716 3584 
Q 2034 3584 2315 3537 
Q 2597 3491 2834 3397 
z
" transform="scale(0.015625)"/>
      <path id="DejaVuSans-6f" d="M 1959 3097 
Q 1497 3097 1228 2736 
Q 959 2375 959 1747 
Q 959 1119 1226 758 
Q 1494 397 1959 397 
Q 2419 397 2687 759 
Q 2956 1122 2956 1747 
Q 2956 2369 2687 2733 
Q 2419 3097 1959 3097 
z
M 1959 3584 
Q 2709 3584 3137 3096 
Q 3566 2609 3566 1747 
Q 3566 888 3137 398 
Q 2709 -91 1959 -91 
Q 1206 -91 779 398 
Q 353 888 353 1747 
Q 353 2609 779 3096 
Q 1206 3584 1959 3584 
z
" transform="scale(0.015625)"/>
      <path id="DejaVuSans-72" d="M 2631 2963 
Q 2534 3019 2420 3045 
Q 2306 3072 2169 3072 
Q 1681 3072 1420 2755 
Q 1159 2438 1159 1844 
L 1159 0 
L 581 0 
L 581 3500 
L 1159 3500 
L 1159 2956 
Q 1341 3275 1631 3429 
Q 1922 3584 2338 3584 
Q 2397 3584 2469 3576 
Q 2541 3569 2628 3553 
L 2631 2963 
z
" transform="scale(0.015625)"/>
      <path id="DejaVuSans-74" d="M 1172 4494 
L 1172 3500 
L 2356 3500 
L 2356 3053 
L 1172 3053 
L 1172 1153 
Q 1172 725 1289 603 
Q 1406 481 1766 481 
L 2356 481 
L 2356 0 
L 1766 0 
Q 1100 0 847 248 
Q 594 497 594 1153 
L 594 3053 
L 172 3053 
L 172 3500 
L 594 3500 
L 594 4494 
L 1172 4494 
z
" transform="scale(0.015625)"/>
      <path id="DejaVuSans-65" d="M 3597 1894 
L 3597 1613 
L 953 1613 
Q 991 1019 1311 708 
Q 1631 397 2203 397 
Q 2534 397 2845 478 
Q 3156 559 3463 722 
L 3463 178 
Q 3153 47 2828 -22 
Q 2503 -91 2169 -91 
Q 1331 -91 842 396 
Q 353 884 353 1716 
Q 353 2575 817 3079 
Q 1281 3584 2069 3584 
Q 2775 3584 3186 3129 
Q 3597 2675 3597 1894 
z
M 3022 2063 
Q 3016 2534 2758 2815 
Q 2500 3097 2075 3097 
Q 1594 3097 1305 2825 
Q 1016 2553 972 2059 
L 3022 2063 
z
" transform="scale(0.015625)"/>
      <path id="DejaVuSans-64" d="M 2906 2969 
L 2906 4863 
L 3481 4863 
L 3481 0 
L 2906 0 
L 2906 525 
Q 2725 213 2448 61 
Q 2172 -91 1784 -91 
Q 1150 -91 751 415 
Q 353 922 353 1747 
Q 353 2572 751 3078 
Q 1150 3584 1784 3584 
Q 2172 3584 2448 3432 
Q 2725 3281 2906 2969 
z
M 947 1747 
Q 947 1113 1208 752 
Q 1469 391 1925 391 
Q 2381 391 2643 752 
Q 2906 1113 2906 1747 
Q 2906 2381 2643 2742 
Q 2381 3103 1925 3103 
Q 1469 3103 1208 2742 
Q 947 2381 947 1747 
z
" transform="scale(0.015625)"/>
      <path id="DejaVuSans-20" transform="scale(0.015625)"/>
      <path id="DejaVuSans-Oblique-3b2" d="M 872 216 
L 572 -1331 
L -6 -1331 
L 928 3478 
Q 1206 4903 2538 4903 
Q 3888 4903 3659 3700 
Q 3503 2844 2894 2531 
Q 3713 2250 3553 1416 
Q 3272 -69 1759 -66 
Q 1097 -63 872 216 
z
M 1019 966 
Q 1259 422 1875 425 
Q 2775 425 2966 1406 
Q 3138 2288 1675 2219 
L 1778 2750 
Q 2909 2731 3106 3750 
Q 3241 4438 2509 4434 
Q 1691 4434 1503 3459 
L 1019 966 
z
" transform="scale(0.015625)"/>
      <path id="DejaVuSans-Oblique-69" d="M 1172 4863 
L 1747 4863 
L 1606 4134 
L 1031 4134 
L 1172 4863 
z
M 909 3500 
L 1484 3500 
L 800 0 
L 225 0 
L 909 3500 
z
" transform="scale(0.015625)"/>
      <path id="DejaVuSans-66" d="M 2375 4863 
L 2375 4384 
L 1825 4384 
Q 1516 4384 1395 4259 
Q 1275 4134 1275 3809 
L 1275 3500 
L 2222 3500 
L 2222 3053 
L 1275 3053 
L 1275 0 
L 697 0 
L 697 3053 
L 147 3053 
L 147 3500 
L 697 3500 
L 697 3744 
Q 697 4328 969 4595 
Q 1241 4863 1831 4863 
L 2375 4863 
z
" transform="scale(0.015625)"/>
      <path id="DejaVuSans-54" d="M -19 4666 
L 3928 4666 
L 3928 4134 
L 2272 4134 
L 2272 0 
L 1638 0 
L 1638 4134 
L -19 4134 
L -19 4666 
z
" transform="scale(0.015625)"/>
      <path id="DejaVuSans-61" d="M 2194 1759 
Q 1497 1759 1228 1600 
Q 959 1441 959 1056 
Q 959 750 1161 570 
Q 1363 391 1709 391 
Q 2188 391 2477 730 
Q 2766 1069 2766 1631 
L 2766 1759 
L 2194 1759 
z
M 3341 1997 
L 3341 0 
L 2766 0 
L 2766 531 
Q 2569 213 2275 61 
Q 1981 -91 1556 -91 
Q 1019 -91 701 211 
Q 384 513 384 1019 
Q 384 1609 779 1909 
Q 1175 2209 1959 2209 
L 2766 2209 
L 2766 2266 
Q 2766 2663 2505 2880 
Q 2244 3097 1772 3097 
Q 1472 3097 1187 3025 
Q 903 2953 641 2809 
L 641 3341 
Q 956 3463 1253 3523 
Q 1550 3584 1831 3584 
Q 2591 3584 2966 3190 
Q 3341 2797 3341 1997 
z
" transform="scale(0.015625)"/>
      <path id="DejaVuSans-6b" d="M 581 4863 
L 1159 4863 
L 1159 1991 
L 2875 3500 
L 3609 3500 
L 1753 1863 
L 3688 0 
L 2938 0 
L 1159 1709 
L 1159 0 
L 581 0 
L 581 4863 
z
" transform="scale(0.015625)"/>
      <path id="DejaVuSans-28" d="M 1984 4856 
Q 1566 4138 1362 3434 
Q 1159 2731 1159 2009 
Q 1159 1288 1364 580 
Q 1569 -128 1984 -844 
L 1484 -844 
Q 1016 -109 783 600 
Q 550 1309 550 2009 
Q 550 2706 781 3412 
Q 1013 4119 1484 4856 
L 1984 4856 
z
" transform="scale(0.015625)"/>
      <path id="DejaVuSans-29" d="M 513 4856 
L 1013 4856 
Q 1481 4119 1714 3412 
Q 1947 2706 1947 2009 
Q 1947 1309 1714 600 
Q 1481 -109 1013 -844 
L 513 -844 
Q 928 -128 1133 580 
Q 1338 1288 1338 2009 
Q 1338 2731 1133 3434 
Q 928 4138 513 4856 
z
" transform="scale(0.015625)"/>
     </defs>
     <use xlink:href="#DejaVuSans-73" transform="translate(0 0.390625)"/>
     <use xlink:href="#DejaVuSans-6f" transform="translate(52.099609 0.390625)"/>
     <use xlink:href="#DejaVuSans-72" transform="translate(113.28125 0.390625)"/>
     <use xlink:href="#DejaVuSans-74" transform="translate(154.394531 0.390625)"/>
     <use xlink:href="#DejaVuSans-65" transform="translate(193.603516 0.390625)"/>
     <use xlink:href="#DejaVuSans-64" transform="translate(255.126953 0.390625)"/>
     <use xlink:href="#DejaVuSans-20" transform="translate(318.603516 0.390625)"/>
     <use xlink:href="#DejaVuSans-Oblique-3b2" transform="translate(350.390625 0.390625)"/>
     <use xlink:href="#DejaVuSans-Oblique-69" transform="translate(414.208984 -16.015625) scale(0.7)"/>
     <use xlink:href="#DejaVuSans-20" transform="translate(436.391602 0.390625)"/>
     <use xlink:href="#DejaVuSans-6f" transform="translate(468.178711 0.390625)"/>
     <use xlink:href="#DejaVuSans-66" transform="translate(529.360352 0.390625)"/>
     <use xlink:href="#DejaVuSans-20" transform="translate(564.56543 0.390625)"/>
     <use xlink:href="#DejaVuSans-54" transform="translate(596.352539 0.390625)"/>
     <use xlink:href="#DejaVuSans-61" transform="translate(657.436523 0.390625)"/>
     <use xlink:href="#DejaVuSans-73" transform="translate(718.71582 0.390625)"/>
     <use xlink:href="#DejaVuSans-6b" transform="translate(770.81543 0.390625)"/>
     <use xlink:href="#DejaVuSans-28" transform="translate(828.725586 0.390625)"/>
     <use xlink:href="#DejaVuSans-32" transform="translate(867.739258 0.390625)"/>
     <use xlink:href="#DejaVuSans-29" transform="translate(931.362305 0.390625)"/>
    </g>
   </g>
   <g id="legend_1">
    <g id="patch_7">
     <path d="M 339.92 137.54075 
L 407.72 137.54075 
Q 409.72 137.54075 409.72 135.54075 
L 409.72 48.472 
Q 409.72 46.472 407.72 46.472 
L 339.92 46.472 
Q 337.92 46.472 337.92 48.472 
L 337.92 135.54075 
Q 337.92 137.54075 339.92 137.54075 
z
" style="fill: #ffffff; opacity: 0.8; stroke: #cccccc; stroke-linejoin: miter"/>
    </g>
    <g id="line2d_20">
     <path d="M 341.92 54.570438 
L 351.92 54.570438 
L 361.92 54.570438 
" style="fill: none; stroke: #1f77b4; stroke-width: 1.5; stroke-linecap: square"/>
     <g>
      <use xlink:href="#mb5e48be2fe" x="351.92" y="54.570438" style="fill: #1f77b4; stroke: #1f77b4"/>
     </g>
    </g>
    <g id="text_15">
     <!-- $\lambda = 10^1$ -->
     <g transform="translate(369.92 58.070438) scale(0.1 -0.1)">
      <defs>
       <path id="DejaVuSans-Oblique-3bb" d="M 2350 4316 
L 3125 0 
L 2516 0 
L 2038 2588 
L 328 0 
L -281 0 
L 1903 3356 
L 1794 3975 
Q 1725 4369 1391 4369 
L 1091 4369 
L 1184 4863 
L 1550 4856 
Q 2253 4847 2350 4316 
z
" transform="scale(0.015625)"/>
       <path id="DejaVuSans-3d" d="M 678 2906 
L 4684 2906 
L 4684 2381 
L 678 2381 
L 678 2906 
z
M 678 1631 
L 4684 1631 
L 4684 1100 
L 678 1100 
L 678 1631 
z
" transform="scale(0.015625)"/>
      </defs>
      <use xlink:href="#DejaVuSans-Oblique-3bb" transform="translate(0 0.684375)"/>
      <use xlink:href="#DejaVuSans-3d" transform="translate(78.662109 0.684375)"/>
      <use xlink:href="#DejaVuSans-31" transform="translate(181.933594 0.684375)"/>
      <use xlink:href="#DejaVuSans-30" transform="translate(245.556641 0.684375)"/>
      <use xlink:href="#DejaVuSans-31" transform="translate(310.136719 38.965625) scale(0.7)"/>
     </g>
    </g>
    <g id="line2d_21">
     <path d="M 341.92 69.248563 
L 351.92 69.248563 
L 361.92 69.248563 
" style="fill: none; stroke: #ff7f0e; stroke-width: 1.5; stroke-linecap: square"/>
     <g>
      <use xlink:href="#m48833f4f83" x="351.92" y="69.248563" style="fill: #ff7f0e; stroke: #ff7f0e"/>
     </g>
    </g>
    <g id="text_16">
     <!-- $\lambda = 10^2$ -->
     <g transform="translate(369.92 72.748563) scale(0.1 -0.1)">
      <use xlink:href="#DejaVuSans-Oblique-3bb" transform="translate(0 0.765625)"/>
      <use xlink:href="#DejaVuSans-3d" transform="translate(78.662109 0.765625)"/>
      <use xlink:href="#DejaVuSans-31" transform="translate(181.933594 0.765625)"/>
      <use xlink:href="#DejaVuSans-30" transform="translate(245.556641 0.765625)"/>
      <use xlink:href="#DejaVuSans-32" transform="translate(310.136719 39.046875) scale(0.7)"/>
     </g>
    </g>
    <g id="line2d_22">
     <path d="M 341.92 83.926688 
L 351.92 83.926688 
L 361.92 83.926688 
" style="fill: none; stroke: #2ca02c; stroke-width: 1.5; stroke-linecap: square"/>
     <g>
      <use xlink:href="#mb3e399274b" x="351.92" y="83.926688" style="fill: #2ca02c; stroke: #2ca02c"/>
     </g>
    </g>
    <g id="text_17">
     <!-- $\lambda = 10^3$ -->
     <g transform="translate(369.92 87.426688) scale(0.1 -0.1)">
      <defs>
       <path id="DejaVuSans-33" d="M 2597 2516 
Q 3050 2419 3304 2112 
Q 3559 1806 3559 1356 
Q 3559 666 3084 287 
Q 2609 -91 1734 -91 
Q 1441 -91 1130 -33 
Q 819 25 488 141 
L 488 750 
Q 750 597 1062 519 
Q 1375 441 1716 441 
Q 2309 441 2620 675 
Q 2931 909 2931 1356 
Q 2931 1769 2642 2001 
Q 2353 2234 1838 2234 
L 1294 2234 
L 1294 2753 
L 1863 2753 
Q 2328 2753 2575 2939 
Q 2822 3125 2822 3475 
Q 2822 3834 2567 4026 
Q 2313 4219 1838 4219 
Q 1578 4219 1281 4162 
Q 984 4106 628 3988 
L 628 4550 
Q 988 4650 1302 4700 
Q 1616 4750 1894 4750 
Q 2613 4750 3031 4423 
Q 3450 4097 3450 3541 
Q 3450 3153 3228 2886 
Q 3006 2619 2597 2516 
z
" transform="scale(0.015625)"/>
      </defs>
      <use xlink:href="#DejaVuSans-Oblique-3bb" transform="translate(0 0.765625)"/>
      <use xlink:href="#DejaVuSans-3d" transform="translate(78.662109 0.765625)"/>
      <use xlink:href="#DejaVuSans-31" transform="translate(181.933594 0.765625)"/>
      <use xlink:href="#DejaVuSans-30" transform="translate(245.556641 0.765625)"/>
      <use xlink:href="#DejaVuSans-33" transform="translate(310.136719 39.046875) scale(0.7)"/>
     </g>
    </g>
    <g id="line2d_23">
     <path d="M 341.92 98.604813 
L 351.92 98.604813 
L 361.92 98.604813 
" style="fill: none; stroke: #d62728; stroke-width: 1.5; stroke-linecap: square"/>
     <g>
      <use xlink:href="#mddbc0171d7" x="351.92" y="98.604813" style="fill: #d62728; stroke: #d62728"/>
     </g>
    </g>
    <g id="text_18">
     <!-- $\lambda = 10^4$ -->
     <g transform="translate(369.92 102.104813) scale(0.1 -0.1)">
      <use xlink:href="#DejaVuSans-Oblique-3bb" transform="translate(0 0.684375)"/>
      <use xlink:href="#DejaVuSans-3d" transform="translate(78.662109 0.684375)"/>
      <use xlink:href="#DejaVuSans-31" transform="translate(181.933594 0.684375)"/>
      <use xlink:href="#DejaVuSans-30" transform="translate(245.556641 0.684375)"/>
      <use xlink:href="#DejaVuSans-34" transform="translate(310.136719 38.965625) scale(0.7)"/>
     </g>
    </g>
    <g id="line2d_24">
     <path d="M 341.92 113.282938 
L 351.92 113.282938 
L 361.92 113.282938 
" style="fill: none; stroke: #9467bd; stroke-width: 1.5; stroke-linecap: square"/>
     <g>
      <use xlink:href="#mdfabd6591f" x="351.92" y="113.282938" style="fill: #9467bd; stroke: #9467bd"/>
     </g>
    </g>
    <g id="text_19">
     <!-- $\lambda = 10^5$ -->
     <g transform="translate(369.92 116.782938) scale(0.1 -0.1)">
      <use xlink:href="#DejaVuSans-Oblique-3bb" transform="translate(0 0.684375)"/>
      <use xlink:href="#DejaVuSans-3d" transform="translate(78.662109 0.684375)"/>
      <use xlink:href="#DejaVuSans-31" transform="translate(181.933594 0.684375)"/>
      <use xlink:href="#DejaVuSans-30" transform="translate(245.556641 0.684375)"/>
      <use xlink:href="#DejaVuSans-35" transform="translate(310.136719 38.965625) scale(0.7)"/>
     </g>
    </g>
    <g id="line2d_25">
     <path d="M 341.92 127.961063 
L 351.92 127.961063 
L 361.92 127.961063 
" style="fill: none; stroke: #8c564b; stroke-width: 1.5; stroke-linecap: square"/>
     <g>
      <use xlink:href="#m627dc3175e" x="351.92" y="127.961063" style="fill: #8c564b; stroke: #8c564b"/>
     </g>
    </g>
    <g id="text_20">
     <!-- $\lambda = 10^6$ -->
     <g transform="translate(369.92 131.461063) scale(0.1 -0.1)">
      <use xlink:href="#DejaVuSans-Oblique-3bb" transform="translate(0 0.765625)"/>
      <use xlink:href="#DejaVuSans-3d" transform="translate(78.662109 0.765625)"/>
      <use xlink:href="#DejaVuSans-31" transform="translate(181.933594 0.765625)"/>
      <use xlink:href="#DejaVuSans-30" transform="translate(245.556641 0.765625)"/>
      <use xlink:href="#DejaVuSans-36" transform="translate(310.136719 39.046875) scale(0.7)"/>
     </g>
    </g>
   </g>
  </g>
 </g>
 <defs>
  <clipPath id="p2a9198d4e5">
   <rect x="57.6" y="41.472" width="357.12" height="266.112"/>
  </clipPath>
 </defs>
</svg>
