<svg viewBox="-853.5 -478 1707 956" width="1707" height="956" style="background-color: rgb(255, 255, 255);" xmlns="http://www.w3.org/2000/svg"><path d="M-342.78436353721196,200.54077925432668L-344.8155767208245,200.4247570137223M-344.81557672082454,-450.87203464027294L-344.8155767208245,200.4247570137223M-344.8155767208245,200.4247570137223L-505.19618884934897,350.892998291747M-342.784363537212,-450.7560123996686L-342.78436353721196,200.54077925432668M-342.78436353721196,200.54077925432668L-503.1649756657364,351.00902053235137" style="fill:none;stroke:rgb(0,0,0);stroke-width:1;stroke-linecap:round"></path><path d="M-342.784363537212,200.54077925432662L-344.81557672082454,200.4247570137223L-344.81557672082454,-450.87203464027294z" style="fill:rgb(238,238,238); fill-opacity: 0.27"></path><path d="M-259.3723453490685,174.57601792362664L-271.5596244507437,173.8798844800008M-271.5596244507437,-396.00480821724506L-271.5596244507437,173.8798844800008M-271.5596244507437,173.8798844800008L-411.8926600632025,305.5395955982724M-259.3723453490685,-395.30867477361915L-259.3723453490685,174.57601792362664M-259.3723453490685,174.57601792362664L-399.70538096152734,306.2357290418983" style="fill:none;stroke:rgb(0,0,0);stroke-width:1;stroke-linecap:round"></path><path d="M-342.784363537212,-450.75601239966863L-342.784363537212,200.54077925432662L-344.81557672082454,-450.87203464027294zM-259.3723453490685,174.57601792362667L-271.5596244507437,173.8798844800008L-271.5596244507437,-396.00480821724506z" style="fill:rgb(238,238,238); fill-opacity: 0.27"></path><path d="M-342.784363537212,-450.7560123996686L-344.81557672082454,-450.87203464027294M-344.81557672082454,-450.87203464027294L-505.19618884934897,-300.4037933622482M-342.784363537212,-450.7560123996686L-503.1649756657364,-300.2877711216439" style="fill:none;stroke:rgb(0,0,0);stroke-width:1;stroke-linecap:round"></path><path d="M-259.3723453490685,-395.3086747736192L-259.3723453490685,174.57601792362667L-271.5596244507437,-396.00480821724506z" style="fill:rgb(238,238,238); fill-opacity: 0.27"></path><path d="M-282.07316422862067,95.9308707123174L-294.26044333029586,95.23473726869156M-294.26044333029586,91.16413232085408L-294.26044333029586,95.23473726869156M-294.26044333029586,95.23473726869156L-295.2628221560991,96.17516377667921M-282.07316422862067,91.86026576447993L-294.26044333029586,91.16413232085408M-294.26044333029586,91.16413232085408L-295.2628221560991,92.10455882884175" style="fill:none;stroke:rgb(0,0,0);stroke-width:1;stroke-linecap:round"></path><path d="M-282.07316422862067,95.93087071231743L-294.26044333029586,95.23473726869157L-294.26044333029586,91.1641323208541zM-294.26044333029586,91.1641323208541L-294.26044333029586,95.23473726869157L-295.2628221560991,92.10455882884177zM-295.2628221560991,96.17516377667923L-294.26044333029586,95.23473726869157L-282.07316422862067,95.93087071231743zM-282.07316422862067,91.86026576447995L-282.07316422862067,95.93087071231743L-294.26044333029586,91.1641323208541z" style="fill:rgb(153,221,255); fill-opacity: 0.81"></path><path d="M-282.07316573324755,91.86027198427855L-282.07316573324755,95.93087693211604M-282.07316573324755,95.93087693211604L-283.0755445590508,96.87130344010369M-282.07316573324755,95.93087693211604L-224.80808245192773,29.555547010455186M-282.07316422862067,91.86026576447993L-282.07316422862067,95.9308707123174M-282.07316422862067,95.9308707123174L-283.075543054424,96.87129722030507" style="fill:none;stroke:rgb(0,0,0);stroke-width:1;stroke-linecap:round"></path><path d="M-294.26044333029586,95.23473726869157L-295.2628221560991,96.17516377667923L-295.2628221560991,92.10455882884177z" style="fill:rgb(153,221,255); fill-opacity: 0.81"></path><path d="M-282.07316573324755,91.86027198427855L-283.0755445590508,92.8006984922662M-282.07316573324755,91.86027198427855L-224.80808245192773,29.555547010455186M-282.07316422862067,91.86026576447993L-283.075543054424,92.80069227246759M-295.2628221560991,92.10455882884175L-295.2628221560991,96.17516377667921M-295.2628221560991,96.17516377667921L-283.075543054424,96.87129722030507" style="fill:none;stroke:rgb(0,0,0);stroke-width:1;stroke-linecap:round"></path><path d="M-283.075543054424,92.80069227246763L-282.07316422862067,91.86026576447995L-294.26044333029586,91.1641323208541zM-283.075543054424,96.87129722030508L-282.07316422862067,95.93087071231743L-282.07316422862067,91.86026576447995z" style="fill:rgb(153,221,255); fill-opacity: 0.81"></path><path d="M-282.07316422862067,91.86026576447995L-282.07316422862067,95.93087071231743L-283.075543054424,96.87129722030508z" style="fill:rgb(255,187,187); fill-opacity: 0.81"></path><path d="M-295.2628221560991,92.10455882884177L-283.075543054424,92.80069227246763L-294.26044333029586,91.1641323208541zM-283.075543054424,96.87129722030508L-295.2628221560991,96.17516377667923L-282.07316422862067,95.93087071231743z" style="fill:rgb(153,221,255); fill-opacity: 0.81"></path><path d="M-295.2628221560991,92.10455882884175L-283.075543054424,92.80069227246759" style="fill:none;stroke:rgb(0,0,0);stroke-width:1;stroke-linecap:round"></path><path d="M-295.2628221560991,92.10455882884177L-295.2628221560991,96.17516377667923L-283.075543054424,92.80069227246763zM-283.075543054424,92.80069227246763L-283.075543054424,96.87129722030508L-282.07316422862067,91.86026576447995z" style="fill:rgb(153,221,255); fill-opacity: 0.81"></path><path d="M-282.07316422862067,91.86026576447995L-283.075543054424,96.87129722030508L-283.075543054424,92.80069227246763z" style="fill:rgb(255,187,187); fill-opacity: 0.81"></path><path d="M-295.2628221560991,96.17516377667923L-283.075543054424,96.87129722030508L-283.075543054424,92.80069227246763z" style="fill:rgb(153,221,255); fill-opacity: 0.81"></path><path d="M-283.0755445590508,96.87130344010369L-283.0755445590508,92.8006984922662M-283.0755445590508,96.87130344010369L-224.80808245192773,29.555547010455186M-283.075543054424,92.80069227246759L-283.075543054424,96.87129722030507M-283.0755445590508,92.8006984922662L-224.80808245192773,29.555547010455186M-259.3723453490685,-395.30867477361915L-271.5596244507437,-396.00480821724506M-271.5596244507437,-396.00480821724506L-411.8926600632025,-264.34509709897344M-259.3723453490685,-395.30867477361915L-399.70538096152734,-263.64896365534764" style="fill:none;stroke:rgb(0,0,0);stroke-width:1;stroke-linecap:round"></path><path d="M-505.19618884934897,350.892998291747L-344.81557672082454,200.4247570137223L-342.784363537212,200.54077925432662z" style="fill:rgb(238,238,238); fill-opacity: 0.27"></path><path d="M-282.07316422862067,95.93087071231743L-282.07316422862067,91.86026576447995L-224.80808105390898,29.555543937438333zM-283.075543054424,96.87129722030508L-282.07316422862067,95.93087071231743L-224.80808105390898,29.555543937438333zM-282.07316422862067,91.86026576447995L-283.075543054424,92.80069227246763L-224.80808105390898,29.555543937438333zM-283.075543054424,92.80069227246763L-283.075543054424,96.87129722030508L-224.80808105390898,29.555543937438333z" style="fill:rgb(255,187,187); fill-opacity: 0.81"></path><path d="M-411.8926600632025,305.5395955982724L-271.5596244507437,173.8798844800008L-259.3723453490685,174.57601792362667zM-503.1649756657364,351.0090205323513L-342.784363537212,200.54077925432662L-342.784363537212,-450.75601239966863z" style="fill:rgb(238,238,238); fill-opacity: 0.27"></path><path d="M-201.01979780600692,70.35679559668127L-213.20707690768208,69.66066215305541M-213.20707690768208,-215.2816841955675L-213.20707690768208,69.66066215305541M-213.20707690768208,69.66066215305541L-283.3735947139115,135.4905177121912M-201.01979780600692,-214.58555075194167L-201.01979780600692,70.35679559668127M-201.01979780600692,70.35679559668127L-271.18631561223634,136.18665115581703" style="fill:none;stroke:rgb(0,0,0);stroke-width:1;stroke-linecap:round"></path><path d="M-201.01979780600692,70.35679559668127L-213.20707690768208,69.66066215305541L-213.20707690768208,-215.2816841955675zM-399.70538096152734,306.23572904189825L-259.3723453490685,174.57601792362667L-259.3723453490685,-395.3086747736192zM-201.01979780600692,-214.58555075194167L-201.01979780600692,70.35679559668127L-213.20707690768208,-215.2816841955675zM-344.81557672082454,-450.87203464027294L-344.81557672082454,200.4247570137223L-505.19618884934897,-300.4037933622482z" style="fill:rgb(238,238,238); fill-opacity: 0.27"></path><path d="M-201.01979780600692,-214.58555075194167L-213.20707690768208,-215.2816841955675M-213.20707690768208,-215.2816841955675L-283.37359471391153,-149.45182863643174M-201.01979780600692,-214.58555075194167L-271.18631561223634,-148.75569519280586M-97.2956477817381,45.55225667202435L-129.79505871953856,43.695900822355405M-129.7950587195386,-159.83434656951812L-129.79505871953856,43.695900822355405M-129.79505871953856,43.695900822355405L-179.91400000970242,90.71722622173812M-97.29564778173811,-157.97799071984917L-97.2956477817381,45.55225667202435M-97.2956477817381,45.55225667202435L-147.41458907190196,92.57358207140706" style="fill:none;stroke:rgb(0,0,0);stroke-width:1;stroke-linecap:round"></path><path d="M-271.5596244507437,-396.00480821724506L-271.5596244507437,173.8798844800008L-411.8926600632025,-264.34509709897344zM-97.2956477817381,45.55225667202434L-129.79505871953856,43.69590082235541L-129.7950587195386,-159.83434656951812zM-283.3735947139115,135.4905177121912L-213.20707690768208,69.66066215305541L-201.01979780600692,70.35679559668127zM-503.1649756657364,-300.28777112164397L-342.784363537212,-450.75601239966863L-344.81557672082454,-450.87203464027294z" style="fill:rgb(238,238,238); fill-opacity: 0.27"></path><path d="M-219.03257654710802,-48.9934542632307L-231.2198556487832,-49.68958770685655M-231.2198556487832,-59.86610007645022L-231.2198556487832,-49.68958770685655M-231.2198556487832,-49.68958770685655L-233.72580271329136,-47.33852143688742" style="fill:none;stroke:rgb(0,0,0);stroke-width:1;stroke-linecap:round"></path><path d="M-219.032576547108,-48.99345426323071L-231.21985564878315,-49.68958770685656L-231.21985564878315,-59.86610007645024z" style="fill:rgb(153,221,255); fill-opacity: 0.81"></path><path d="M-219.03257654710802,-59.16996663282438L-231.2198556487832,-59.86610007645022M-231.2198556487832,-59.86610007645022L-233.72580271329136,-57.51503380648109M-219.03257654710802,-59.16996663282438L-219.03257654710802,-48.9934542632307M-219.03257654710802,-48.9934542632307L-221.5385236116162,-46.642387993261565M-219.03257841088347,-59.16996618515954L-219.03257841088347,-48.993453572938904M-219.03257841088347,-48.993453572938904L-221.5385245194487,-46.64238819983038M-219.03257841088347,-48.993453572938904L-143.55631564471147,-44.34908000630346" style="fill:none;stroke:rgb(0,0,0);stroke-width:1;stroke-linecap:round"></path><path d="M-219.032576547108,-59.169966632824384L-219.032576547108,-48.99345426323071L-231.21985564878315,-59.86610007645024zM-233.72580271329136,-47.33852143688742L-231.21985564878315,-49.68958770685656L-219.032576547108,-48.99345426323071zM-231.21985564878315,-59.86610007645024L-231.21985564878315,-49.68958770685656L-233.72580271329136,-57.5150338064811z" style="fill:rgb(153,221,255); fill-opacity: 0.81"></path><path d="M-219.03257654710802,-59.16996663282438L-221.5385236116162,-56.818900362855246M-219.03257841088347,-59.16996618515954L-221.5385245194487,-56.81890081205102M-219.03257841088347,-59.16996618515954L-143.55631564471147,-44.34908000630346" style="fill:none;stroke:rgb(0,0,0);stroke-width:1;stroke-linecap:round"></path><path d="M-97.29564778173813,-157.97799071984917L-97.2956477817381,45.55225667202434L-129.7950587195386,-159.83434656951812z" style="fill:rgb(238,238,238); fill-opacity: 0.27"></path><path d="M-221.5385236116162,-46.64238799326157L-219.032576547108,-48.99345426323071L-219.032576547108,-59.169966632824384z" style="fill:rgb(153,221,255); fill-opacity: 0.81"></path><path d="M-219.032576547108,-59.169966632824384L-219.032576547108,-48.99345426323071L-221.5385236116162,-46.64238799326157z" style="fill:rgb(255,187,187); fill-opacity: 0.81"></path><path d="M-231.21985564878315,-49.68958770685656L-233.72580271329136,-47.33852143688742L-233.72580271329136,-57.5150338064811zM-221.5385236116162,-56.818900362855246L-219.032576547108,-59.169966632824384L-231.21985564878315,-59.86610007645024zM-221.5385236116162,-46.64238799326157L-233.72580271329136,-47.33852143688742L-219.032576547108,-48.99345426323071z" style="fill:rgb(153,221,255); fill-opacity: 0.81"></path><path d="M-233.72580271329136,-57.51503380648109L-233.72580271329136,-47.33852143688742M-233.72580271329136,-47.33852143688742L-221.5385236116162,-46.642387993261565" style="fill:none;stroke:rgb(0,0,0);stroke-width:1;stroke-linecap:round"></path><path d="M-233.72580271329136,-57.5150338064811L-221.5385236116162,-56.818900362855246L-231.21985564878315,-59.86610007645024zM-221.5385236116162,-56.818900362855246L-221.5385236116162,-46.64238799326157L-219.032576547108,-59.169966632824384z" style="fill:rgb(153,221,255); fill-opacity: 0.81"></path><path d="M-219.032576547108,-59.169966632824384L-221.5385236116162,-46.64238799326157L-221.5385236116162,-56.818900362855246z" style="fill:rgb(255,187,187); fill-opacity: 0.81"></path><path d="M-233.72580271329136,-57.51503380648109L-221.5385236116162,-56.818900362855246" style="fill:none;stroke:rgb(0,0,0);stroke-width:1;stroke-linecap:round"></path><path d="M-233.72580271329136,-57.5150338064811L-233.72580271329136,-47.33852143688742L-221.5385236116162,-56.818900362855246zM-233.72580271329136,-47.33852143688742L-221.5385236116162,-46.64238799326157L-221.5385236116162,-56.818900362855246z" style="fill:rgb(153,221,255); fill-opacity: 0.81"></path><path d="M-221.5385245194487,-46.64238819983038L-221.5385245194487,-56.81890081205102M-221.5385245194487,-46.64238819983038L-143.55631564471147,-44.34908000630346M-221.5385236116162,-56.818900362855246L-221.5385236116162,-46.642387993261565" style="fill:none;stroke:rgb(0,0,0);stroke-width:1;stroke-linecap:round"></path><path d="M-271.18631561223634,136.18665115581703L-201.01979780600692,70.35679559668127L-201.01979780600692,-214.58555075194167z" style="fill:rgb(238,238,238); fill-opacity: 0.27"></path><path d="M-221.5385245194487,-56.81890081205102L-143.55631564471147,-44.34908000630346M-97.29564778173811,-157.97799071984917L-129.7950587195386,-159.83434656951812M-129.7950587195386,-159.83434656951812L-179.91400000970245,-112.81302117013539" style="fill:none;stroke:rgb(0,0,0);stroke-width:1;stroke-linecap:round"></path><path d="M-219.032576547108,-48.99345426323071L-219.032576547108,-59.169966632824384L-143.5563103433637,-44.34907982744761zM-221.5385236116162,-46.64238799326157L-219.032576547108,-48.99345426323071L-143.5563103433637,-44.34907982744761zM-219.032576547108,-59.169966632824384L-221.5385236116162,-56.818900362855246L-143.5563103433637,-44.34907982744761z" style="fill:rgb(255,187,187); fill-opacity: 0.81"></path><path d="M-399.70538096152734,-263.64896365534764L-259.3723453490685,-395.3086747736192L-271.5596244507437,-396.00480821724506z" style="fill:rgb(238,238,238); fill-opacity: 0.27"></path><path d="M-97.29564778173811,-157.97799071984917L-147.414589071902,-110.95666532046646" style="fill:none;stroke:rgb(0,0,0);stroke-width:1;stroke-linecap:round"></path><path d="M-221.5385236116162,-56.818900362855246L-221.5385236116162,-46.64238799326157L-143.5563103433637,-44.34907982744761z" style="fill:rgb(255,187,187); fill-opacity: 0.81"></path><path d="M-101.96008108751461,-130.8058743767168L-134.45949202531506,-132.6622302263857M-134.45949202531506,-136.7328351742232L-134.45949202531506,-132.6622302263857M-134.45949202531506,-132.6622302263857L-135.46187085111833,-131.72180371839806M-101.96008108751461,-134.87647932455425L-134.45949202531506,-136.7328351742232M-134.45949202531506,-136.7328351742232L-135.46187085111833,-135.79240866623553" style="fill:none;stroke:rgb(0,0,0);stroke-width:1;stroke-linecap:round"></path><path d="M-134.45949202531506,-136.73283517422317L-134.45949202531506,-132.66223022638567L-135.46187085111833,-135.7924086662355zM-101.96008108751461,-130.8058743767168L-134.45949202531506,-132.66223022638567L-134.45949202531506,-136.73283517422317zM-134.45949202531506,-132.66223022638567L-135.46187085111833,-131.72180371839804L-135.46187085111833,-135.7924086662355zM-135.46187085111833,-131.72180371839804L-134.45949202531506,-132.66223022638567L-101.96008108751461,-130.8058743767168z" style="fill:rgb(153,221,255); fill-opacity: 0.81"></path><path d="M-135.46187085111833,-135.79240866623553L-135.46187085111833,-131.72180371839806M-135.46187085111833,-131.72180371839806L-102.9624599133179,-129.86544786872912" style="fill:none;stroke:rgb(0,0,0);stroke-width:1;stroke-linecap:round"></path><path d="M-213.20707690768208,-215.2816841955675L-213.20707690768208,69.66066215305541L-283.37359471391153,-149.45182863643174z" style="fill:rgb(238,238,238); fill-opacity: 0.27"></path><path d="M138.58963683737497,384.2749602357305L97.96537316512439,381.95451542364435M97.96537316512436,-432.16647414384965L97.96537316512439,381.95451542364435M97.96537316512439,381.95451542364435L87.94158490709161,391.3587805035209M-135.46187085111833,-135.79240866623553L-102.9624599133179,-133.93605281656662" style="fill:none;stroke:rgb(0,0,0);stroke-width:1;stroke-linecap:round"></path><path d="M-101.96008108751461,-134.87647932455423L-101.96008108751461,-130.8058743767168L-134.45949202531506,-136.73283517422317zM-135.46187085111833,-135.7924086662355L-102.9624599133179,-133.9360528165666L-134.45949202531506,-136.73283517422317z" style="fill:rgb(153,221,255); fill-opacity: 0.81"></path><path d="M-179.91400000970242,90.71722622173812L-129.79505871953856,43.69590082235541L-97.2956477817381,45.55225667202434z" style="fill:rgb(238,238,238); fill-opacity: 0.27"></path><path d="M-135.46187085111833,-135.7924086662355L-135.46187085111833,-131.72180371839804L-102.9624599133179,-133.9360528165666zM-102.9624599133179,-133.9360528165666L-101.96008108751461,-134.87647932455423L-134.45949202531506,-136.73283517422317z" style="fill:rgb(153,221,255); fill-opacity: 0.81"></path><path d="M-101.96008667168599,-134.87647736971508L-101.96008667168599,-130.80587242187764M-101.96008667168599,-130.80587242187764L-102.96246549748926,-129.86544591388994M-101.96008667168599,-130.80587242187764L-31.159672494023816,-77.89569350636938M-101.96008108751461,-134.87647932455425L-101.96008108751461,-130.8058743767168M-101.96008108751461,-130.8058743767168L-102.9624599133179,-129.86544786872912" style="fill:none;stroke:rgb(0,0,0);stroke-width:1;stroke-linecap:round"></path><path d="M-102.9624599133179,-129.8654478687291L-135.46187085111833,-131.72180371839804L-101.96008108751461,-130.8058743767168z" style="fill:rgb(153,221,255); fill-opacity: 0.81"></path><path d="M-101.96008667168599,-134.87647736971508L-102.96246549748926,-133.93605086172744M-101.96008667168599,-134.87647736971508L-31.159672494023816,-77.89569350636938M-101.96008108751461,-134.87647932455425L-102.9624599133179,-133.93605281656662" style="fill:none;stroke:rgb(0,0,0);stroke-width:1;stroke-linecap:round"></path><path d="M-102.9624599133179,-129.8654478687291L-101.96008108751461,-130.8058743767168L-101.96008108751461,-134.87647932455423z" style="fill:rgb(153,221,255); fill-opacity: 0.81"></path><path d="M-101.96008108751461,-134.87647932455423L-101.96008108751461,-130.8058743767168L-102.9624599133179,-129.8654478687291z" style="fill:rgb(255,187,187); fill-opacity: 0.81"></path><path d="M-135.46187085111833,-131.72180371839804L-102.9624599133179,-129.8654478687291L-102.9624599133179,-133.9360528165666zM-102.9624599133179,-133.9360528165666L-102.9624599133179,-129.8654478687291L-101.96008108751461,-134.87647932455423z" style="fill:rgb(153,221,255); fill-opacity: 0.81"></path><path d="M-101.96008108751461,-134.87647932455423L-102.9624599133179,-129.8654478687291L-102.9624599133179,-133.9360528165666z" style="fill:rgb(255,187,187); fill-opacity: 0.81"></path><path d="M-102.96246549748926,-129.86544591388994L-102.96246549748926,-133.93605086172744M-102.96246549748926,-129.86544591388994L-31.159672494023816,-77.89569350636938M-102.9624599133179,-133.93605281656662L-102.9624599133179,-129.86544786872912M-102.96246549748926,-133.93605086172744L-31.159672494023816,-77.89569350636938M138.58963683737494,-429.84602933176353L138.58963683737497,384.2749602357305M138.58963683737497,384.2749602357305L128.56584857934217,393.679225315607" style="fill:none;stroke:rgb(0,0,0);stroke-width:1;stroke-linecap:round"></path><path d="M87.94158490709161,391.3587805035209L97.96537316512438,381.95451542364435L138.58963683737494,384.2749602357305zM-503.1649756657364,351.0090205323513L-505.19618884934897,350.892998291747L-342.784363537212,200.54077925432662z" style="fill:rgb(238,238,238); fill-opacity: 0.27"></path><path d="M-101.96008108751461,-130.8058743767168L-101.96008108751461,-134.87647932455423L-31.15966711911702,-77.89569433625906zM-102.9624599133179,-129.8654478687291L-101.96008108751461,-130.8058743767168L-31.15966711911702,-77.89569433625906zM-101.96008108751461,-134.87647932455423L-102.9624599133179,-133.9360528165666L-31.15966711911702,-77.89569433625906z" style="fill:rgb(255,187,187); fill-opacity: 0.81"></path><path d="M3.9225551780225505,12.92227164774289L-28.5768557597779,11.065915798073965M-28.576855759777906,-90.6992078978628L-28.5768557597779,11.065915798073965M-28.5768557597779,11.065915798073965L-53.63632640485984,34.57657849776532" style="fill:none;stroke:rgb(0,0,0);stroke-width:1;stroke-linecap:round"></path><path d="M-102.9624599133179,-133.9360528165666L-102.9624599133179,-129.8654478687291L-31.15966711911702,-77.89569433625906z" style="fill:rgb(255,187,187); fill-opacity: 0.81"></path><path d="M-147.41458907190196,92.57358207140706L-97.2956477817381,45.55225667202434L-97.29564778173813,-157.97799071984917zM-271.18631561223634,-148.75569519280586L-201.01979780600692,-214.58555075194167L-213.20707690768208,-215.2816841955675z" style="fill:rgb(238,238,238); fill-opacity: 0.27"></path><path d="M3.9225551780225447,-88.84285204819386L3.9225551780225505,12.92227164774289M3.9225551780225505,12.92227164774289L-21.13691546705939,36.432934347434255" style="fill:none;stroke:rgb(0,0,0);stroke-width:1;stroke-linecap:round"></path><path d="M-129.7950587195386,-159.83434656951812L-129.79505871953856,43.69590082235541L-179.91400000970245,-112.81302117013537zM128.56584857934217,393.679225315607L87.94158490709161,391.3587805035209L138.58963683737494,384.2749602357305zM3.9225551780225625,12.92227164774289L-28.57685575977789,11.065915798073965L-28.57685575977789,-90.69920789786279zM-399.70538096152734,306.23572904189825L-411.8926600632025,305.5395955982724L-259.3723453490685,174.57601792362667z" style="fill:rgb(238,238,238); fill-opacity: 0.27"></path><path d="M87.94158490709158,-422.7622090639731L87.94158490709161,391.3587805035209M87.94158490709161,391.3587805035209L128.56584857934217,393.679225315607" style="fill:none;stroke:rgb(0,0,0);stroke-width:1;stroke-linecap:round"></path><path d="M3.9225551780225625,-88.84285204819386L3.9225551780225625,12.92227164774289L-28.57685575977789,-90.69920789786279z" style="fill:rgb(238,238,238); fill-opacity: 0.27"></path><path d="M3.9225551780225447,-88.84285204819386L-28.576855759777906,-90.6992078978628M-28.576855759777906,-90.6992078978628L-53.636326404859844,-67.18854519817143" style="fill:none;stroke:rgb(0,0,0);stroke-width:1;stroke-linecap:round"></path><path d="M-271.18631561223634,136.18665115581703L-283.3735947139115,135.4905177121912L-201.01979780600692,70.35679559668127z" style="fill:rgb(238,238,238); fill-opacity: 0.27"></path><path d="M128.56584857934214,-420.441764251887L128.56584857934217,393.679225315607" style="fill:none;stroke:rgb(0,0,0);stroke-width:1;stroke-linecap:round"></path><path d="M-147.414589071902,-110.95666532046646L-97.29564778173813,-157.97799071984917L-129.7950587195386,-159.83434656951812z" style="fill:rgb(238,238,238); fill-opacity: 0.27"></path><path d="M3.9225551780225447,-88.84285204819386L-21.136915467059392,-65.33218934850251" style="fill:none;stroke:rgb(0,0,0);stroke-width:1;stroke-linecap:round"></path><path d="M-53.63632640485986,34.576578497765325L-28.57685575977789,11.065915798073965L3.9225551780225625,12.92227164774289zM138.58963683737494,384.2749602357305L97.96537316512438,381.95451542364435L97.96537316512438,-432.16647414384965zM-213.20707690768208,69.66066215305541L-283.3735947139115,135.4905177121912L-283.37359471391153,-149.45182863643174zM-147.41458907190196,92.57358207140706L-179.91400000970242,90.71722622173812L-97.2956477817381,45.55225667202434zM-21.136915467059406,36.43293434743425L3.9225551780225625,12.92227164774289L3.9225551780225625,-88.84285204819386zM-344.81557672082454,200.4247570137223L-505.19618884934897,350.892998291747L-505.19618884934897,-300.4037933622482zM-28.57685575977789,-90.69920789786279L-28.57685575977789,11.065915798073965L-53.63632640485986,-67.18854519817143zM-271.5596244507437,173.8798844800008L-411.8926600632025,305.5395955982724L-411.8926600632025,-264.34509709897344zM-129.79505871953856,43.69590082235541L-179.91400000970242,90.71722622173812L-179.91400000970245,-112.81302117013537zM-21.136915467059406,-65.33218934850251L3.9225551780225625,-88.84285204819386L-28.57685575977789,-90.69920789786279zM128.56584857934217,393.679225315607L138.58963683737494,384.2749602357305L138.58963683737494,-429.84602933176353zM97.96537316512438,381.95451542364435L87.94158490709161,391.3587805035209L87.94158490709161,-422.7622090639731zM-21.136915467059406,36.43293434743425L-53.63632640485986,34.576578497765325L3.9225551780225625,12.92227164774289zM-271.18631561223634,-148.75569519280586L-271.18631561223634,136.18665115581703L-201.01979780600692,-214.58555075194167zM-28.57685575977789,11.065915798073965L-53.63632640485986,34.576578497765325L-53.63632640485986,-67.18854519817143z" style="fill:rgb(238,238,238); fill-opacity: 0.27"></path><path d="M260.46242785412664,106.29394832336608L219.83816418187607,103.97350351127993M219.83816418187607,-140.26279335896834L219.83816418187607,103.97350351127993M219.83816418187607,103.97350351127993L209.8143759238433,113.37776859115645M13.736164875219387,-24.92871420373242L63.839423404328414,-22.066832268826165" style="fill:none;stroke:rgb(0,0,0);stroke-width:1;stroke-linecap:round"></path><path d="M-147.414589071902,-110.95666532046646L-147.41458907190196,92.57358207140706L-97.29564778173813,-157.97799071984917z" style="fill:rgb(238,238,238); fill-opacity: 0.27"></path><path d="M260.46242785412664,-137.94234854688216L260.46242785412664,106.29394832336608M260.46242785412664,106.29394832336608L250.43863959609385,115.69821340324262" style="fill:none;stroke:rgb(0,0,0);stroke-width:1;stroke-linecap:round"></path><path d="M87.94158490709161,391.3587805035209L128.56584857934217,393.679225315607L128.56584857934217,-420.441764251887z" style="fill:rgb(238,238,238); fill-opacity: 0.27"></path><path d="M64.5759027576949,-26.87427906638555L63.102944050961895,-25.4923570052597L90.92226585249546,-20.51986906076873z" style="fill:rgb(0,0,0)"></path><path d="M-21.136915467059406,-65.33218934850251L-21.136915467059406,36.43293434743425L3.9225551780225625,-88.84285204819386z" style="fill:rgb(238,238,238); fill-opacity: 0.27"></path><path d="M62.647774732015776,-19.37647611819982L63.8394234043284,-16.978576084029328L90.92226585249546,-20.51986906076873z" style="fill:rgb(0,0,0)"></path><path d="M209.81437592384333,113.37776859115645L219.83816418187612,103.9735035112799L260.4624278541267,106.29394832336608z" style="fill:rgb(238,238,238); fill-opacity: 0.27"></path><path d="M63.102944050961895,-25.4923570052597L62.647774732015776,-19.37647611819982L90.92226585249546,-20.51986906076873z" style="fill:rgb(0,0,0)"></path><path d="M-53.63632640485986,-67.18854519817143L-21.136915467059406,-65.33218934850251L-28.57685575977789,-90.69920789786279zM-283.37359471391153,-149.45182863643174L-271.18631561223634,-148.75569519280586L-213.20707690768208,-215.2816841955675zM-179.91400000970245,-112.81302117013537L-147.414589071902,-110.95666532046646L-129.7950587195386,-159.83434656951812zM260.4624278541267,106.29394832336608L219.83816418187612,103.9735035112799L219.838164181876,-140.26279335896834z" style="fill:rgb(238,238,238); fill-opacity: 0.27"></path><path d="M-53.636326404859844,-67.18854519817143L-53.63632640485984,34.57657849776532M-53.63632640485984,34.57657849776532L-21.13691546705939,36.432934347434255" style="fill:none;stroke:rgb(0,0,0);stroke-width:1;stroke-linecap:round"></path><path d="M-503.1649756657364,-300.28777112164397L-503.1649756657364,351.0090205323513L-342.784363537212,-450.75601239966863z" style="fill:rgb(238,238,238); fill-opacity: 0.27"></path><path d="M135.60895589197108,-17.967379767473936L185.7122144210801,-15.105497832567684M-21.136915467059392,-65.33218934850251L-21.13691546705939,36.432934347434255" style="fill:none;stroke:rgb(0,0,0);stroke-width:1;stroke-linecap:round"></path><path d="M250.4386395960939,115.69821340324262L209.81437592384333,113.37776859115645L260.4624278541267,106.29394832336608zM-399.70538096152734,-263.64896365534764L-399.70538096152734,306.23572904189825L-259.3723453490685,-395.3086747736192z" style="fill:rgb(238,238,238); fill-opacity: 0.27"></path><path d="M-179.91400000970245,-112.81302117013539L-179.91400000970242,90.71722622173812M-179.91400000970242,90.71722622173812L-147.41458907190196,92.57358207140706" style="fill:none;stroke:rgb(0,0,0);stroke-width:1;stroke-linecap:round"></path><path d="M-53.63632640485986,34.576578497765325L-21.136915467059406,36.43293434743425L-21.136915467059406,-65.33218934850251z" style="fill:rgb(238,238,238); fill-opacity: 0.27"></path><path d="M382.3352188708783,76.6198382290873L341.71095519862774,74.29939341700116M341.71095519862774,-96.6660143921726L341.71095519862774,74.29939341700116M341.71095519862774,74.29939341700116L331.687166940595,83.70365849687771" style="fill:none;stroke:rgb(0,0,0);stroke-width:1;stroke-linecap:round"></path><path d="M138.58963683737494,-429.84602933176353L138.58963683737494,384.2749602357305L97.96537316512438,-432.16647414384965z" style="fill:rgb(238,238,238); fill-opacity: 0.27"></path><path d="M209.8143759238433,-130.85852827909176L209.8143759238433,113.37776859115645M209.8143759238433,113.37776859115645L250.43863959609385,115.69821340324262M-283.37359471391153,-149.45182863643174L-283.3735947139115,135.4905177121912M-283.3735947139115,135.4905177121912L-271.18631561223634,136.18665115581703" style="fill:none;stroke:rgb(0,0,0);stroke-width:1;stroke-linecap:round"></path><path d="M250.4386395960939,115.69821340324262L260.4624278541267,106.29394832336608L260.4624278541266,-137.94234854688216z" style="fill:rgb(238,238,238); fill-opacity: 0.27"></path><path d="M-147.414589071902,-110.95666532046646L-147.41458907190196,92.57358207140706" style="fill:none;stroke:rgb(0,0,0);stroke-width:1;stroke-linecap:round"></path><path d="M-53.63632640485986,-67.18854519817143L-53.63632640485986,34.576578497765325L-21.136915467059406,-65.33218934850251z" style="fill:rgb(238,238,238); fill-opacity: 0.27"></path><path d="M186.4486937744466,-19.912944630127072L184.9757350677136,-18.53102256900122L212.7950568692471,-13.55853462451025z" style="fill:rgb(0,0,0)"></path><path d="M-271.18631561223634,-148.75569519280586L-271.18631561223634,136.18665115581703" style="fill:none;stroke:rgb(0,0,0);stroke-width:1;stroke-linecap:round"></path><path d="M184.52056574876747,-12.415141681941341L185.7122144210801,-10.01724164777085L212.7950568692471,-13.55853462451025z" style="fill:rgb(0,0,0)"></path><path d="M260.4624278541266,-137.94234854688216L260.4624278541267,106.29394832336608L219.838164181876,-140.26279335896834zM97.96537316512438,-432.16647414384965L97.96537316512438,381.95451542364435L87.94158490709161,-422.7622090639731zM219.83816418187612,103.9735035112799L209.81437592384333,113.37776859115645L209.81437592384324,-130.8585282790918z" style="fill:rgb(238,238,238); fill-opacity: 0.27"></path><path d="M184.9757350677136,-18.53102256900122L184.52056574876747,-12.415141681941341L212.7950568692471,-13.55853462451025z" style="fill:rgb(0,0,0)"></path><path d="M382.3352188708783,-94.34556958008645L382.3352188708783,76.6198382290873M382.3352188708783,76.6198382290873L372.3114306128455,86.02410330896384M-53.636326404859844,-67.18854519817143L-21.136915467059392,-65.33218934850251M250.43863959609385,-128.5380834670056L250.43863959609385,115.69821340324262" style="fill:none;stroke:rgb(0,0,0);stroke-width:1;stroke-linecap:round"></path><path d="M219.838164181876,-140.26279335896834L219.83816418187612,103.9735035112799L209.81437592384324,-130.8585282790918zM331.68716694059503,83.70365849687771L341.7109551986278,74.29939341700116L382.33521887087835,76.61983822908732zM382.33521887087835,76.61983822908732L341.7109551986278,74.29939341700116L341.7109551986277,-96.6660143921726zM-179.91400000970242,90.71722622173812L-147.41458907190196,92.57358207140706L-147.414589071902,-110.95666532046646z" style="fill:rgb(238,238,238); fill-opacity: 0.27"></path><path d="M260.46242785412664,-137.94234854688216L219.83816418187607,-140.26279335896834M219.83816418187607,-140.26279335896834L209.8143759238433,-130.85852827909176M257.4817469087227,-11.006045331215457L307.58500543783174,-8.144163396309205" style="fill:none;stroke:rgb(0,0,0);stroke-width:1;stroke-linecap:round"></path><path d="M209.81437592384333,113.37776859115645L250.4386395960939,115.69821340324262L250.43863959609382,-128.5380834670056zM-283.3735947139115,135.4905177121912L-271.18631561223634,136.18665115581703L-271.18631561223634,-148.75569519280586z" style="fill:rgb(238,238,238); fill-opacity: 0.27"></path><path d="M260.46242785412664,-137.94234854688216L250.43863959609385,-128.5380834670056" style="fill:none;stroke:rgb(0,0,0);stroke-width:1;stroke-linecap:round"></path><path d="M128.56584857934217,-420.441764251887L128.56584857934217,393.679225315607L138.58963683737494,-429.84602933176353zM-179.91400000970245,-112.81302117013537L-179.91400000970242,90.71722622173812L-147.414589071902,-110.95666532046646zM372.3114306128456,86.02410330896384L331.68716694059503,83.70365849687771L382.33521887087835,76.61983822908732zM382.3352188708783,-94.34556958008643L382.33521887087835,76.61983822908732L341.7109551986277,-96.6660143921726z" style="fill:rgb(238,238,238); fill-opacity: 0.27"></path><path d="M308.3214847911983,-12.951610193868587L306.8485260844653,-11.569688132742739L334.6678478859988,-6.597200188251773zM306.3933567655192,-5.453807245682858L307.5850054378318,-3.055907211512368L334.6678478859988,-6.597200188251773z" style="fill:rgb(0,0,0)"></path><path d="M372.3114306128456,86.02410330896384L382.33521887087835,76.61983822908732L382.3352188708783,-94.34556958008643zM250.43863959609382,-128.5380834670056L250.4386395960939,115.69821340324262L260.4624278541266,-137.94234854688216zM87.94158490709161,-422.7622090639731L87.94158490709161,391.3587805035209L128.56584857934217,-420.441764251887z" style="fill:rgb(238,238,238); fill-opacity: 0.27"></path><path d="M306.8485260844653,-11.569688132742739L306.3933567655192,-5.453807245682858L334.6678478859988,-6.597200188251773z" style="fill:rgb(0,0,0)"></path><path d="M-411.8926600632025,-264.34509709897344L-399.70538096152734,-263.64896365534764L-271.5596244507437,-396.00480821724506z" style="fill:rgb(238,238,238); fill-opacity: 0.27"></path><path d="M331.687166940595,-87.26174931229605L331.687166940595,83.70365849687771M331.687166940595,83.70365849687771L372.3114306128455,86.02410330896384" style="fill:none;stroke:rgb(0,0,0);stroke-width:1;stroke-linecap:round"></path><path d="M250.43863959609382,-128.5380834670056L260.4624278541266,-137.94234854688216L219.838164181876,-140.26279335896834zM341.7109551986278,74.29939341700116L331.68716694059503,83.70365849687771L331.6871669405949,-87.26174931229605zM341.7109551986277,-96.6660143921726L341.7109551986278,74.29939341700116L331.6871669405949,-87.26174931229605zM-505.19618884934897,-300.4037933622482L-503.1649756657364,-300.28777112164397L-344.81557672082454,-450.87203464027294z" style="fill:rgb(238,238,238); fill-opacity: 0.27"></path><path d="M382.3352188708783,-94.34556958008645L341.71095519862774,-96.6660143921726M341.71095519862774,-96.6660143921726L331.687166940595,-87.26174931229605" style="fill:none;stroke:rgb(0,0,0);stroke-width:1;stroke-linecap:round"></path><path d="M209.81437592384324,-130.8585282790918L209.81437592384333,113.37776859115645L250.43863959609382,-128.5380834670056z" style="fill:rgb(238,238,238); fill-opacity: 0.27"></path><path d="M-179.91400000970245,-112.81302117013539L-147.414589071902,-110.95666532046646M504.20800988763,8.274981130352597L463.58374621537945,5.954536318266436M463.58374621537945,-14.398488420920913L463.58374621537945,5.954536318266436M463.58374621537945,5.954536318266436L453.55995795734657,15.358801398142981M372.3114306128455,-84.9413045002099L372.3114306128455,86.02410330896384" style="fill:none;stroke:rgb(0,0,0);stroke-width:1;stroke-linecap:round"></path><path d="M209.81437592384324,-130.8585282790918L250.43863959609382,-128.5380834670056L219.838164181876,-140.26279335896834zM-283.37359471391153,-149.45182863643174L-283.3735947139115,135.4905177121912L-271.18631561223634,-148.75569519280586z" style="fill:rgb(238,238,238); fill-opacity: 0.27"></path><path d="M379.3545379254744,-4.044710894956975L429.45779645458344,-1.1828289600507222M382.3352188708783,-94.34556958008645L372.3114306128455,-84.9413045002099M504.20800988763,-12.078043608834754L463.58374621537945,-14.398488420920913M463.58374621537945,-14.398488420920913L453.55995795734657,-4.994223341044373" style="fill:none;stroke:rgb(0,0,0);stroke-width:1;stroke-linecap:round"></path><path d="M504.20800988763,8.274981130352598L463.58374621537945,5.954536318266438L463.58374621537945,-14.398488420920916zM504.20800988763,-12.078043608834756L504.20800988763,8.274981130352598L463.58374621537945,-14.398488420920916z" style="fill:rgb(238,238,238); fill-opacity: 0.27"></path><path d="M504.20800988763,-12.078043608834754L504.20800988763,8.274981130352597M504.20800988763,8.274981130352597L494.1842216295972,17.679246210229138M138.58963683737494,-429.84602933176353L97.96537316512436,-432.16647414384965M97.96537316512436,-432.16647414384965L87.94158490709158,-422.7622090639731" style="fill:none;stroke:rgb(0,0,0);stroke-width:1;stroke-linecap:round"></path><path d="M331.68716694059503,83.70365849687771L372.3114306128456,86.02410330896384L372.3114306128455,-84.94130450020988z" style="fill:rgb(238,238,238); fill-opacity: 0.27"></path><path d="M209.8143759238433,-130.85852827909176L250.43863959609385,-128.5380834670056" style="fill:none;stroke:rgb(0,0,0);stroke-width:1;stroke-linecap:round"></path><path d="M372.3114306128455,-84.94130450020988L382.3352188708783,-94.34556958008643L341.7109551986277,-96.6660143921726z" style="fill:rgb(238,238,238); fill-opacity: 0.27"></path><path d="M504.20800988763,-12.078043608834754L494.1842216295972,-2.673778528958212" style="fill:none;stroke:rgb(0,0,0);stroke-width:1;stroke-linecap:round"></path><path d="M372.3114306128455,-84.94130450020988L372.3114306128456,86.02410330896384L382.3352188708783,-94.34556958008643zM463.58374621537945,-14.398488420920916L463.58374621537945,5.954536318266438L453.55995795734657,-4.994223341044375zM453.55995795734657,15.358801398142981L463.58374621537945,5.954536318266438L504.20800988763,8.274981130352598z" style="fill:rgb(238,238,238); fill-opacity: 0.27"></path><path d="M430.1942758079499,-5.990275757610105L428.7213171012169,-4.608353696484255L456.54063890275046,0.36413424800670324zM428.2661477822709,1.507527190575625L429.4577964545835,3.905427224746115L456.54063890275046,0.36413424800670324zM428.7213171012169,-4.608353696484255L428.2661477822709,1.507527190575625L456.54063890275046,0.36413424800670324z" style="fill:rgb(0,0,0)"></path><path d="M138.58963683737494,-429.84602933176353L128.56584857934214,-420.441764251887" style="fill:none;stroke:rgb(0,0,0);stroke-width:1;stroke-linecap:round"></path><path d="M331.6871669405949,-87.26174931229605L331.68716694059503,83.70365849687771L372.3114306128455,-84.94130450020988zM331.6871669405949,-87.26174931229605L372.3114306128455,-84.94130450020988L341.7109551986277,-96.6660143921726zM494.1842216295972,-2.6737785289582137L504.20800988763,-12.078043608834756L463.58374621537945,-14.398488420920916zM494.1842216295972,17.67924621022914L504.20800988763,8.274981130352598L504.20800988763,-12.078043608834756z" style="fill:rgb(238,238,238); fill-opacity: 0.27"></path><path d="M-283.37359471391153,-149.45182863643174L-271.18631561223634,-148.75569519280586" style="fill:none;stroke:rgb(0,0,0);stroke-width:1;stroke-linecap:round"></path><path d="M463.58374621537945,5.954536318266438L453.55995795734657,15.358801398142981L453.55995795734657,-4.994223341044375zM128.56584857934217,-420.441764251887L138.58963683737494,-429.84602933176353L97.96537316512438,-432.16647414384965zM494.1842216295972,17.67924621022914L453.55995795734657,15.358801398142981L504.20800988763,8.274981130352598z" style="fill:rgb(238,238,238); fill-opacity: 0.27"></path><path d="M331.687166940595,-87.26174931229605L372.3114306128455,-84.9413045002099" style="fill:none;stroke:rgb(0,0,0);stroke-width:1;stroke-linecap:round"></path><path d="M453.55995795734657,-4.994223341044375L494.1842216295972,-2.6737785289582137L463.58374621537945,-14.398488420920916z" style="fill:rgb(238,238,238); fill-opacity: 0.27"></path><path d="M-479.19839768979915,-50.14397164704016L-392.0182519905104,-39.98845907209641M-479.19839768979915,-39.96745927744649L-392.0182519905104,-39.98845907209641M-481.70434475430733,-37.61639300747735L-392.0182519905104,-39.98845907209641M-481.70434475430733,-47.79290537707102L-392.0182519905104,-39.98845907209641M-411.8926600632025,-264.34509709897344L-411.8926600632025,305.5395955982724M-411.8926600632025,305.5395955982724L-399.70538096152734,306.2357290418983" style="fill:none;stroke:rgb(0,0,0);stroke-width:1;stroke-linecap:round"></path><path d="M494.1842216295972,-2.6737785289582137L494.1842216295972,17.67924621022914L504.20800988763,-12.078043608834756z" style="fill:rgb(238,238,238); fill-opacity: 0.27"></path><path d="M453.55995795734657,-4.994223341044373L453.55995795734657,15.358801398142981M453.55995795734657,15.358801398142981L494.1842216295972,17.679246210229138" style="fill:none;stroke:rgb(0,0,0);stroke-width:1;stroke-linecap:round"></path><path d="M87.94158490709161,-422.7622090639731L128.56584857934217,-420.441764251887L97.96537316512438,-432.16647414384965z" style="fill:rgb(238,238,238); fill-opacity: 0.27"></path><path d="M-399.70538096152734,-263.64896365534764L-399.70538096152734,306.2357290418983" style="fill:none;stroke:rgb(0,0,0);stroke-width:1;stroke-linecap:round"></path><path d="M-479.19839164040366,-39.96745978429878L-479.19839164040366,-50.143972153892456L-392.0182508817587,-39.98845734738218z" style="fill:rgb(255,187,187); fill-opacity: 0.81"></path><path d="M-479.19839164040366,-39.96745978429878L-481.2296048240161,-40.08348202490309M-481.2296048240161,-50.259994394496765L-481.2296048240161,-40.08348202490309M-481.2296048240161,-40.08348202490309L-483.7355518885243,-37.73241575493395M-479.19839164040366,-50.143972153892456L-479.19839164040366,-39.96745978429878M-479.19839164040366,-39.96745978429878L-481.70433870491183,-37.616393514329644M-479.19839768979915,-50.14397164704016L-479.19839768979915,-39.96745927744649M-479.19839768979915,-39.96745927744649L-481.70434475430733,-37.61639300747735" style="fill:none;stroke:rgb(0,0,0);stroke-width:1;stroke-linecap:round"></path><path d="M-479.19839164040366,-39.96745978429878L-481.22960482401623,-40.08348202490309L-481.22960482401623,-50.259994394496765zM-479.19839164040366,-50.143972153892456L-479.19839164040366,-39.96745978429878L-481.22960482401623,-50.259994394496765z" style="fill:rgb(153,221,255); fill-opacity: 0.81"></path><path d="M453.55995795734657,-4.994223341044373L494.1842216295972,-2.673778528958212" style="fill:none;stroke:rgb(0,0,0);stroke-width:1;stroke-linecap:round"></path><path d="M-481.7043387049119,-37.616393514329644L-479.19839164040366,-39.96745978429878L-392.0182508817587,-39.98845734738218z" style="fill:rgb(255,187,187); fill-opacity: 0.81"></path><path d="M-479.19839164040366,-50.143972153892456L-481.2296048240161,-50.259994394496765M-481.2296048240161,-50.259994394496765L-483.7355518885243,-47.90892812452763M-479.19839164040366,-50.143972153892456L-481.70433870491183,-47.79290588392332M-479.19839768979915,-50.14397164704016L-481.70434475430733,-47.79290537707102" style="fill:none;stroke:rgb(0,0,0);stroke-width:1;stroke-linecap:round"></path><path d="M-483.73555188852436,-37.73241575493395L-481.22960482401623,-40.08348202490309L-479.19839164040366,-39.96745978429878z" style="fill:rgb(153,221,255); fill-opacity: 0.81"></path><path d="M-479.19839164040366,-50.143972153892456L-481.7043387049119,-47.79290588392332L-392.0182508817587,-39.98845734738218z" style="fill:rgb(255,187,187); fill-opacity: 0.81"></path><path d="M453.55995795734657,-4.994223341044375L453.55995795734657,15.358801398142981L494.1842216295972,-2.6737785289582137z" style="fill:rgb(238,238,238); fill-opacity: 0.27"></path><path d="M-481.7043387049119,-37.616393514329644L-479.19839164040366,-39.96745978429878L-479.19839164040366,-50.143972153892456z" style="fill:rgb(153,221,255); fill-opacity: 0.81"></path><path d="M-479.19839164040366,-50.143972153892456L-479.19839164040366,-39.96745978429878L-481.7043387049119,-37.616393514329644z" style="fill:rgb(255,187,187); fill-opacity: 0.81"></path><path d="M-481.22960482401623,-50.259994394496765L-481.22960482401623,-40.08348202490309L-483.73555188852436,-47.90892812452763z" style="fill:rgb(153,221,255); fill-opacity: 0.81"></path><path d="M453.55995795734657,15.358801398142981L494.1842216295972,17.67924621022914L494.1842216295972,-2.6737785289582137z" style="fill:rgb(238,238,238); fill-opacity: 0.27"></path><path d="M-481.7043387049119,-47.79290588392332L-479.19839164040366,-50.143972153892456L-481.22960482401623,-50.259994394496765z" style="fill:rgb(153,221,255); fill-opacity: 0.81"></path><path d="M-481.7043387049119,-47.79290588392332L-481.7043387049119,-37.616393514329644L-392.0182508817587,-39.98845734738218z" style="fill:rgb(255,187,187); fill-opacity: 0.81"></path><path d="M-505.19618884934897,-300.4037933622482L-505.19618884934897,350.892998291747M-505.19618884934897,350.892998291747L-503.1649756657364,351.00902053235137" style="fill:none;stroke:rgb(0,0,0);stroke-width:1;stroke-linecap:round"></path><path d="M-481.7043387049119,-37.616393514329644L-483.73555188852436,-37.73241575493395L-479.19839164040366,-39.96745978429878z" style="fill:rgb(153,221,255); fill-opacity: 0.81"></path><path d="M-503.1649756657364,-300.2877711216439L-503.1649756657364,351.00902053235137M494.1842216295972,-2.673778528958212L494.1842216295972,17.679246210229138" style="fill:none;stroke:rgb(0,0,0);stroke-width:1;stroke-linecap:round"></path><path d="M-481.22960482401623,-40.08348202490309L-483.73555188852436,-37.73241575493395L-483.73555188852436,-47.90892812452763zM-481.7043387049119,-47.79290588392332L-481.7043387049119,-37.616393514329644L-479.19839164040366,-50.143972153892456z" style="fill:rgb(153,221,255); fill-opacity: 0.81"></path><path d="M-479.19839164040366,-50.143972153892456L-481.7043387049119,-37.616393514329644L-481.7043387049119,-47.79290588392332z" style="fill:rgb(255,187,187); fill-opacity: 0.81"></path><path d="M87.94158490709158,-422.7622090639731L128.56584857934214,-420.441764251887" style="fill:none;stroke:rgb(0,0,0);stroke-width:1;stroke-linecap:round"></path><path d="M-483.73555188852436,-47.90892812452763L-481.7043387049119,-47.79290588392332L-481.22960482401623,-50.259994394496765z" style="fill:rgb(153,221,255); fill-opacity: 0.81"></path><path d="M-483.7355518885243,-47.90892812452763L-483.7355518885243,-37.73241575493395M-483.7355518885243,-37.73241575493395L-481.70433870491183,-37.616393514329644M-481.70433870491183,-47.79290588392332L-481.70433870491183,-37.616393514329644M-481.70434475430733,-37.61639300747735L-481.70434475430733,-47.79290537707102" style="fill:none;stroke:rgb(0,0,0);stroke-width:1;stroke-linecap:round"></path><path d="M-483.73555188852436,-37.73241575493395L-481.7043387049119,-37.616393514329644L-481.7043387049119,-47.79290588392332zM-483.73555188852436,-47.90892812452763L-483.73555188852436,-37.73241575493395L-481.7043387049119,-47.79290588392332z" style="fill:rgb(153,221,255); fill-opacity: 0.81"></path><path d="M-483.7355518885243,-47.90892812452763L-481.70433870491183,-47.79290588392332" style="fill:none;stroke:rgb(0,0,0);stroke-width:1;stroke-linecap:round"></path><path d="M-411.8926600632025,305.5395955982724L-399.70538096152734,306.23572904189825L-399.70538096152734,-263.64896365534764zM-505.19618884934897,350.892998291747L-503.1649756657364,351.0090205323513L-503.1649756657364,-300.28777112164397zM-411.8926600632025,-264.34509709897344L-411.8926600632025,305.5395955982724L-399.70538096152734,-263.64896365534764zM-505.19618884934897,-300.4037933622482L-505.19618884934897,350.892998291747L-503.1649756657364,-300.28777112164397z" style="fill:rgb(238,238,238); fill-opacity: 0.27"></path><path d="M-411.8926600632025,-264.34509709897344L-399.70538096152734,-263.64896365534764M-505.19618884934897,-300.4037933622482L-503.1649756657364,-300.2877711216439" style="fill:none;stroke:rgb(0,0,0);stroke-width:1;stroke-linecap:round"></path></svg>