<?xml version="1.0" encoding="utf-8" standalone="no"?>
<!DOCTYPE svg PUBLIC "-//W3C//DTD SVG 1.1//EN"
  "http://www.w3.org/Graphics/SVG/1.1/DTD/svg11.dtd">
<svg xmlns:xlink="http://www.w3.org/1999/xlink" width="460.8pt" height="345.6pt" viewBox="0 0 460.8 345.6" xmlns="http://www.w3.org/2000/svg" version="1.1">
 <metadata>
  <rdf:RDF xmlns:dc="http://purl.org/dc/elements/1.1/" xmlns:cc="http://creativecommons.org/ns#" xmlns:rdf="http://www.w3.org/1999/02/22-rdf-syntax-ns#">
   <cc:Work>
    <dc:type rdf:resource="http://purl.org/dc/dcmitype/StillImage"/>
    <dc:date>2023-05-25T09:41:35.105042</dc:date>
    <dc:format>image/svg+xml</dc:format>
    <dc:creator>
     <cc:Agent>
      <dc:title>Matplotlib v3.6.3, https://matplotlib.org/</dc:title>
     </cc:Agent>
    </dc:creator>
   </cc:Work>
  </rdf:RDF>
 </metadata>
 <defs>
  <style type="text/css">*{stroke-linejoin: round; stroke-linecap: butt}</style>
 </defs>
 <g id="figure_1">
  <g id="patch_1">
   <path d="M 0 345.6 
L 460.8 345.6 
L 460.8 0 
L 0 0 
z
" style="fill: #ffffff"/>
  </g>
  <g id="axes_1">
   <g id="patch_2">
    <path d="M 57.6 307.584 
L 414.72 307.584 
L 414.72 41.472 
L 57.6 41.472 
z
" style="fill: #e5e5e5"/>
   </g>
   <g id="matplotlib.axis_1">
    <g id="xtick_1">
     <g id="line2d_1">
      <path d="M 73.832727 307.584 
L 73.832727 41.472 
" clip-path="url(#pc3ab0e7431)" style="fill: none; stroke: #ffffff; stroke-width: 0.8; stroke-linecap: square"/>
     </g>
     <g id="line2d_2">
      <defs>
       <path id="m43a16422fc" d="M 0 0 
L 0 3.5 
" style="stroke: #555555; stroke-width: 0.8"/>
      </defs>
      <g>
       <use xlink:href="#m43a16422fc" x="73.832727" y="307.584" style="fill: #555555; stroke: #555555; stroke-width: 0.8"/>
      </g>
     </g>
     <g id="text_1">
      <!-- 0 -->
      <g style="fill: #555555" transform="translate(70.651477 322.182437) scale(0.1 -0.1)">
       <defs>
        <path id="DejaVuSans-30" d="M 2034 4250 
Q 1547 4250 1301 3770 
Q 1056 3291 1056 2328 
Q 1056 1369 1301 889 
Q 1547 409 2034 409 
Q 2525 409 2770 889 
Q 3016 1369 3016 2328 
Q 3016 3291 2770 3770 
Q 2525 4250 2034 4250 
z
M 2034 4750 
Q 2819 4750 3233 4129 
Q 3647 3509 3647 2328 
Q 3647 1150 3233 529 
Q 2819 -91 2034 -91 
Q 1250 -91 836 529 
Q 422 1150 422 2328 
Q 422 3509 836 4129 
Q 1250 4750 2034 4750 
z
" transform="scale(0.015625)"/>
       </defs>
       <use xlink:href="#DejaVuSans-30"/>
      </g>
     </g>
    </g>
    <g id="xtick_2">
     <g id="line2d_3">
      <path d="M 114.618474 307.584 
L 114.618474 41.472 
" clip-path="url(#pc3ab0e7431)" style="fill: none; stroke: #ffffff; stroke-width: 0.8; stroke-linecap: square"/>
     </g>
     <g id="line2d_4">
      <g>
       <use xlink:href="#m43a16422fc" x="114.618474" y="307.584" style="fill: #555555; stroke: #555555; stroke-width: 0.8"/>
      </g>
     </g>
     <g id="text_2">
      <!-- 25 -->
      <g style="fill: #555555" transform="translate(108.255974 322.182437) scale(0.1 -0.1)">
       <defs>
        <path id="DejaVuSans-32" d="M 1228 531 
L 3431 531 
L 3431 0 
L 469 0 
L 469 531 
Q 828 903 1448 1529 
Q 2069 2156 2228 2338 
Q 2531 2678 2651 2914 
Q 2772 3150 2772 3378 
Q 2772 3750 2511 3984 
Q 2250 4219 1831 4219 
Q 1534 4219 1204 4116 
Q 875 4013 500 3803 
L 500 4441 
Q 881 4594 1212 4672 
Q 1544 4750 1819 4750 
Q 2544 4750 2975 4387 
Q 3406 4025 3406 3419 
Q 3406 3131 3298 2873 
Q 3191 2616 2906 2266 
Q 2828 2175 2409 1742 
Q 1991 1309 1228 531 
z
" transform="scale(0.015625)"/>
        <path id="DejaVuSans-35" d="M 691 4666 
L 3169 4666 
L 3169 4134 
L 1269 4134 
L 1269 2991 
Q 1406 3038 1543 3061 
Q 1681 3084 1819 3084 
Q 2600 3084 3056 2656 
Q 3513 2228 3513 1497 
Q 3513 744 3044 326 
Q 2575 -91 1722 -91 
Q 1428 -91 1123 -41 
Q 819 9 494 109 
L 494 744 
Q 775 591 1075 516 
Q 1375 441 1709 441 
Q 2250 441 2565 725 
Q 2881 1009 2881 1497 
Q 2881 1984 2565 2268 
Q 2250 2553 1709 2553 
Q 1456 2553 1204 2497 
Q 953 2441 691 2322 
L 691 4666 
z
" transform="scale(0.015625)"/>
       </defs>
       <use xlink:href="#DejaVuSans-32"/>
       <use xlink:href="#DejaVuSans-35" x="63.623047"/>
      </g>
     </g>
    </g>
    <g id="xtick_3">
     <g id="line2d_5">
      <path d="M 155.404221 307.584 
L 155.404221 41.472 
" clip-path="url(#pc3ab0e7431)" style="fill: none; stroke: #ffffff; stroke-width: 0.8; stroke-linecap: square"/>
     </g>
     <g id="line2d_6">
      <g>
       <use xlink:href="#m43a16422fc" x="155.404221" y="307.584" style="fill: #555555; stroke: #555555; stroke-width: 0.8"/>
      </g>
     </g>
     <g id="text_3">
      <!-- 50 -->
      <g style="fill: #555555" transform="translate(149.041721 322.182437) scale(0.1 -0.1)">
       <use xlink:href="#DejaVuSans-35"/>
       <use xlink:href="#DejaVuSans-30" x="63.623047"/>
      </g>
     </g>
    </g>
    <g id="xtick_4">
     <g id="line2d_7">
      <path d="M 196.189968 307.584 
L 196.189968 41.472 
" clip-path="url(#pc3ab0e7431)" style="fill: none; stroke: #ffffff; stroke-width: 0.8; stroke-linecap: square"/>
     </g>
     <g id="line2d_8">
      <g>
       <use xlink:href="#m43a16422fc" x="196.189968" y="307.584" style="fill: #555555; stroke: #555555; stroke-width: 0.8"/>
      </g>
     </g>
     <g id="text_4">
      <!-- 75 -->
      <g style="fill: #555555" transform="translate(189.827468 322.182437) scale(0.1 -0.1)">
       <defs>
        <path id="DejaVuSans-37" d="M 525 4666 
L 3525 4666 
L 3525 4397 
L 1831 0 
L 1172 0 
L 2766 4134 
L 525 4134 
L 525 4666 
z
" transform="scale(0.015625)"/>
       </defs>
       <use xlink:href="#DejaVuSans-37"/>
       <use xlink:href="#DejaVuSans-35" x="63.623047"/>
      </g>
     </g>
    </g>
    <g id="xtick_5">
     <g id="line2d_9">
      <path d="M 236.975715 307.584 
L 236.975715 41.472 
" clip-path="url(#pc3ab0e7431)" style="fill: none; stroke: #ffffff; stroke-width: 0.8; stroke-linecap: square"/>
     </g>
     <g id="line2d_10">
      <g>
       <use xlink:href="#m43a16422fc" x="236.975715" y="307.584" style="fill: #555555; stroke: #555555; stroke-width: 0.8"/>
      </g>
     </g>
     <g id="text_5">
      <!-- 100 -->
      <g style="fill: #555555" transform="translate(227.431965 322.182437) scale(0.1 -0.1)">
       <defs>
        <path id="DejaVuSans-31" d="M 794 531 
L 1825 531 
L 1825 4091 
L 703 3866 
L 703 4441 
L 1819 4666 
L 2450 4666 
L 2450 531 
L 3481 531 
L 3481 0 
L 794 0 
L 794 531 
z
" transform="scale(0.015625)"/>
       </defs>
       <use xlink:href="#DejaVuSans-31"/>
       <use xlink:href="#DejaVuSans-30" x="63.623047"/>
       <use xlink:href="#DejaVuSans-30" x="127.246094"/>
      </g>
     </g>
    </g>
    <g id="xtick_6">
     <g id="line2d_11">
      <path d="M 277.761462 307.584 
L 277.761462 41.472 
" clip-path="url(#pc3ab0e7431)" style="fill: none; stroke: #ffffff; stroke-width: 0.8; stroke-linecap: square"/>
     </g>
     <g id="line2d_12">
      <g>
       <use xlink:href="#m43a16422fc" x="277.761462" y="307.584" style="fill: #555555; stroke: #555555; stroke-width: 0.8"/>
      </g>
     </g>
     <g id="text_6">
      <!-- 125 -->
      <g style="fill: #555555" transform="translate(268.217712 322.182437) scale(0.1 -0.1)">
       <use xlink:href="#DejaVuSans-31"/>
       <use xlink:href="#DejaVuSans-32" x="63.623047"/>
       <use xlink:href="#DejaVuSans-35" x="127.246094"/>
      </g>
     </g>
    </g>
    <g id="xtick_7">
     <g id="line2d_13">
      <path d="M 318.547209 307.584 
L 318.547209 41.472 
" clip-path="url(#pc3ab0e7431)" style="fill: none; stroke: #ffffff; stroke-width: 0.8; stroke-linecap: square"/>
     </g>
     <g id="line2d_14">
      <g>
       <use xlink:href="#m43a16422fc" x="318.547209" y="307.584" style="fill: #555555; stroke: #555555; stroke-width: 0.8"/>
      </g>
     </g>
     <g id="text_7">
      <!-- 150 -->
      <g style="fill: #555555" transform="translate(309.003459 322.182437) scale(0.1 -0.1)">
       <use xlink:href="#DejaVuSans-31"/>
       <use xlink:href="#DejaVuSans-35" x="63.623047"/>
       <use xlink:href="#DejaVuSans-30" x="127.246094"/>
      </g>
     </g>
    </g>
    <g id="xtick_8">
     <g id="line2d_15">
      <path d="M 359.332956 307.584 
L 359.332956 41.472 
" clip-path="url(#pc3ab0e7431)" style="fill: none; stroke: #ffffff; stroke-width: 0.8; stroke-linecap: square"/>
     </g>
     <g id="line2d_16">
      <g>
       <use xlink:href="#m43a16422fc" x="359.332956" y="307.584" style="fill: #555555; stroke: #555555; stroke-width: 0.8"/>
      </g>
     </g>
     <g id="text_8">
      <!-- 175 -->
      <g style="fill: #555555" transform="translate(349.789206 322.182437) scale(0.1 -0.1)">
       <use xlink:href="#DejaVuSans-31"/>
       <use xlink:href="#DejaVuSans-37" x="63.623047"/>
       <use xlink:href="#DejaVuSans-35" x="127.246094"/>
      </g>
     </g>
    </g>
    <g id="xtick_9">
     <g id="line2d_17">
      <path d="M 400.118703 307.584 
L 400.118703 41.472 
" clip-path="url(#pc3ab0e7431)" style="fill: none; stroke: #ffffff; stroke-width: 0.8; stroke-linecap: square"/>
     </g>
     <g id="line2d_18">
      <g>
       <use xlink:href="#m43a16422fc" x="400.118703" y="307.584" style="fill: #555555; stroke: #555555; stroke-width: 0.8"/>
      </g>
     </g>
     <g id="text_9">
      <!-- 200 -->
      <g style="fill: #555555" transform="translate(390.574953 322.182437) scale(0.1 -0.1)">
       <use xlink:href="#DejaVuSans-32"/>
       <use xlink:href="#DejaVuSans-30" x="63.623047"/>
       <use xlink:href="#DejaVuSans-30" x="127.246094"/>
      </g>
     </g>
    </g>
    <g id="text_10">
     <!-- epoch -->
     <g style="fill: #555555" transform="translate(217.88625 337.38025) scale(0.12 -0.12)">
      <defs>
       <path id="DejaVuSans-65" d="M 3597 1894 
L 3597 1613 
L 953 1613 
Q 991 1019 1311 708 
Q 1631 397 2203 397 
Q 2534 397 2845 478 
Q 3156 559 3463 722 
L 3463 178 
Q 3153 47 2828 -22 
Q 2503 -91 2169 -91 
Q 1331 -91 842 396 
Q 353 884 353 1716 
Q 353 2575 817 3079 
Q 1281 3584 2069 3584 
Q 2775 3584 3186 3129 
Q 3597 2675 3597 1894 
z
M 3022 2063 
Q 3016 2534 2758 2815 
Q 2500 3097 2075 3097 
Q 1594 3097 1305 2825 
Q 1016 2553 972 2059 
L 3022 2063 
z
" transform="scale(0.015625)"/>
       <path id="DejaVuSans-70" d="M 1159 525 
L 1159 -1331 
L 581 -1331 
L 581 3500 
L 1159 3500 
L 1159 2969 
Q 1341 3281 1617 3432 
Q 1894 3584 2278 3584 
Q 2916 3584 3314 3078 
Q 3713 2572 3713 1747 
Q 3713 922 3314 415 
Q 2916 -91 2278 -91 
Q 1894 -91 1617 61 
Q 1341 213 1159 525 
z
M 3116 1747 
Q 3116 2381 2855 2742 
Q 2594 3103 2138 3103 
Q 1681 3103 1420 2742 
Q 1159 2381 1159 1747 
Q 1159 1113 1420 752 
Q 1681 391 2138 391 
Q 2594 391 2855 752 
Q 3116 1113 3116 1747 
z
" transform="scale(0.015625)"/>
       <path id="DejaVuSans-6f" d="M 1959 3097 
Q 1497 3097 1228 2736 
Q 959 2375 959 1747 
Q 959 1119 1226 758 
Q 1494 397 1959 397 
Q 2419 397 2687 759 
Q 2956 1122 2956 1747 
Q 2956 2369 2687 2733 
Q 2419 3097 1959 3097 
z
M 1959 3584 
Q 2709 3584 3137 3096 
Q 3566 2609 3566 1747 
Q 3566 888 3137 398 
Q 2709 -91 1959 -91 
Q 1206 -91 779 398 
Q 353 888 353 1747 
Q 353 2609 779 3096 
Q 1206 3584 1959 3584 
z
" transform="scale(0.015625)"/>
       <path id="DejaVuSans-63" d="M 3122 3366 
L 3122 2828 
Q 2878 2963 2633 3030 
Q 2388 3097 2138 3097 
Q 1578 3097 1268 2742 
Q 959 2388 959 1747 
Q 959 1106 1268 751 
Q 1578 397 2138 397 
Q 2388 397 2633 464 
Q 2878 531 3122 666 
L 3122 134 
Q 2881 22 2623 -34 
Q 2366 -91 2075 -91 
Q 1284 -91 818 406 
Q 353 903 353 1747 
Q 353 2603 823 3093 
Q 1294 3584 2113 3584 
Q 2378 3584 2631 3529 
Q 2884 3475 3122 3366 
z
" transform="scale(0.015625)"/>
       <path id="DejaVuSans-68" d="M 3513 2113 
L 3513 0 
L 2938 0 
L 2938 2094 
Q 2938 2591 2744 2837 
Q 2550 3084 2163 3084 
Q 1697 3084 1428 2787 
Q 1159 2491 1159 1978 
L 1159 0 
L 581 0 
L 581 4863 
L 1159 4863 
L 1159 2956 
Q 1366 3272 1645 3428 
Q 1925 3584 2291 3584 
Q 2894 3584 3203 3211 
Q 3513 2838 3513 2113 
z
" transform="scale(0.015625)"/>
      </defs>
      <use xlink:href="#DejaVuSans-65"/>
      <use xlink:href="#DejaVuSans-70" x="61.523438"/>
      <use xlink:href="#DejaVuSans-6f" x="125"/>
      <use xlink:href="#DejaVuSans-63" x="186.181641"/>
      <use xlink:href="#DejaVuSans-68" x="241.162109"/>
     </g>
    </g>
   </g>
   <g id="matplotlib.axis_2">
    <g id="ytick_1">
     <g id="line2d_19">
      <path d="M 57.6 298.606797 
L 414.72 298.606797 
" clip-path="url(#pc3ab0e7431)" style="fill: none; stroke: #ffffff; stroke-width: 0.8; stroke-linecap: square"/>
     </g>
     <g id="line2d_20">
      <defs>
       <path id="m5fc8d092d9" d="M 0 0 
L -3.5 0 
" style="stroke: #555555; stroke-width: 0.8"/>
      </defs>
      <g>
       <use xlink:href="#m5fc8d092d9" x="57.6" y="298.606797" style="fill: #555555; stroke: #555555; stroke-width: 0.8"/>
      </g>
     </g>
     <g id="text_11">
      <!-- 0.25 -->
      <g style="fill: #555555" transform="translate(28.334375 302.406015) scale(0.1 -0.1)">
       <defs>
        <path id="DejaVuSans-2e" d="M 684 794 
L 1344 794 
L 1344 0 
L 684 0 
L 684 794 
z
" transform="scale(0.015625)"/>
       </defs>
       <use xlink:href="#DejaVuSans-30"/>
       <use xlink:href="#DejaVuSans-2e" x="63.623047"/>
       <use xlink:href="#DejaVuSans-32" x="95.410156"/>
       <use xlink:href="#DejaVuSans-35" x="159.033203"/>
      </g>
     </g>
    </g>
    <g id="ytick_2">
     <g id="line2d_21">
      <path d="M 57.6 268.729341 
L 414.72 268.729341 
" clip-path="url(#pc3ab0e7431)" style="fill: none; stroke: #ffffff; stroke-width: 0.8; stroke-linecap: square"/>
     </g>
     <g id="line2d_22">
      <g>
       <use xlink:href="#m5fc8d092d9" x="57.6" y="268.729341" style="fill: #555555; stroke: #555555; stroke-width: 0.8"/>
      </g>
     </g>
     <g id="text_12">
      <!-- 0.50 -->
      <g style="fill: #555555" transform="translate(28.334375 272.528559) scale(0.1 -0.1)">
       <use xlink:href="#DejaVuSans-30"/>
       <use xlink:href="#DejaVuSans-2e" x="63.623047"/>
       <use xlink:href="#DejaVuSans-35" x="95.410156"/>
       <use xlink:href="#DejaVuSans-30" x="159.033203"/>
      </g>
     </g>
    </g>
    <g id="ytick_3">
     <g id="line2d_23">
      <path d="M 57.6 238.851885 
L 414.72 238.851885 
" clip-path="url(#pc3ab0e7431)" style="fill: none; stroke: #ffffff; stroke-width: 0.8; stroke-linecap: square"/>
     </g>
     <g id="line2d_24">
      <g>
       <use xlink:href="#m5fc8d092d9" x="57.6" y="238.851885" style="fill: #555555; stroke: #555555; stroke-width: 0.8"/>
      </g>
     </g>
     <g id="text_13">
      <!-- 0.75 -->
      <g style="fill: #555555" transform="translate(28.334375 242.651104) scale(0.1 -0.1)">
       <use xlink:href="#DejaVuSans-30"/>
       <use xlink:href="#DejaVuSans-2e" x="63.623047"/>
       <use xlink:href="#DejaVuSans-37" x="95.410156"/>
       <use xlink:href="#DejaVuSans-35" x="159.033203"/>
      </g>
     </g>
    </g>
    <g id="ytick_4">
     <g id="line2d_25">
      <path d="M 57.6 208.974429 
L 414.72 208.974429 
" clip-path="url(#pc3ab0e7431)" style="fill: none; stroke: #ffffff; stroke-width: 0.8; stroke-linecap: square"/>
     </g>
     <g id="line2d_26">
      <g>
       <use xlink:href="#m5fc8d092d9" x="57.6" y="208.974429" style="fill: #555555; stroke: #555555; stroke-width: 0.8"/>
      </g>
     </g>
     <g id="text_14">
      <!-- 1.00 -->
      <g style="fill: #555555" transform="translate(28.334375 212.773648) scale(0.1 -0.1)">
       <use xlink:href="#DejaVuSans-31"/>
       <use xlink:href="#DejaVuSans-2e" x="63.623047"/>
       <use xlink:href="#DejaVuSans-30" x="95.410156"/>
       <use xlink:href="#DejaVuSans-30" x="159.033203"/>
      </g>
     </g>
    </g>
    <g id="ytick_5">
     <g id="line2d_27">
      <path d="M 57.6 179.096973 
L 414.72 179.096973 
" clip-path="url(#pc3ab0e7431)" style="fill: none; stroke: #ffffff; stroke-width: 0.8; stroke-linecap: square"/>
     </g>
     <g id="line2d_28">
      <g>
       <use xlink:href="#m5fc8d092d9" x="57.6" y="179.096973" style="fill: #555555; stroke: #555555; stroke-width: 0.8"/>
      </g>
     </g>
     <g id="text_15">
      <!-- 1.25 -->
      <g style="fill: #555555" transform="translate(28.334375 182.896192) scale(0.1 -0.1)">
       <use xlink:href="#DejaVuSans-31"/>
       <use xlink:href="#DejaVuSans-2e" x="63.623047"/>
       <use xlink:href="#DejaVuSans-32" x="95.410156"/>
       <use xlink:href="#DejaVuSans-35" x="159.033203"/>
      </g>
     </g>
    </g>
    <g id="ytick_6">
     <g id="line2d_29">
      <path d="M 57.6 149.219517 
L 414.72 149.219517 
" clip-path="url(#pc3ab0e7431)" style="fill: none; stroke: #ffffff; stroke-width: 0.8; stroke-linecap: square"/>
     </g>
     <g id="line2d_30">
      <g>
       <use xlink:href="#m5fc8d092d9" x="57.6" y="149.219517" style="fill: #555555; stroke: #555555; stroke-width: 0.8"/>
      </g>
     </g>
     <g id="text_16">
      <!-- 1.50 -->
      <g style="fill: #555555" transform="translate(28.334375 153.018736) scale(0.1 -0.1)">
       <use xlink:href="#DejaVuSans-31"/>
       <use xlink:href="#DejaVuSans-2e" x="63.623047"/>
       <use xlink:href="#DejaVuSans-35" x="95.410156"/>
       <use xlink:href="#DejaVuSans-30" x="159.033203"/>
      </g>
     </g>
    </g>
    <g id="ytick_7">
     <g id="line2d_31">
      <path d="M 57.6 119.342061 
L 414.72 119.342061 
" clip-path="url(#pc3ab0e7431)" style="fill: none; stroke: #ffffff; stroke-width: 0.8; stroke-linecap: square"/>
     </g>
     <g id="line2d_32">
      <g>
       <use xlink:href="#m5fc8d092d9" x="57.6" y="119.342061" style="fill: #555555; stroke: #555555; stroke-width: 0.8"/>
      </g>
     </g>
     <g id="text_17">
      <!-- 1.75 -->
      <g style="fill: #555555" transform="translate(28.334375 123.14128) scale(0.1 -0.1)">
       <use xlink:href="#DejaVuSans-31"/>
       <use xlink:href="#DejaVuSans-2e" x="63.623047"/>
       <use xlink:href="#DejaVuSans-37" x="95.410156"/>
       <use xlink:href="#DejaVuSans-35" x="159.033203"/>
      </g>
     </g>
    </g>
    <g id="ytick_8">
     <g id="line2d_33">
      <path d="M 57.6 89.464606 
L 414.72 89.464606 
" clip-path="url(#pc3ab0e7431)" style="fill: none; stroke: #ffffff; stroke-width: 0.8; stroke-linecap: square"/>
     </g>
     <g id="line2d_34">
      <g>
       <use xlink:href="#m5fc8d092d9" x="57.6" y="89.464606" style="fill: #555555; stroke: #555555; stroke-width: 0.8"/>
      </g>
     </g>
     <g id="text_18">
      <!-- 2.00 -->
      <g style="fill: #555555" transform="translate(28.334375 93.263824) scale(0.1 -0.1)">
       <use xlink:href="#DejaVuSans-32"/>
       <use xlink:href="#DejaVuSans-2e" x="63.623047"/>
       <use xlink:href="#DejaVuSans-30" x="95.410156"/>
       <use xlink:href="#DejaVuSans-30" x="159.033203"/>
      </g>
     </g>
    </g>
    <g id="ytick_9">
     <g id="line2d_35">
      <path d="M 57.6 59.58715 
L 414.72 59.58715 
" clip-path="url(#pc3ab0e7431)" style="fill: none; stroke: #ffffff; stroke-width: 0.8; stroke-linecap: square"/>
     </g>
     <g id="line2d_36">
      <g>
       <use xlink:href="#m5fc8d092d9" x="57.6" y="59.58715" style="fill: #555555; stroke: #555555; stroke-width: 0.8"/>
      </g>
     </g>
     <g id="text_19">
      <!-- 2.25 -->
      <g style="fill: #555555" transform="translate(28.334375 63.386369) scale(0.1 -0.1)">
       <use xlink:href="#DejaVuSans-32"/>
       <use xlink:href="#DejaVuSans-2e" x="63.623047"/>
       <use xlink:href="#DejaVuSans-32" x="95.410156"/>
       <use xlink:href="#DejaVuSans-35" x="159.033203"/>
      </g>
     </g>
    </g>
    <g id="text_20">
     <!-- loss -->
     <g style="fill: #555555" transform="translate(21.83875 186.117375) rotate(-90) scale(0.12 -0.12)">
      <defs>
       <path id="DejaVuSans-6c" d="M 603 4863 
L 1178 4863 
L 1178 0 
L 603 0 
L 603 4863 
z
" transform="scale(0.015625)"/>
       <path id="DejaVuSans-73" d="M 2834 3397 
L 2834 2853 
Q 2591 2978 2328 3040 
Q 2066 3103 1784 3103 
Q 1356 3103 1142 2972 
Q 928 2841 928 2578 
Q 928 2378 1081 2264 
Q 1234 2150 1697 2047 
L 1894 2003 
Q 2506 1872 2764 1633 
Q 3022 1394 3022 966 
Q 3022 478 2636 193 
Q 2250 -91 1575 -91 
Q 1294 -91 989 -36 
Q 684 19 347 128 
L 347 722 
Q 666 556 975 473 
Q 1284 391 1588 391 
Q 1994 391 2212 530 
Q 2431 669 2431 922 
Q 2431 1156 2273 1281 
Q 2116 1406 1581 1522 
L 1381 1569 
Q 847 1681 609 1914 
Q 372 2147 372 2553 
Q 372 3047 722 3315 
Q 1072 3584 1716 3584 
Q 2034 3584 2315 3537 
Q 2597 3491 2834 3397 
z
" transform="scale(0.015625)"/>
      </defs>
      <use xlink:href="#DejaVuSans-6c"/>
      <use xlink:href="#DejaVuSans-6f" x="27.783203"/>
      <use xlink:href="#DejaVuSans-73" x="88.964844"/>
      <use xlink:href="#DejaVuSans-73" x="141.064453"/>
     </g>
    </g>
   </g>
   <g id="line2d_37">
    <path d="M 73.832727 53.568 
L 77.095587 54.455818 
L 78.727017 55.282955 
L 80.358447 55.977385 
L 81.989877 56.852642 
L 83.621307 57.952029 
L 85.252736 59.79075 
L 86.884166 62.701303 
L 88.515596 67.336934 
L 90.147026 75.261063 
L 91.778456 90.545571 
L 93.409886 118.724187 
L 95.041316 154.443417 
L 96.672746 177.737219 
L 98.304175 192.750175 
L 99.935605 199.830265 
L 101.567035 200.76478 
L 103.198465 204.911323 
L 104.829895 211.830666 
L 106.461325 207.801615 
L 108.092755 210.564268 
L 109.724185 213.079307 
L 111.355614 213.418301 
L 112.987044 221.218761 
L 114.618474 219.068649 
L 116.249904 221.41036 
L 117.881334 222.284455 
L 119.512764 221.595993 
L 122.775624 224.815884 
L 124.407053 223.306573 
L 126.038483 227.27743 
L 127.669913 228.581575 
L 129.301343 227.480804 
L 130.932773 227.947603 
L 132.564203 226.350626 
L 134.195633 228.970522 
L 135.827063 232.79617 
L 137.458492 231.301086 
L 139.089922 229.514208 
L 140.721352 232.550082 
L 142.352782 230.514553 
L 143.984212 232.991139 
L 145.615642 236.163089 
L 147.247072 238.326888 
L 148.878502 238.163907 
L 150.509931 240.195935 
L 152.141361 235.747769 
L 153.772791 236.201522 
L 155.404221 238.807703 
L 157.035651 243.118784 
L 158.667081 242.39277 
L 160.298511 242.625072 
L 161.929941 242.309201 
L 163.56137 243.465586 
L 165.1928 244.92254 
L 166.82423 243.775406 
L 168.45566 241.87955 
L 170.08709 244.368898 
L 171.71852 244.775094 
L 173.34995 247.029214 
L 174.98138 245.398358 
L 176.61281 249.333986 
L 178.244239 248.099118 
L 181.507099 248.066996 
L 183.138529 250.250598 
L 184.769959 250.086851 
L 186.401389 245.495594 
L 188.032819 250.251549 
L 189.664249 253.686986 
L 191.295678 251.205941 
L 192.927108 253.280349 
L 194.558538 249.823401 
L 196.189968 255.59676 
L 197.821398 250.692357 
L 199.452828 255.573125 
L 201.084258 251.11302 
L 202.715688 256.230791 
L 204.347117 255.7669 
L 205.978547 257.209037 
L 207.609977 259.144937 
L 209.241407 256.652097 
L 210.872837 260.162141 
L 212.504267 259.500785 
L 214.135697 258.011971 
L 215.767127 257.485111 
L 219.029986 261.426721 
L 220.661416 258.501003 
L 222.292846 259.191021 
L 223.924276 258.905822 
L 225.555706 261.849724 
L 227.187136 261.270902 
L 228.818566 261.07187 
L 230.449995 262.518063 
L 233.712855 266.900811 
L 236.975715 262.789093 
L 238.607145 264.867567 
L 240.238575 265.165993 
L 241.870005 265.717794 
L 243.501434 264.289143 
L 245.132864 265.583464 
L 248.395724 264.748551 
L 250.027154 268.768689 
L 251.658584 269.635512 
L 253.290014 269.113146 
L 254.921444 265.958477 
L 256.552873 265.366973 
L 258.184303 265.693675 
L 259.815733 270.090914 
L 261.447163 270.299191 
L 263.078593 268.777456 
L 264.710023 267.413891 
L 266.341453 268.871206 
L 267.972883 269.641209 
L 269.604312 271.773216 
L 271.235742 273.20043 
L 272.867172 272.873547 
L 274.498602 271.085942 
L 276.130032 271.400115 
L 277.761462 271.023696 
L 279.392892 274.202106 
L 281.024322 273.79287 
L 282.655751 274.515527 
L 284.287181 276.618301 
L 285.918611 275.290079 
L 287.550041 276.391634 
L 289.181471 275.259114 
L 290.812901 278.54401 
L 292.444331 279.160953 
L 294.075761 275.31339 
L 295.70719 276.144104 
L 297.33862 276.734271 
L 298.97005 275.367386 
L 300.60148 277.858945 
L 302.23291 278.955743 
L 303.86434 273.877326 
L 305.49577 279.032448 
L 307.1272 280.542862 
L 308.75863 278.831254 
L 310.390059 276.562531 
L 312.021489 281.256332 
L 313.652919 279.26774 
L 315.284349 280.754316 
L 316.915779 279.01883 
L 318.547209 280.453001 
L 320.178639 282.252142 
L 321.810069 285.120181 
L 323.441498 284.117903 
L 325.072928 283.528235 
L 326.704358 283.810527 
L 328.335788 281.64595 
L 329.967218 286.251491 
L 331.598648 284.525156 
L 333.230078 281.201365 
L 334.861508 280.092075 
L 336.492937 285.438056 
L 338.124367 280.350784 
L 339.755797 283.51257 
L 341.387227 287.191866 
L 343.018657 286.467493 
L 344.650087 286.215257 
L 346.281517 288.099631 
L 347.912947 287.080048 
L 349.544376 289.1415 
L 351.175806 287.22371 
L 352.807236 287.018438 
L 354.438666 285.453622 
L 356.070096 285.179897 
L 357.701526 290.069707 
L 359.332956 290.70438 
L 360.964386 289.638601 
L 362.595815 288.427113 
L 364.227245 291.273089 
L 365.858675 283.354989 
L 367.490105 289.547153 
L 369.121535 289.193133 
L 370.752965 293.893273 
L 372.384395 291.219821 
L 374.015825 292.452339 
L 375.647254 289.754718 
L 377.278684 292.067417 
L 378.910114 290.068839 
L 380.541544 288.703627 
L 382.172974 292.530185 
L 383.804404 295.186487 
L 385.435834 294.831261 
L 387.067264 293.680676 
L 388.698693 293.118834 
L 390.330123 295.488 
L 391.961553 294.452036 
L 393.592983 291.947085 
L 395.224413 293.892662 
L 396.855843 294.635476 
L 398.487273 294.24259 
L 398.487273 294.24259 
" clip-path="url(#pc3ab0e7431)" style="fill: none; stroke: #e24a33; stroke-width: 1.5; stroke-linecap: square"/>
   </g>
   <g id="line2d_38">
    <path d="M 73.832727 53.794291 
L 78.727017 55.593205 
L 80.358447 56.420884 
L 81.989877 57.480649 
L 83.621307 58.906332 
L 85.252736 61.145088 
L 86.884166 64.732701 
L 88.515596 70.651699 
L 90.147026 81.313266 
L 91.778456 102.078812 
L 95.041316 169.808078 
L 96.672746 189.344972 
L 98.304175 198.341111 
L 99.935605 201.950283 
L 101.567035 197.173533 
L 103.198465 204.968232 
L 104.829895 201.649542 
L 106.461325 209.623244 
L 108.092755 206.983824 
L 109.724185 216.262682 
L 111.355614 211.778797 
L 112.987044 216.593497 
L 114.618474 218.998241 
L 116.249904 221.06616 
L 117.881334 215.494687 
L 119.512764 218.675493 
L 121.144194 221.321375 
L 122.775624 219.653591 
L 124.407053 219.260095 
L 126.038483 226.836582 
L 127.669913 214.598019 
L 129.301343 229.476218 
L 130.932773 226.411581 
L 132.564203 222.551943 
L 134.195633 225.734249 
L 135.827063 230.939117 
L 137.458492 224.862265 
L 139.089922 230.835005 
L 140.721352 225.854711 
L 142.352782 230.437313 
L 143.984212 226.351237 
L 145.615642 232.652032 
L 147.247072 230.149327 
L 148.878502 231.714817 
L 150.509931 233.838165 
L 152.141361 229.441618 
L 153.772791 236.163814 
L 155.404221 235.679929 
L 157.035651 237.401629 
L 158.667081 239.658401 
L 160.298511 231.014582 
L 161.929941 236.164906 
L 163.56137 239.276291 
L 165.1928 238.743345 
L 166.82423 239.021016 
L 168.45566 238.794759 
L 170.08709 238.37205 
L 171.71852 244.37211 
L 173.34995 243.456046 
L 174.98138 242.882822 
L 176.61281 243.447276 
L 178.244239 243.628402 
L 179.875669 235.326966 
L 181.507099 243.396269 
L 183.138529 242.120828 
L 184.769959 238.36207 
L 186.401389 247.058756 
L 188.032819 246.688236 
L 189.664249 237.636123 
L 191.295678 244.226502 
L 192.927108 238.406855 
L 194.558538 246.375054 
L 196.189968 242.357208 
L 197.821398 245.163062 
L 199.452828 239.009184 
L 201.084258 245.96004 
L 202.715688 239.42701 
L 204.347117 247.339574 
L 205.978547 248.496977 
L 207.609977 245.279024 
L 209.241407 245.014215 
L 210.872837 248.725352 
L 212.504267 246.481761 
L 214.135697 247.323659 
L 215.767127 247.28919 
L 217.398556 249.495582 
L 219.029986 244.074349 
L 220.661416 251.035595 
L 222.292846 245.217692 
L 223.924276 246.106608 
L 225.555706 247.988395 
L 227.187136 248.659802 
L 228.818566 242.843278 
L 230.449995 250.040625 
L 232.081425 253.954252 
L 235.344285 245.567372 
L 236.975715 252.311488 
L 238.607145 245.886975 
L 240.238575 248.137139 
L 241.870005 242.298574 
L 243.501434 253.683204 
L 245.132864 248.084815 
L 246.764294 250.691362 
L 248.395724 250.412335 
L 250.027154 252.478816 
L 251.658584 248.748959 
L 253.290014 245.41158 
L 254.921444 244.187893 
L 256.552873 254.094494 
L 258.184303 250.524934 
L 259.815733 253.985502 
L 261.447163 251.494195 
L 263.078593 251.016001 
L 264.710023 252.913832 
L 266.341453 247.011039 
L 267.972883 251.744583 
L 269.604312 249.154628 
L 271.235742 254.235428 
L 272.867172 253.355074 
L 274.498602 254.017674 
L 276.130032 250.848249 
L 277.761462 254.217186 
L 279.392892 254.319202 
L 281.024322 253.62403 
L 282.655751 251.804758 
L 284.287181 248.84575 
L 285.918611 248.378857 
L 287.550041 251.849352 
L 289.181471 253.190718 
L 290.812901 247.548555 
L 292.444331 253.404913 
L 294.075761 250.819448 
L 295.70719 249.959741 
L 297.33862 250.08604 
L 298.97005 246.364282 
L 300.60148 249.6158 
L 302.23291 248.203328 
L 303.86434 249.324747 
L 305.49577 252.151626 
L 307.1272 250.526854 
L 308.75863 246.225923 
L 310.390059 252.019068 
L 312.021489 249.60086 
L 313.652919 249.01899 
L 315.284349 250.058152 
L 316.915779 248.767401 
L 318.547209 246.639164 
L 320.178639 252.024826 
L 321.810069 250.919404 
L 323.441498 253.313756 
L 325.072928 250.833961 
L 328.335788 249.730465 
L 329.967218 251.909962 
L 331.598648 248.939928 
L 333.230078 249.293867 
L 334.861508 250.062789 
L 336.492937 246.294432 
L 338.124367 253.088048 
L 339.755797 249.873515 
L 341.387227 242.453487 
L 343.018657 248.802658 
L 344.650087 250.267215 
L 346.281517 250.825864 
L 347.912947 250.853845 
L 349.544376 246.985919 
L 351.175806 249.16247 
L 352.807236 247.61905 
L 354.438666 245.333367 
L 356.070096 254.30068 
L 357.701526 247.29102 
L 359.332956 248.612481 
L 360.964386 248.651889 
L 362.595815 252.304974 
L 364.227245 250.602706 
L 365.858675 251.602857 
L 367.490105 252.270783 
L 369.121535 247.021505 
L 370.752965 248.75525 
L 372.384395 248.707906 
L 374.015825 245.774726 
L 375.647254 251.25464 
L 377.278684 247.228929 
L 378.910114 246.473754 
L 380.541544 247.060066 
L 382.172974 250.918755 
L 383.804404 247.654115 
L 385.435834 246.938087 
L 387.067264 246.976745 
L 388.698693 243.885733 
L 390.330123 245.361863 
L 391.961553 245.482796 
L 393.592983 245.98621 
L 395.224413 245.023113 
L 396.855843 242.753393 
L 398.487273 248.487029 
L 398.487273 248.487029 
" clip-path="url(#pc3ab0e7431)" style="fill: none; stroke: #348abd; stroke-width: 1.5; stroke-linecap: square"/>
   </g>
   <g id="patch_3">
    <path d="M 57.6 307.584 
L 57.6 41.472 
" style="fill: none; stroke: #ffffff; stroke-linejoin: miter; stroke-linecap: square"/>
   </g>
   <g id="patch_4">
    <path d="M 414.72 307.584 
L 414.72 41.472 
" style="fill: none; stroke: #ffffff; stroke-linejoin: miter; stroke-linecap: square"/>
   </g>
   <g id="patch_5">
    <path d="M 57.6 307.584 
L 414.72 307.584 
" style="fill: none; stroke: #ffffff; stroke-linejoin: miter; stroke-linecap: square"/>
   </g>
   <g id="patch_6">
    <path d="M 57.6 41.472 
L 414.72 41.472 
" style="fill: none; stroke: #ffffff; stroke-linejoin: miter; stroke-linecap: square"/>
   </g>
   <g id="text_21">
    <!-- loss of lenet -->
    <g transform="translate(192.48975 35.472) scale(0.144 -0.144)">
     <defs>
      <path id="DejaVuSans-20" transform="scale(0.015625)"/>
      <path id="DejaVuSans-66" d="M 2375 4863 
L 2375 4384 
L 1825 4384 
Q 1516 4384 1395 4259 
Q 1275 4134 1275 3809 
L 1275 3500 
L 2222 3500 
L 2222 3053 
L 1275 3053 
L 1275 0 
L 697 0 
L 697 3053 
L 147 3053 
L 147 3500 
L 697 3500 
L 697 3744 
Q 697 4328 969 4595 
Q 1241 4863 1831 4863 
L 2375 4863 
z
" transform="scale(0.015625)"/>
      <path id="DejaVuSans-6e" d="M 3513 2113 
L 3513 0 
L 2938 0 
L 2938 2094 
Q 2938 2591 2744 2837 
Q 2550 3084 2163 3084 
Q 1697 3084 1428 2787 
Q 1159 2491 1159 1978 
L 1159 0 
L 581 0 
L 581 3500 
L 1159 3500 
L 1159 2956 
Q 1366 3272 1645 3428 
Q 1925 3584 2291 3584 
Q 2894 3584 3203 3211 
Q 3513 2838 3513 2113 
z
" transform="scale(0.015625)"/>
      <path id="DejaVuSans-74" d="M 1172 4494 
L 1172 3500 
L 2356 3500 
L 2356 3053 
L 1172 3053 
L 1172 1153 
Q 1172 725 1289 603 
Q 1406 481 1766 481 
L 2356 481 
L 2356 0 
L 1766 0 
Q 1100 0 847 248 
Q 594 497 594 1153 
L 594 3053 
L 172 3053 
L 172 3500 
L 594 3500 
L 594 4494 
L 1172 4494 
z
" transform="scale(0.015625)"/>
     </defs>
     <use xlink:href="#DejaVuSans-6c"/>
     <use xlink:href="#DejaVuSans-6f" x="27.783203"/>
     <use xlink:href="#DejaVuSans-73" x="88.964844"/>
     <use xlink:href="#DejaVuSans-73" x="141.064453"/>
     <use xlink:href="#DejaVuSans-20" x="193.164062"/>
     <use xlink:href="#DejaVuSans-6f" x="224.951172"/>
     <use xlink:href="#DejaVuSans-66" x="286.132812"/>
     <use xlink:href="#DejaVuSans-20" x="321.337891"/>
     <use xlink:href="#DejaVuSans-6c" x="353.125"/>
     <use xlink:href="#DejaVuSans-65" x="380.908203"/>
     <use xlink:href="#DejaVuSans-6e" x="442.431641"/>
     <use xlink:href="#DejaVuSans-65" x="505.810547"/>
     <use xlink:href="#DejaVuSans-74" x="567.333984"/>
    </g>
   </g>
   <g id="legend_1">
    <g id="patch_7">
     <path d="M 352.445 78.82825 
L 407.72 78.82825 
Q 409.72 78.82825 409.72 76.82825 
L 409.72 48.472 
Q 409.72 46.472 407.72 46.472 
L 352.445 46.472 
Q 350.445 46.472 350.445 48.472 
L 350.445 76.82825 
Q 350.445 78.82825 352.445 78.82825 
z
" style="fill: #e5e5e5; opacity: 0.8; stroke: #cccccc; stroke-width: 0.5; stroke-linejoin: miter"/>
    </g>
    <g id="line2d_39">
     <path d="M 354.445 54.570437 
L 364.445 54.570437 
L 374.445 54.570437 
" style="fill: none; stroke: #e24a33; stroke-width: 1.5; stroke-linecap: square"/>
    </g>
    <g id="text_22">
     <!-- train -->
     <g transform="translate(382.445 58.070437) scale(0.1 -0.1)">
      <defs>
       <path id="DejaVuSans-72" d="M 2631 2963 
Q 2534 3019 2420 3045 
Q 2306 3072 2169 3072 
Q 1681 3072 1420 2755 
Q 1159 2438 1159 1844 
L 1159 0 
L 581 0 
L 581 3500 
L 1159 3500 
L 1159 2956 
Q 1341 3275 1631 3429 
Q 1922 3584 2338 3584 
Q 2397 3584 2469 3576 
Q 2541 3569 2628 3553 
L 2631 2963 
z
" transform="scale(0.015625)"/>
       <path id="DejaVuSans-61" d="M 2194 1759 
Q 1497 1759 1228 1600 
Q 959 1441 959 1056 
Q 959 750 1161 570 
Q 1363 391 1709 391 
Q 2188 391 2477 730 
Q 2766 1069 2766 1631 
L 2766 1759 
L 2194 1759 
z
M 3341 1997 
L 3341 0 
L 2766 0 
L 2766 531 
Q 2569 213 2275 61 
Q 1981 -91 1556 -91 
Q 1019 -91 701 211 
Q 384 513 384 1019 
Q 384 1609 779 1909 
Q 1175 2209 1959 2209 
L 2766 2209 
L 2766 2266 
Q 2766 2663 2505 2880 
Q 2244 3097 1772 3097 
Q 1472 3097 1187 3025 
Q 903 2953 641 2809 
L 641 3341 
Q 956 3463 1253 3523 
Q 1550 3584 1831 3584 
Q 2591 3584 2966 3190 
Q 3341 2797 3341 1997 
z
" transform="scale(0.015625)"/>
       <path id="DejaVuSans-69" d="M 603 3500 
L 1178 3500 
L 1178 0 
L 603 0 
L 603 3500 
z
M 603 4863 
L 1178 4863 
L 1178 4134 
L 603 4134 
L 603 4863 
z
" transform="scale(0.015625)"/>
      </defs>
      <use xlink:href="#DejaVuSans-74"/>
      <use xlink:href="#DejaVuSans-72" x="39.208984"/>
      <use xlink:href="#DejaVuSans-61" x="80.322266"/>
      <use xlink:href="#DejaVuSans-69" x="141.601562"/>
      <use xlink:href="#DejaVuSans-6e" x="169.384766"/>
     </g>
    </g>
    <g id="line2d_40">
     <path d="M 354.445 69.248562 
L 364.445 69.248562 
L 374.445 69.248562 
" style="fill: none; stroke: #348abd; stroke-width: 1.5; stroke-linecap: square"/>
    </g>
    <g id="text_23">
     <!-- test -->
     <g transform="translate(382.445 72.748562) scale(0.1 -0.1)">
      <use xlink:href="#DejaVuSans-74"/>
      <use xlink:href="#DejaVuSans-65" x="39.208984"/>
      <use xlink:href="#DejaVuSans-73" x="100.732422"/>
      <use xlink:href="#DejaVuSans-74" x="152.832031"/>
     </g>
    </g>
   </g>
  </g>
 </g>
 <defs>
  <clipPath id="pc3ab0e7431">
   <rect x="57.6" y="41.472" width="357.12" height="266.112"/>
  </clipPath>
 </defs>
</svg>
