<?xml version="1.0" encoding="utf-8" standalone="no"?>
<!DOCTYPE svg PUBLIC "-//W3C//DTD SVG 1.1//EN"
  "http://www.w3.org/Graphics/SVG/1.1/DTD/svg11.dtd">
<svg xmlns:xlink="http://www.w3.org/1999/xlink" width="460.8pt" height="345.6pt" viewBox="0 0 460.8 345.6" xmlns="http://www.w3.org/2000/svg" version="1.1">
 <metadata>
  <rdf:RDF xmlns:dc="http://purl.org/dc/elements/1.1/" xmlns:cc="http://creativecommons.org/ns#" xmlns:rdf="http://www.w3.org/1999/02/22-rdf-syntax-ns#">
   <cc:Work>
    <dc:type rdf:resource="http://purl.org/dc/dcmitype/StillImage"/>
    <dc:date>2023-05-25T09:41:35.596188</dc:date>
    <dc:format>image/svg+xml</dc:format>
    <dc:creator>
     <cc:Agent>
      <dc:title>Matplotlib v3.6.3, https://matplotlib.org/</dc:title>
     </cc:Agent>
    </dc:creator>
   </cc:Work>
  </rdf:RDF>
 </metadata>
 <defs>
  <style type="text/css">*{stroke-linejoin: round; stroke-linecap: butt}</style>
 </defs>
 <g id="figure_1">
  <g id="patch_1">
   <path d="M 0 345.6 
L 460.8 345.6 
L 460.8 0 
L 0 0 
z
" style="fill: #ffffff"/>
  </g>
  <g id="axes_1">
   <g id="patch_2">
    <path d="M 57.6 307.584 
L 414.72 307.584 
L 414.72 41.472 
L 57.6 41.472 
z
" style="fill: #e5e5e5"/>
   </g>
   <g id="matplotlib.axis_1">
    <g id="xtick_1">
     <g id="line2d_1">
      <path d="M 73.832727 307.584 
L 73.832727 41.472 
" clip-path="url(#pf031285d17)" style="fill: none; stroke: #ffffff; stroke-width: 0.8; stroke-linecap: square"/>
     </g>
     <g id="line2d_2">
      <defs>
       <path id="mc7b159615b" d="M 0 0 
L 0 3.5 
" style="stroke: #555555; stroke-width: 0.8"/>
      </defs>
      <g>
       <use xlink:href="#mc7b159615b" x="73.832727" y="307.584" style="fill: #555555; stroke: #555555; stroke-width: 0.8"/>
      </g>
     </g>
     <g id="text_1">
      <!-- 0 -->
      <g style="fill: #555555" transform="translate(70.651477 322.182437) scale(0.1 -0.1)">
       <defs>
        <path id="DejaVuSans-30" d="M 2034 4250 
Q 1547 4250 1301 3770 
Q 1056 3291 1056 2328 
Q 1056 1369 1301 889 
Q 1547 409 2034 409 
Q 2525 409 2770 889 
Q 3016 1369 3016 2328 
Q 3016 3291 2770 3770 
Q 2525 4250 2034 4250 
z
M 2034 4750 
Q 2819 4750 3233 4129 
Q 3647 3509 3647 2328 
Q 3647 1150 3233 529 
Q 2819 -91 2034 -91 
Q 1250 -91 836 529 
Q 422 1150 422 2328 
Q 422 3509 836 4129 
Q 1250 4750 2034 4750 
z
" transform="scale(0.015625)"/>
       </defs>
       <use xlink:href="#DejaVuSans-30"/>
      </g>
     </g>
    </g>
    <g id="xtick_2">
     <g id="line2d_3">
      <path d="M 114.618474 307.584 
L 114.618474 41.472 
" clip-path="url(#pf031285d17)" style="fill: none; stroke: #ffffff; stroke-width: 0.8; stroke-linecap: square"/>
     </g>
     <g id="line2d_4">
      <g>
       <use xlink:href="#mc7b159615b" x="114.618474" y="307.584" style="fill: #555555; stroke: #555555; stroke-width: 0.8"/>
      </g>
     </g>
     <g id="text_2">
      <!-- 25 -->
      <g style="fill: #555555" transform="translate(108.255974 322.182437) scale(0.1 -0.1)">
       <defs>
        <path id="DejaVuSans-32" d="M 1228 531 
L 3431 531 
L 3431 0 
L 469 0 
L 469 531 
Q 828 903 1448 1529 
Q 2069 2156 2228 2338 
Q 2531 2678 2651 2914 
Q 2772 3150 2772 3378 
Q 2772 3750 2511 3984 
Q 2250 4219 1831 4219 
Q 1534 4219 1204 4116 
Q 875 4013 500 3803 
L 500 4441 
Q 881 4594 1212 4672 
Q 1544 4750 1819 4750 
Q 2544 4750 2975 4387 
Q 3406 4025 3406 3419 
Q 3406 3131 3298 2873 
Q 3191 2616 2906 2266 
Q 2828 2175 2409 1742 
Q 1991 1309 1228 531 
z
" transform="scale(0.015625)"/>
        <path id="DejaVuSans-35" d="M 691 4666 
L 3169 4666 
L 3169 4134 
L 1269 4134 
L 1269 2991 
Q 1406 3038 1543 3061 
Q 1681 3084 1819 3084 
Q 2600 3084 3056 2656 
Q 3513 2228 3513 1497 
Q 3513 744 3044 326 
Q 2575 -91 1722 -91 
Q 1428 -91 1123 -41 
Q 819 9 494 109 
L 494 744 
Q 775 591 1075 516 
Q 1375 441 1709 441 
Q 2250 441 2565 725 
Q 2881 1009 2881 1497 
Q 2881 1984 2565 2268 
Q 2250 2553 1709 2553 
Q 1456 2553 1204 2497 
Q 953 2441 691 2322 
L 691 4666 
z
" transform="scale(0.015625)"/>
       </defs>
       <use xlink:href="#DejaVuSans-32"/>
       <use xlink:href="#DejaVuSans-35" x="63.623047"/>
      </g>
     </g>
    </g>
    <g id="xtick_3">
     <g id="line2d_5">
      <path d="M 155.404221 307.584 
L 155.404221 41.472 
" clip-path="url(#pf031285d17)" style="fill: none; stroke: #ffffff; stroke-width: 0.8; stroke-linecap: square"/>
     </g>
     <g id="line2d_6">
      <g>
       <use xlink:href="#mc7b159615b" x="155.404221" y="307.584" style="fill: #555555; stroke: #555555; stroke-width: 0.8"/>
      </g>
     </g>
     <g id="text_3">
      <!-- 50 -->
      <g style="fill: #555555" transform="translate(149.041721 322.182437) scale(0.1 -0.1)">
       <use xlink:href="#DejaVuSans-35"/>
       <use xlink:href="#DejaVuSans-30" x="63.623047"/>
      </g>
     </g>
    </g>
    <g id="xtick_4">
     <g id="line2d_7">
      <path d="M 196.189968 307.584 
L 196.189968 41.472 
" clip-path="url(#pf031285d17)" style="fill: none; stroke: #ffffff; stroke-width: 0.8; stroke-linecap: square"/>
     </g>
     <g id="line2d_8">
      <g>
       <use xlink:href="#mc7b159615b" x="196.189968" y="307.584" style="fill: #555555; stroke: #555555; stroke-width: 0.8"/>
      </g>
     </g>
     <g id="text_4">
      <!-- 75 -->
      <g style="fill: #555555" transform="translate(189.827468 322.182437) scale(0.1 -0.1)">
       <defs>
        <path id="DejaVuSans-37" d="M 525 4666 
L 3525 4666 
L 3525 4397 
L 1831 0 
L 1172 0 
L 2766 4134 
L 525 4134 
L 525 4666 
z
" transform="scale(0.015625)"/>
       </defs>
       <use xlink:href="#DejaVuSans-37"/>
       <use xlink:href="#DejaVuSans-35" x="63.623047"/>
      </g>
     </g>
    </g>
    <g id="xtick_5">
     <g id="line2d_9">
      <path d="M 236.975715 307.584 
L 236.975715 41.472 
" clip-path="url(#pf031285d17)" style="fill: none; stroke: #ffffff; stroke-width: 0.8; stroke-linecap: square"/>
     </g>
     <g id="line2d_10">
      <g>
       <use xlink:href="#mc7b159615b" x="236.975715" y="307.584" style="fill: #555555; stroke: #555555; stroke-width: 0.8"/>
      </g>
     </g>
     <g id="text_5">
      <!-- 100 -->
      <g style="fill: #555555" transform="translate(227.431965 322.182437) scale(0.1 -0.1)">
       <defs>
        <path id="DejaVuSans-31" d="M 794 531 
L 1825 531 
L 1825 4091 
L 703 3866 
L 703 4441 
L 1819 4666 
L 2450 4666 
L 2450 531 
L 3481 531 
L 3481 0 
L 794 0 
L 794 531 
z
" transform="scale(0.015625)"/>
       </defs>
       <use xlink:href="#DejaVuSans-31"/>
       <use xlink:href="#DejaVuSans-30" x="63.623047"/>
       <use xlink:href="#DejaVuSans-30" x="127.246094"/>
      </g>
     </g>
    </g>
    <g id="xtick_6">
     <g id="line2d_11">
      <path d="M 277.761462 307.584 
L 277.761462 41.472 
" clip-path="url(#pf031285d17)" style="fill: none; stroke: #ffffff; stroke-width: 0.8; stroke-linecap: square"/>
     </g>
     <g id="line2d_12">
      <g>
       <use xlink:href="#mc7b159615b" x="277.761462" y="307.584" style="fill: #555555; stroke: #555555; stroke-width: 0.8"/>
      </g>
     </g>
     <g id="text_6">
      <!-- 125 -->
      <g style="fill: #555555" transform="translate(268.217712 322.182437) scale(0.1 -0.1)">
       <use xlink:href="#DejaVuSans-31"/>
       <use xlink:href="#DejaVuSans-32" x="63.623047"/>
       <use xlink:href="#DejaVuSans-35" x="127.246094"/>
      </g>
     </g>
    </g>
    <g id="xtick_7">
     <g id="line2d_13">
      <path d="M 318.547209 307.584 
L 318.547209 41.472 
" clip-path="url(#pf031285d17)" style="fill: none; stroke: #ffffff; stroke-width: 0.8; stroke-linecap: square"/>
     </g>
     <g id="line2d_14">
      <g>
       <use xlink:href="#mc7b159615b" x="318.547209" y="307.584" style="fill: #555555; stroke: #555555; stroke-width: 0.8"/>
      </g>
     </g>
     <g id="text_7">
      <!-- 150 -->
      <g style="fill: #555555" transform="translate(309.003459 322.182437) scale(0.1 -0.1)">
       <use xlink:href="#DejaVuSans-31"/>
       <use xlink:href="#DejaVuSans-35" x="63.623047"/>
       <use xlink:href="#DejaVuSans-30" x="127.246094"/>
      </g>
     </g>
    </g>
    <g id="xtick_8">
     <g id="line2d_15">
      <path d="M 359.332956 307.584 
L 359.332956 41.472 
" clip-path="url(#pf031285d17)" style="fill: none; stroke: #ffffff; stroke-width: 0.8; stroke-linecap: square"/>
     </g>
     <g id="line2d_16">
      <g>
       <use xlink:href="#mc7b159615b" x="359.332956" y="307.584" style="fill: #555555; stroke: #555555; stroke-width: 0.8"/>
      </g>
     </g>
     <g id="text_8">
      <!-- 175 -->
      <g style="fill: #555555" transform="translate(349.789206 322.182437) scale(0.1 -0.1)">
       <use xlink:href="#DejaVuSans-31"/>
       <use xlink:href="#DejaVuSans-37" x="63.623047"/>
       <use xlink:href="#DejaVuSans-35" x="127.246094"/>
      </g>
     </g>
    </g>
    <g id="xtick_9">
     <g id="line2d_17">
      <path d="M 400.118703 307.584 
L 400.118703 41.472 
" clip-path="url(#pf031285d17)" style="fill: none; stroke: #ffffff; stroke-width: 0.8; stroke-linecap: square"/>
     </g>
     <g id="line2d_18">
      <g>
       <use xlink:href="#mc7b159615b" x="400.118703" y="307.584" style="fill: #555555; stroke: #555555; stroke-width: 0.8"/>
      </g>
     </g>
     <g id="text_9">
      <!-- 200 -->
      <g style="fill: #555555" transform="translate(390.574953 322.182437) scale(0.1 -0.1)">
       <use xlink:href="#DejaVuSans-32"/>
       <use xlink:href="#DejaVuSans-30" x="63.623047"/>
       <use xlink:href="#DejaVuSans-30" x="127.246094"/>
      </g>
     </g>
    </g>
    <g id="text_10">
     <!-- epoch -->
     <g style="fill: #555555" transform="translate(217.88625 337.38025) scale(0.12 -0.12)">
      <defs>
       <path id="DejaVuSans-65" d="M 3597 1894 
L 3597 1613 
L 953 1613 
Q 991 1019 1311 708 
Q 1631 397 2203 397 
Q 2534 397 2845 478 
Q 3156 559 3463 722 
L 3463 178 
Q 3153 47 2828 -22 
Q 2503 -91 2169 -91 
Q 1331 -91 842 396 
Q 353 884 353 1716 
Q 353 2575 817 3079 
Q 1281 3584 2069 3584 
Q 2775 3584 3186 3129 
Q 3597 2675 3597 1894 
z
M 3022 2063 
Q 3016 2534 2758 2815 
Q 2500 3097 2075 3097 
Q 1594 3097 1305 2825 
Q 1016 2553 972 2059 
L 3022 2063 
z
" transform="scale(0.015625)"/>
       <path id="DejaVuSans-70" d="M 1159 525 
L 1159 -1331 
L 581 -1331 
L 581 3500 
L 1159 3500 
L 1159 2969 
Q 1341 3281 1617 3432 
Q 1894 3584 2278 3584 
Q 2916 3584 3314 3078 
Q 3713 2572 3713 1747 
Q 3713 922 3314 415 
Q 2916 -91 2278 -91 
Q 1894 -91 1617 61 
Q 1341 213 1159 525 
z
M 3116 1747 
Q 3116 2381 2855 2742 
Q 2594 3103 2138 3103 
Q 1681 3103 1420 2742 
Q 1159 2381 1159 1747 
Q 1159 1113 1420 752 
Q 1681 391 2138 391 
Q 2594 391 2855 752 
Q 3116 1113 3116 1747 
z
" transform="scale(0.015625)"/>
       <path id="DejaVuSans-6f" d="M 1959 3097 
Q 1497 3097 1228 2736 
Q 959 2375 959 1747 
Q 959 1119 1226 758 
Q 1494 397 1959 397 
Q 2419 397 2687 759 
Q 2956 1122 2956 1747 
Q 2956 2369 2687 2733 
Q 2419 3097 1959 3097 
z
M 1959 3584 
Q 2709 3584 3137 3096 
Q 3566 2609 3566 1747 
Q 3566 888 3137 398 
Q 2709 -91 1959 -91 
Q 1206 -91 779 398 
Q 353 888 353 1747 
Q 353 2609 779 3096 
Q 1206 3584 1959 3584 
z
" transform="scale(0.015625)"/>
       <path id="DejaVuSans-63" d="M 3122 3366 
L 3122 2828 
Q 2878 2963 2633 3030 
Q 2388 3097 2138 3097 
Q 1578 3097 1268 2742 
Q 959 2388 959 1747 
Q 959 1106 1268 751 
Q 1578 397 2138 397 
Q 2388 397 2633 464 
Q 2878 531 3122 666 
L 3122 134 
Q 2881 22 2623 -34 
Q 2366 -91 2075 -91 
Q 1284 -91 818 406 
Q 353 903 353 1747 
Q 353 2603 823 3093 
Q 1294 3584 2113 3584 
Q 2378 3584 2631 3529 
Q 2884 3475 3122 3366 
z
" transform="scale(0.015625)"/>
       <path id="DejaVuSans-68" d="M 3513 2113 
L 3513 0 
L 2938 0 
L 2938 2094 
Q 2938 2591 2744 2837 
Q 2550 3084 2163 3084 
Q 1697 3084 1428 2787 
Q 1159 2491 1159 1978 
L 1159 0 
L 581 0 
L 581 4863 
L 1159 4863 
L 1159 2956 
Q 1366 3272 1645 3428 
Q 1925 3584 2291 3584 
Q 2894 3584 3203 3211 
Q 3513 2838 3513 2113 
z
" transform="scale(0.015625)"/>
      </defs>
      <use xlink:href="#DejaVuSans-65"/>
      <use xlink:href="#DejaVuSans-70" x="61.523438"/>
      <use xlink:href="#DejaVuSans-6f" x="125"/>
      <use xlink:href="#DejaVuSans-63" x="186.181641"/>
      <use xlink:href="#DejaVuSans-68" x="241.162109"/>
     </g>
    </g>
   </g>
   <g id="matplotlib.axis_2">
    <g id="ytick_1">
     <g id="line2d_19">
      <path d="M 57.6 265.377624 
L 414.72 265.377624 
" clip-path="url(#pf031285d17)" style="fill: none; stroke: #ffffff; stroke-width: 0.8; stroke-linecap: square"/>
     </g>
     <g id="line2d_20">
      <defs>
       <path id="m28e2229b33" d="M 0 0 
L -3.5 0 
" style="stroke: #555555; stroke-width: 0.8"/>
      </defs>
      <g>
       <use xlink:href="#m28e2229b33" x="57.6" y="265.377624" style="fill: #555555; stroke: #555555; stroke-width: 0.8"/>
      </g>
     </g>
     <g id="text_11">
      <!-- 0.5 -->
      <g style="fill: #555555" transform="translate(34.696875 269.176842) scale(0.1 -0.1)">
       <defs>
        <path id="DejaVuSans-2e" d="M 684 794 
L 1344 794 
L 1344 0 
L 684 0 
L 684 794 
z
" transform="scale(0.015625)"/>
       </defs>
       <use xlink:href="#DejaVuSans-30"/>
       <use xlink:href="#DejaVuSans-2e" x="63.623047"/>
       <use xlink:href="#DejaVuSans-35" x="95.410156"/>
      </g>
     </g>
    </g>
    <g id="ytick_2">
     <g id="line2d_21">
      <path d="M 57.6 206.714787 
L 414.72 206.714787 
" clip-path="url(#pf031285d17)" style="fill: none; stroke: #ffffff; stroke-width: 0.8; stroke-linecap: square"/>
     </g>
     <g id="line2d_22">
      <g>
       <use xlink:href="#m28e2229b33" x="57.6" y="206.714787" style="fill: #555555; stroke: #555555; stroke-width: 0.8"/>
      </g>
     </g>
     <g id="text_12">
      <!-- 1.0 -->
      <g style="fill: #555555" transform="translate(34.696875 210.514006) scale(0.1 -0.1)">
       <use xlink:href="#DejaVuSans-31"/>
       <use xlink:href="#DejaVuSans-2e" x="63.623047"/>
       <use xlink:href="#DejaVuSans-30" x="95.410156"/>
      </g>
     </g>
    </g>
    <g id="ytick_3">
     <g id="line2d_23">
      <path d="M 57.6 148.051951 
L 414.72 148.051951 
" clip-path="url(#pf031285d17)" style="fill: none; stroke: #ffffff; stroke-width: 0.8; stroke-linecap: square"/>
     </g>
     <g id="line2d_24">
      <g>
       <use xlink:href="#m28e2229b33" x="57.6" y="148.051951" style="fill: #555555; stroke: #555555; stroke-width: 0.8"/>
      </g>
     </g>
     <g id="text_13">
      <!-- 1.5 -->
      <g style="fill: #555555" transform="translate(34.696875 151.851169) scale(0.1 -0.1)">
       <use xlink:href="#DejaVuSans-31"/>
       <use xlink:href="#DejaVuSans-2e" x="63.623047"/>
       <use xlink:href="#DejaVuSans-35" x="95.410156"/>
      </g>
     </g>
    </g>
    <g id="ytick_4">
     <g id="line2d_25">
      <path d="M 57.6 89.389114 
L 414.72 89.389114 
" clip-path="url(#pf031285d17)" style="fill: none; stroke: #ffffff; stroke-width: 0.8; stroke-linecap: square"/>
     </g>
     <g id="line2d_26">
      <g>
       <use xlink:href="#m28e2229b33" x="57.6" y="89.389114" style="fill: #555555; stroke: #555555; stroke-width: 0.8"/>
      </g>
     </g>
     <g id="text_14">
      <!-- 2.0 -->
      <g style="fill: #555555" transform="translate(34.696875 93.188333) scale(0.1 -0.1)">
       <use xlink:href="#DejaVuSans-32"/>
       <use xlink:href="#DejaVuSans-2e" x="63.623047"/>
       <use xlink:href="#DejaVuSans-30" x="95.410156"/>
      </g>
     </g>
    </g>
    <g id="text_15">
     <!-- loss -->
     <g style="fill: #555555" transform="translate(28.20125 186.117375) rotate(-90) scale(0.12 -0.12)">
      <defs>
       <path id="DejaVuSans-6c" d="M 603 4863 
L 1178 4863 
L 1178 0 
L 603 0 
L 603 4863 
z
" transform="scale(0.015625)"/>
       <path id="DejaVuSans-73" d="M 2834 3397 
L 2834 2853 
Q 2591 2978 2328 3040 
Q 2066 3103 1784 3103 
Q 1356 3103 1142 2972 
Q 928 2841 928 2578 
Q 928 2378 1081 2264 
Q 1234 2150 1697 2047 
L 1894 2003 
Q 2506 1872 2764 1633 
Q 3022 1394 3022 966 
Q 3022 478 2636 193 
Q 2250 -91 1575 -91 
Q 1294 -91 989 -36 
Q 684 19 347 128 
L 347 722 
Q 666 556 975 473 
Q 1284 391 1588 391 
Q 1994 391 2212 530 
Q 2431 669 2431 922 
Q 2431 1156 2273 1281 
Q 2116 1406 1581 1522 
L 1381 1569 
Q 847 1681 609 1914 
Q 372 2147 372 2553 
Q 372 3047 722 3315 
Q 1072 3584 1716 3584 
Q 2034 3584 2315 3537 
Q 2597 3491 2834 3397 
z
" transform="scale(0.015625)"/>
      </defs>
      <use xlink:href="#DejaVuSans-6c"/>
      <use xlink:href="#DejaVuSans-6f" x="27.783203"/>
      <use xlink:href="#DejaVuSans-73" x="88.964844"/>
      <use xlink:href="#DejaVuSans-73" x="141.064453"/>
     </g>
    </g>
   </g>
   <g id="line2d_27">
    <path d="M 73.832727 53.671318 
L 77.095587 53.780536 
L 80.358447 53.954092 
L 81.989877 53.943412 
L 88.515596 54.339719 
L 90.147026 54.380987 
L 93.409886 54.785937 
L 95.041316 54.972513 
L 98.304175 55.755591 
L 99.935605 56.341185 
L 101.567035 57.071968 
L 103.198465 58.386948 
L 104.829895 60.514422 
L 106.461325 64.914635 
L 108.092755 74.795188 
L 109.724185 100.534384 
L 111.355614 150.879505 
L 112.987044 176.664312 
L 114.618474 194.906002 
L 116.249904 192.033676 
L 119.512764 204.878121 
L 121.144194 208.21075 
L 122.775624 212.886657 
L 124.407053 215.18438 
L 126.038483 213.77299 
L 127.669913 218.07558 
L 129.301343 224.33752 
L 130.932773 216.914864 
L 132.564203 224.580103 
L 134.195633 228.047445 
L 135.827063 230.012102 
L 137.458492 224.578591 
L 139.089922 227.887998 
L 140.721352 228.444113 
L 142.352782 229.862186 
L 143.984212 230.951941 
L 145.615642 233.110613 
L 147.247072 231.783363 
L 148.878502 231.536009 
L 150.509931 235.699653 
L 152.141361 234.751713 
L 153.772791 238.228226 
L 155.404221 240.261478 
L 157.035651 237.120374 
L 158.667081 233.404716 
L 160.298511 237.014947 
L 161.929941 238.437046 
L 163.56137 239.016845 
L 165.1928 238.367271 
L 166.82423 239.664975 
L 168.45566 241.493664 
L 170.08709 244.389055 
L 171.71852 242.317111 
L 173.34995 244.855947 
L 174.98138 247.655152 
L 176.61281 238.761164 
L 178.244239 245.171119 
L 179.875669 249.42869 
L 181.507099 244.110277 
L 183.138529 249.698909 
L 184.769959 248.526307 
L 186.401389 247.101163 
L 188.032819 248.347612 
L 189.664249 248.673766 
L 191.295678 250.726593 
L 192.927108 250.041175 
L 194.558538 252.437474 
L 196.189968 249.055044 
L 197.821398 254.130611 
L 199.452828 256.902828 
L 201.084258 253.909047 
L 202.715688 256.662464 
L 204.347117 256.308196 
L 205.978547 257.584043 
L 207.609977 256.856705 
L 209.241407 257.713442 
L 210.872837 259.937403 
L 212.504267 260.374763 
L 214.135697 258.820547 
L 215.767127 261.01088 
L 217.398556 261.94052 
L 219.029986 259.361651 
L 220.661416 260.523778 
L 222.292846 263.015259 
L 223.924276 260.947647 
L 225.555706 260.980114 
L 227.187136 264.157163 
L 228.818566 261.730961 
L 230.449995 261.120863 
L 232.081425 258.892041 
L 233.712855 262.726837 
L 236.975715 265.041558 
L 238.607145 263.609957 
L 240.238575 259.279028 
L 241.870005 263.997165 
L 243.501434 266.478749 
L 245.132864 267.598358 
L 246.764294 265.28882 
L 248.395724 268.151672 
L 250.027154 268.430954 
L 251.658584 269.247757 
L 253.290014 267.194341 
L 254.921444 269.700667 
L 256.552873 268.892832 
L 258.184303 264.580836 
L 259.815733 270.26848 
L 261.447163 270.64596 
L 263.078593 267.46457 
L 264.710023 269.010503 
L 266.341453 272.938371 
L 267.972883 267.037702 
L 269.604312 270.060894 
L 271.235742 271.137801 
L 272.867172 270.642105 
L 274.498602 270.349116 
L 276.130032 274.678236 
L 277.761462 272.935287 
L 279.392892 270.859633 
L 281.024322 272.896106 
L 282.655751 275.810729 
L 284.287181 273.320162 
L 285.918611 270.320791 
L 287.550041 273.344065 
L 289.181471 273.467043 
L 290.812901 276.364674 
L 292.444331 276.853512 
L 294.075761 277.483768 
L 295.70719 279.723723 
L 297.33862 277.925483 
L 298.97005 277.684516 
L 300.60148 278.635714 
L 302.23291 273.583887 
L 303.86434 276.198891 
L 305.49577 274.293074 
L 307.1272 279.17229 
L 308.75863 280.798258 
L 310.390059 277.956647 
L 312.021489 278.553893 
L 313.652919 280.190776 
L 315.284349 278.756939 
L 316.915779 279.818165 
L 318.547209 281.01812 
L 320.178639 276.406639 
L 323.441498 279.77229 
L 325.072928 280.762088 
L 326.704358 279.510148 
L 328.335788 281.417945 
L 329.967218 281.672816 
L 331.598648 277.830394 
L 333.230078 281.936994 
L 334.861508 280.797882 
L 336.492937 283.263266 
L 338.124367 281.252609 
L 339.755797 278.987222 
L 341.387227 284.468324 
L 343.018657 284.679029 
L 344.650087 281.799764 
L 346.281517 278.344493 
L 347.912947 283.071798 
L 349.544376 284.281896 
L 351.175806 286.694733 
L 352.807236 287.412806 
L 354.438666 287.456041 
L 356.070096 285.141838 
L 357.701526 290.080236 
L 360.964386 288.948284 
L 362.595815 288.913419 
L 364.227245 288.584907 
L 365.858675 286.106883 
L 367.490105 290.811542 
L 369.121535 288.7176 
L 370.752965 287.687515 
L 372.384395 291.83513 
L 374.015825 291.479166 
L 375.647254 290.564108 
L 377.278684 291.992717 
L 378.910114 287.742715 
L 380.541544 286.198901 
L 382.172974 293.535666 
L 383.804404 292.639606 
L 385.435834 292.114206 
L 387.067264 291.022288 
L 388.698693 289.608193 
L 390.330123 293.089363 
L 391.961553 293.105238 
L 393.592983 295.488 
L 395.224413 292.954864 
L 396.855843 291.40176 
L 398.487273 292.470613 
L 398.487273 292.470613 
" clip-path="url(#pf031285d17)" style="fill: none; stroke: #e24a33; stroke-width: 1.5; stroke-linecap: square"/>
   </g>
   <g id="line2d_28">
    <path d="M 73.832727 53.568 
L 88.515596 54.345509 
L 93.409886 54.840772 
L 96.672746 55.452327 
L 98.304175 55.946341 
L 99.935605 56.605698 
L 101.567035 57.567389 
L 103.198465 59.167304 
L 104.829895 62.070817 
L 106.461325 68.258829 
L 108.092755 83.89758 
L 109.724185 124.642474 
L 111.355614 161.512112 
L 112.987044 188.314612 
L 114.618474 186.897386 
L 116.249904 201.12001 
L 117.881334 199.242629 
L 119.512764 205.654192 
L 121.144194 202.419108 
L 122.775624 192.123797 
L 124.407053 201.536318 
L 126.038483 212.524974 
L 127.669913 216.972189 
L 129.301343 212.689077 
L 130.932773 217.488574 
L 132.564203 224.740267 
L 134.195633 224.791024 
L 135.827063 226.617241 
L 137.458492 223.844629 
L 139.089922 226.07071 
L 140.721352 222.976962 
L 142.352782 229.518832 
L 143.984212 225.744204 
L 145.615642 229.68063 
L 147.247072 232.532128 
L 148.878502 229.832852 
L 150.509931 227.939161 
L 152.141361 227.979397 
L 153.772791 233.106211 
L 155.404221 233.7138 
L 157.035651 236.130193 
L 158.667081 231.96899 
L 160.298511 235.289245 
L 161.929941 232.882589 
L 163.56137 236.036638 
L 165.1928 232.504405 
L 166.82423 233.429217 
L 168.45566 236.504947 
L 170.08709 238.292361 
L 171.71852 237.895376 
L 173.34995 237.225866 
L 174.98138 233.158802 
L 176.61281 231.035815 
L 178.244239 239.249827 
L 179.875669 237.089053 
L 181.507099 235.55326 
L 183.138529 234.531267 
L 184.769959 235.924608 
L 186.401389 240.908447 
L 188.032819 238.140591 
L 189.664249 239.793676 
L 191.295678 234.880159 
L 192.927108 241.353199 
L 194.558538 239.515185 
L 196.189968 239.123663 
L 197.821398 243.656521 
L 199.452828 243.317239 
L 201.084258 244.436536 
L 202.715688 244.793395 
L 204.347117 241.440568 
L 205.978547 242.57406 
L 207.609977 241.411447 
L 209.241407 243.263358 
L 210.872837 243.127463 
L 212.504267 239.653058 
L 214.135697 242.90758 
L 215.767127 239.501968 
L 217.398556 245.27748 
L 219.029986 241.118324 
L 220.661416 244.341286 
L 222.292846 244.348871 
L 223.924276 245.894856 
L 225.555706 240.419248 
L 228.818566 244.169987 
L 230.449995 240.439354 
L 232.081425 243.591248 
L 233.712855 242.337571 
L 235.344285 245.023658 
L 236.975715 238.300755 
L 238.607145 241.787302 
L 240.238575 244.647161 
L 241.870005 243.447657 
L 243.501434 244.901811 
L 245.132864 241.929525 
L 246.764294 246.109334 
L 248.395724 245.16056 
L 250.027154 244.358623 
L 251.658584 237.481742 
L 253.290014 240.505238 
L 254.921444 242.225433 
L 256.552873 243.369293 
L 258.184303 238.088025 
L 259.815733 239.484962 
L 261.447163 236.445373 
L 264.710023 241.242287 
L 266.341453 241.896177 
L 267.972883 238.210808 
L 269.604312 240.67409 
L 271.235742 228.840628 
L 272.867172 241.152704 
L 274.498602 242.226357 
L 276.130032 242.829387 
L 277.761462 235.883509 
L 279.392892 241.127404 
L 281.024322 236.697669 
L 282.655751 241.283486 
L 284.287181 231.753382 
L 285.918611 240.387324 
L 287.550041 241.255651 
L 289.181471 239.381788 
L 290.812901 239.708907 
L 292.444331 241.5322 
L 294.075761 244.716205 
L 295.70719 239.923927 
L 297.33862 237.72302 
L 298.97005 238.666985 
L 300.60148 224.225142 
L 302.23291 238.441226 
L 303.86434 240.618385 
L 305.49577 238.824724 
L 307.1272 240.325131 
L 308.75863 240.744894 
L 310.390059 238.680872 
L 312.021489 235.830704 
L 313.652919 238.767741 
L 315.284349 236.831269 
L 316.915779 239.973338 
L 318.547209 233.892965 
L 320.178639 238.152745 
L 321.810069 237.097606 
L 323.441498 230.441097 
L 325.072928 234.504461 
L 326.704358 237.562113 
L 328.335788 237.097395 
L 329.967218 233.103226 
L 331.598648 237.287886 
L 333.230078 234.250398 
L 334.861508 239.300148 
L 336.492937 238.610864 
L 338.124367 228.229335 
L 339.755797 234.973132 
L 341.387227 237.949869 
L 343.018657 227.750372 
L 344.650087 235.569814 
L 346.281517 232.45326 
L 347.912947 239.084383 
L 349.544376 233.606651 
L 351.175806 232.92823 
L 354.438666 227.961636 
L 356.070096 233.733944 
L 357.701526 232.244164 
L 359.332956 231.697821 
L 360.964386 235.642534 
L 362.595815 229.432902 
L 364.227245 225.653102 
L 365.858675 234.446355 
L 367.490105 229.237271 
L 369.121535 234.227506 
L 370.752965 229.504844 
L 372.384395 232.184297 
L 374.015825 229.123098 
L 377.278684 231.489904 
L 378.910114 224.638512 
L 380.541544 231.089836 
L 382.172974 227.246156 
L 383.804404 217.714647 
L 385.435834 228.004695 
L 387.067264 225.767503 
L 388.698693 230.35265 
L 390.330123 225.870461 
L 391.961553 229.817976 
L 393.592983 222.403443 
L 395.224413 221.76833 
L 396.855843 219.078377 
L 398.487273 226.095896 
L 398.487273 226.095896 
" clip-path="url(#pf031285d17)" style="fill: none; stroke: #348abd; stroke-width: 1.5; stroke-linecap: square"/>
   </g>
   <g id="patch_3">
    <path d="M 57.6 307.584 
L 57.6 41.472 
" style="fill: none; stroke: #ffffff; stroke-linejoin: miter; stroke-linecap: square"/>
   </g>
   <g id="patch_4">
    <path d="M 414.72 307.584 
L 414.72 41.472 
" style="fill: none; stroke: #ffffff; stroke-linejoin: miter; stroke-linecap: square"/>
   </g>
   <g id="patch_5">
    <path d="M 57.6 307.584 
L 414.72 307.584 
" style="fill: none; stroke: #ffffff; stroke-linejoin: miter; stroke-linecap: square"/>
   </g>
   <g id="patch_6">
    <path d="M 57.6 41.472 
L 414.72 41.472 
" style="fill: none; stroke: #ffffff; stroke-linejoin: miter; stroke-linecap: square"/>
   </g>
   <g id="text_16">
    <!-- loss of mynet -->
    <g transform="translate(187.6455 35.472) scale(0.144 -0.144)">
     <defs>
      <path id="DejaVuSans-20" transform="scale(0.015625)"/>
      <path id="DejaVuSans-66" d="M 2375 4863 
L 2375 4384 
L 1825 4384 
Q 1516 4384 1395 4259 
Q 1275 4134 1275 3809 
L 1275 3500 
L 2222 3500 
L 2222 3053 
L 1275 3053 
L 1275 0 
L 697 0 
L 697 3053 
L 147 3053 
L 147 3500 
L 697 3500 
L 697 3744 
Q 697 4328 969 4595 
Q 1241 4863 1831 4863 
L 2375 4863 
z
" transform="scale(0.015625)"/>
      <path id="DejaVuSans-6d" d="M 3328 2828 
Q 3544 3216 3844 3400 
Q 4144 3584 4550 3584 
Q 5097 3584 5394 3201 
Q 5691 2819 5691 2113 
L 5691 0 
L 5113 0 
L 5113 2094 
Q 5113 2597 4934 2840 
Q 4756 3084 4391 3084 
Q 3944 3084 3684 2787 
Q 3425 2491 3425 1978 
L 3425 0 
L 2847 0 
L 2847 2094 
Q 2847 2600 2669 2842 
Q 2491 3084 2119 3084 
Q 1678 3084 1418 2786 
Q 1159 2488 1159 1978 
L 1159 0 
L 581 0 
L 581 3500 
L 1159 3500 
L 1159 2956 
Q 1356 3278 1631 3431 
Q 1906 3584 2284 3584 
Q 2666 3584 2933 3390 
Q 3200 3197 3328 2828 
z
" transform="scale(0.015625)"/>
      <path id="DejaVuSans-79" d="M 2059 -325 
Q 1816 -950 1584 -1140 
Q 1353 -1331 966 -1331 
L 506 -1331 
L 506 -850 
L 844 -850 
Q 1081 -850 1212 -737 
Q 1344 -625 1503 -206 
L 1606 56 
L 191 3500 
L 800 3500 
L 1894 763 
L 2988 3500 
L 3597 3500 
L 2059 -325 
z
" transform="scale(0.015625)"/>
      <path id="DejaVuSans-6e" d="M 3513 2113 
L 3513 0 
L 2938 0 
L 2938 2094 
Q 2938 2591 2744 2837 
Q 2550 3084 2163 3084 
Q 1697 3084 1428 2787 
Q 1159 2491 1159 1978 
L 1159 0 
L 581 0 
L 581 3500 
L 1159 3500 
L 1159 2956 
Q 1366 3272 1645 3428 
Q 1925 3584 2291 3584 
Q 2894 3584 3203 3211 
Q 3513 2838 3513 2113 
z
" transform="scale(0.015625)"/>
      <path id="DejaVuSans-74" d="M 1172 4494 
L 1172 3500 
L 2356 3500 
L 2356 3053 
L 1172 3053 
L 1172 1153 
Q 1172 725 1289 603 
Q 1406 481 1766 481 
L 2356 481 
L 2356 0 
L 1766 0 
Q 1100 0 847 248 
Q 594 497 594 1153 
L 594 3053 
L 172 3053 
L 172 3500 
L 594 3500 
L 594 4494 
L 1172 4494 
z
" transform="scale(0.015625)"/>
     </defs>
     <use xlink:href="#DejaVuSans-6c"/>
     <use xlink:href="#DejaVuSans-6f" x="27.783203"/>
     <use xlink:href="#DejaVuSans-73" x="88.964844"/>
     <use xlink:href="#DejaVuSans-73" x="141.064453"/>
     <use xlink:href="#DejaVuSans-20" x="193.164062"/>
     <use xlink:href="#DejaVuSans-6f" x="224.951172"/>
     <use xlink:href="#DejaVuSans-66" x="286.132812"/>
     <use xlink:href="#DejaVuSans-20" x="321.337891"/>
     <use xlink:href="#DejaVuSans-6d" x="353.125"/>
     <use xlink:href="#DejaVuSans-79" x="450.537109"/>
     <use xlink:href="#DejaVuSans-6e" x="509.716797"/>
     <use xlink:href="#DejaVuSans-65" x="573.095703"/>
     <use xlink:href="#DejaVuSans-74" x="634.619141"/>
    </g>
   </g>
   <g id="legend_1">
    <g id="patch_7">
     <path d="M 352.445 78.82825 
L 407.72 78.82825 
Q 409.72 78.82825 409.72 76.82825 
L 409.72 48.472 
Q 409.72 46.472 407.72 46.472 
L 352.445 46.472 
Q 350.445 46.472 350.445 48.472 
L 350.445 76.82825 
Q 350.445 78.82825 352.445 78.82825 
z
" style="fill: #e5e5e5; opacity: 0.8; stroke: #cccccc; stroke-width: 0.5; stroke-linejoin: miter"/>
    </g>
    <g id="line2d_29">
     <path d="M 354.445 54.570437 
L 364.445 54.570437 
L 374.445 54.570437 
" style="fill: none; stroke: #e24a33; stroke-width: 1.5; stroke-linecap: square"/>
    </g>
    <g id="text_17">
     <!-- train -->
     <g transform="translate(382.445 58.070437) scale(0.1 -0.1)">
      <defs>
       <path id="DejaVuSans-72" d="M 2631 2963 
Q 2534 3019 2420 3045 
Q 2306 3072 2169 3072 
Q 1681 3072 1420 2755 
Q 1159 2438 1159 1844 
L 1159 0 
L 581 0 
L 581 3500 
L 1159 3500 
L 1159 2956 
Q 1341 3275 1631 3429 
Q 1922 3584 2338 3584 
Q 2397 3584 2469 3576 
Q 2541 3569 2628 3553 
L 2631 2963 
z
" transform="scale(0.015625)"/>
       <path id="DejaVuSans-61" d="M 2194 1759 
Q 1497 1759 1228 1600 
Q 959 1441 959 1056 
Q 959 750 1161 570 
Q 1363 391 1709 391 
Q 2188 391 2477 730 
Q 2766 1069 2766 1631 
L 2766 1759 
L 2194 1759 
z
M 3341 1997 
L 3341 0 
L 2766 0 
L 2766 531 
Q 2569 213 2275 61 
Q 1981 -91 1556 -91 
Q 1019 -91 701 211 
Q 384 513 384 1019 
Q 384 1609 779 1909 
Q 1175 2209 1959 2209 
L 2766 2209 
L 2766 2266 
Q 2766 2663 2505 2880 
Q 2244 3097 1772 3097 
Q 1472 3097 1187 3025 
Q 903 2953 641 2809 
L 641 3341 
Q 956 3463 1253 3523 
Q 1550 3584 1831 3584 
Q 2591 3584 2966 3190 
Q 3341 2797 3341 1997 
z
" transform="scale(0.015625)"/>
       <path id="DejaVuSans-69" d="M 603 3500 
L 1178 3500 
L 1178 0 
L 603 0 
L 603 3500 
z
M 603 4863 
L 1178 4863 
L 1178 4134 
L 603 4134 
L 603 4863 
z
" transform="scale(0.015625)"/>
      </defs>
      <use xlink:href="#DejaVuSans-74"/>
      <use xlink:href="#DejaVuSans-72" x="39.208984"/>
      <use xlink:href="#DejaVuSans-61" x="80.322266"/>
      <use xlink:href="#DejaVuSans-69" x="141.601562"/>
      <use xlink:href="#DejaVuSans-6e" x="169.384766"/>
     </g>
    </g>
    <g id="line2d_30">
     <path d="M 354.445 69.248562 
L 364.445 69.248562 
L 374.445 69.248562 
" style="fill: none; stroke: #348abd; stroke-width: 1.5; stroke-linecap: square"/>
    </g>
    <g id="text_18">
     <!-- test -->
     <g transform="translate(382.445 72.748562) scale(0.1 -0.1)">
      <use xlink:href="#DejaVuSans-74"/>
      <use xlink:href="#DejaVuSans-65" x="39.208984"/>
      <use xlink:href="#DejaVuSans-73" x="100.732422"/>
      <use xlink:href="#DejaVuSans-74" x="152.832031"/>
     </g>
    </g>
   </g>
  </g>
 </g>
 <defs>
  <clipPath id="pf031285d17">
   <rect x="57.6" y="41.472" width="357.12" height="266.112"/>
  </clipPath>
 </defs>
</svg>
